<svg width="400" height="438" viewBox="0 0 738 738" fill="none" xmlns="http://www.w3.org/2000/svg">
<path d="M738 0H0V738H738V0Z" fill="white"/>
<path d="M668.923 285.06C678.724 302.875 692.967 319.672 694.192 339.746C696.17 372.011 664.672 396.335 651.861 426.224C636.082 462.918 649.322 506.165 635.344 543.522C625.219 570.592 600.378 592.23 571.183 599.374C549.308 604.732 526.297 602.326 503.7 602.533C439.582 603.167 375.701 625.337 312.44 615.271C281.208 610.296 251.673 597.559 220.293 593.544C182.67 588.658 138.833 594.562 111.94 568.983C74.3609 533.264 102.257 467.567 74.0657 424.704C64.944 410.904 50.3611 400.114 45.4608 384.498C39.7192 366.255 49.0032 346.86 60.516 331.273C72.0288 315.687 86.3165 301.414 92.56 283.392C98.2278 266.979 94.774 249.119 87.7925 233.208C77.121 208.751 106.848 152.692 165.829 156.899C192.869 158.818 205.031 127.512 234.684 118.833C268.632 108.885 311.274 116.87 336.292 125.194C361.723 133.637 393.147 138.08 407.716 116.501C428.291 85.9032 489.634 81.18 517.176 130.626C527.227 148.707 536.187 162.773 557.603 161.386C673.632 153.917 654.355 258.58 668.923 285.06ZM352.631 117.814C352.631 121.977 352.631 129.091 370.934 127.925C376.542 127.571 381.118 124.56 381.118 120.412C381.118 116.265 376.557 112.899 370.934 112.899C365.31 112.899 352.631 111.187 352.631 117.814ZM172.367 137.962C171.843 138.341 171.426 138.849 171.157 139.438C169.822 141.239 167.96 142.58 165.829 143.275C164.558 143.615 163.375 144.224 162.36 145.061C162.019 145.432 161.757 145.868 161.59 146.343C161.423 146.817 161.354 147.321 161.387 147.823C161.42 148.326 161.555 148.816 161.783 149.265C162.011 149.714 162.328 150.111 162.714 150.434C164.157 151.348 165.879 151.719 167.57 151.482C173.948 151.176 180.072 148.891 185.09 144.943C191.526 139.836 175.91 136.043 172.367 137.962ZM154.98 147.6C152.825 146.124 150.065 146.995 147.925 148.102C147.686 148.196 147.469 148.337 147.286 148.517C147.104 148.697 146.959 148.913 146.862 149.15C146.582 150.153 147.851 150.877 148.899 151.201C150.473 151.87 152.218 152.03 153.888 151.659C155.526 151.054 157.15 148.928 154.98 147.6ZM74.0657 279.864C72.4864 275.023 68.7373 272.617 63.0695 275.436C59.8288 277.277 57.1462 279.959 55.3057 283.2C52.029 288.145 49.2246 293.798 49.9183 299.613C50.1976 301.761 50.9254 303.827 52.0544 305.675C53.1834 307.524 54.6884 309.114 56.4718 310.344C57.9344 311.454 59.713 312.07 61.5492 312.1C63.5495 311.902 65.4357 311.076 66.9366 309.739C70.4812 306.747 73.6174 303.303 76.2649 299.495C77.8799 297.728 78.9955 295.563 79.4974 293.222C80.0878 288.204 75.5269 284.307 74.0657 279.864ZM667.418 428.94C665.931 429.418 664.621 430.327 663.654 431.553C663.078 432.591 662.75 433.747 662.695 434.933C662.43 437.384 662.292 439.847 662.281 442.313C662.281 444.999 662.576 447.966 664.628 449.796C667.418 452.246 671.816 451.39 675.462 450.372C677.555 450.008 679.49 449.02 681.012 447.538C681.882 446.312 682.425 444.885 682.591 443.39C683.477 438.49 686.163 431.066 683.181 428.542C680.2 426.018 672.584 426.785 667.388 428.911L667.418 428.94ZM462.401 618.444C461.634 619.111 460.994 619.911 460.512 620.806C460.233 621.425 460.081 622.094 460.063 622.773C460.045 623.452 460.162 624.128 460.408 624.761C460.654 625.394 461.024 625.972 461.495 626.461C461.966 626.95 462.53 627.341 463.154 627.61C464.513 628.059 465.949 628.23 467.375 628.112C479.582 627.949 492.704 627.507 502.445 620.496C503.641 619.64 504.866 618.444 504.659 617.042C504.408 615.33 502.298 614.606 500.526 614.267C488.335 611.905 472.217 609.263 462.401 618.444ZM230.669 599.61C220.057 598.134 203.171 596.142 203.171 604.732C203.171 607.979 218.153 611.093 220.632 611.699C228.222 613.71 235.684 616.175 242.979 619.079C256.868 624.2 268.071 617.293 257.001 609.529C249.204 604.063 240.151 600.656 230.684 599.625L230.669 599.61Z" fill="#E4F9F5"/>
<path d="M579.551 396.645C596.014 394.831 612.167 390.861 627.595 384.837C628.333 384.528 628.791 389.561 628.791 389.561C628.791 389.561 632.23 382.845 633.425 382.269C646.075 376.365 657.676 367.996 663.89 356.484C663.89 356.484 666.96 427.066 576.23 442.741L579.551 396.645Z" fill="#00AD9F"/>
<path d="M609.721 477.161C609.721 477.161 639.669 493.043 698.281 495.803C698.281 495.803 658.429 532.157 567.286 519.64L570.238 478.239L609.721 477.161Z" fill="#7EE8D4"/>
<path d="M567.832 436.896C579.019 430.26 590.898 424.866 603.256 420.808C604.127 420.512 605.972 425.678 605.972 425.678C605.972 425.678 608.924 418.948 610.562 418.475C636.761 410.623 672.643 405.501 711.27 416.394C711.27 416.394 699.565 432.704 675.609 450.549C674.591 451.317 667.816 450.711 667.816 450.711C667.816 450.711 670.665 454.136 669.735 454.785C640.72 474.883 607.459 488.016 572.54 493.161L567.832 436.896Z" fill="#11999E"/>
<g style="mix-blend-mode:multiply" opacity="0.4">
<g style="mix-blend-mode:multiply" opacity="0.4">
<path d="M711.314 416.365C699.947 423.58 688.157 430.106 676.008 435.907C663.92 441.811 651.492 447.007 638.901 451.759C632.614 454.165 626.193 456.187 619.831 458.342L610.164 461.294C608.54 461.767 606.946 462.283 605.322 462.77L600.422 463.995C587.41 467.404 574.199 470.002 560.865 471.774L570.74 469.737L575.67 468.748C577.308 468.379 578.931 467.951 580.555 467.567L590.341 465.235L600.038 462.549C606.503 460.822 612.865 458.696 619.226 456.763C625.544 454.549 631.92 452.483 638.163 450.032C650.754 445.442 663.122 440.247 675.314 434.652C681.405 431.878 687.447 428.97 693.44 425.929C699.432 422.889 705.39 419.701 711.314 416.365Z" fill="#5084DA"/>
</g>
<g style="mix-blend-mode:multiply" opacity="0.4">
<path d="M629.396 454.21C631.89 451.877 634.326 449.501 636.776 447.139C639.226 444.778 641.543 442.342 643.816 439.848C646.089 437.354 648.244 434.8 650.385 432.173C652.525 429.545 654.414 426.771 656.289 423.892C655.089 427.116 653.524 430.191 651.624 433.058C649.704 435.919 647.573 438.633 645.248 441.176C640.612 446.254 635.274 450.643 629.396 454.21V454.21Z" fill="#5084DA"/>
</g>
<g style="mix-blend-mode:multiply" opacity="0.4">
<path d="M593.131 465.102C595.787 463.317 598.312 461.344 600.688 459.198C603.05 457.092 605.241 454.802 607.241 452.35C609.265 449.928 611.082 447.341 612.673 444.616C614.283 441.848 615.732 438.99 617.012 436.055C616.456 439.265 615.463 442.384 614.06 445.324C612.663 448.292 610.892 451.07 608.791 453.59C606.707 456.127 604.323 458.402 601.691 460.364C599.095 462.369 596.208 463.967 593.131 465.102V465.102Z" fill="#5084DA"/>
</g>
<g style="mix-blend-mode:multiply" opacity="0.4">
<path d="M629.396 454.209C634.017 454.468 638.649 454.468 643.27 454.209C645.558 454.091 647.846 453.811 650.119 453.486C652.392 453.162 654.65 452.66 656.982 452.246C654.933 453.451 652.728 454.37 650.429 454.977C648.134 455.614 645.78 456.009 643.403 456.158C641.03 456.311 638.649 456.242 636.289 455.951C633.926 455.669 631.609 455.084 629.396 454.209V454.209Z" fill="#5084DA"/>
</g>
<g style="mix-blend-mode:multiply" opacity="0.4">
<path d="M593.869 465.147C596.688 465.486 599.477 465.752 602.252 466.047C605.027 466.342 607.817 466.534 610.592 466.652C613.367 466.77 616.141 466.77 618.916 466.652C621.691 466.534 624.451 466.254 627.271 465.826C624.66 466.992 621.897 467.782 619.064 468.172C616.227 468.551 613.362 468.679 610.503 468.556C604.81 468.33 599.192 467.178 593.869 465.147V465.147Z" fill="#5084DA"/>
</g>
</g>
<g opacity="0.23">
<g style="mix-blend-mode:multiply" opacity="0.5">
<path d="M654.576 374.801C651.967 381.383 648.051 387.368 643.064 392.395C638.14 397.501 632.526 401.893 626.385 405.442L621.706 407.937C620.141 408.793 618.488 409.413 616.879 410.121C613.634 411.525 610.307 412.733 606.916 413.738C605.263 414.328 603.522 414.653 601.809 415.081L596.673 416.306C593.204 416.852 589.721 417.354 586.252 417.782C589.662 416.896 593.086 416.217 596.466 415.346L601.485 413.87C603.17 413.433 604.83 412.906 606.459 412.291C609.691 411.007 613.027 409.989 616.127 408.424C617.691 407.671 619.33 407.066 620.835 406.225L625.411 403.73C631.405 400.258 636.973 396.097 642.001 391.332C643.274 390.15 644.486 388.903 645.632 387.598C646.193 386.948 646.798 386.313 647.344 385.649L648.953 383.598C651.125 380.867 653.01 377.919 654.576 374.801V374.801Z" fill="#11999E"/>
</g>
</g>
<path d="M679.108 500.777C675.004 501.574 670.842 502.061 666.694 502.549C662.547 503.036 658.37 503.257 654.193 503.464C645.829 503.84 637.45 503.721 629.101 503.109C624.924 502.755 620.761 502.268 616.629 501.633C612.473 501.041 608.354 500.218 604.289 499.168C596.131 497.188 588.309 494.02 581.072 489.766C584.817 491.583 588.683 493.136 592.644 494.416C596.58 495.733 600.586 496.832 604.643 497.707C612.757 499.451 620.984 500.615 629.263 501.191C637.529 501.929 645.839 502.076 654.163 502.002C662.488 501.929 670.783 501.501 679.108 500.777Z" fill="#11999E"/>
<path d="M639.846 515.419C634.317 515.791 628.787 514.697 623.817 512.246C621.324 510.981 619.064 509.305 617.13 507.286C615.237 505.249 613.825 502.813 612.998 500.157C614.46 502.387 616.206 504.416 618.193 506.194C620.188 507.879 622.373 509.325 624.702 510.504C627.084 511.674 629.551 512.661 632.082 513.456C634.635 514.243 637.226 514.898 639.846 515.419Z" fill="#11999E"/>
<path d="M618.016 516.718C612.541 515.882 607.384 513.616 603.064 510.15C600.893 508.376 599.041 506.245 597.588 503.847C596.19 501.446 595.343 498.764 595.108 495.995C596.053 498.49 597.319 500.852 598.872 503.021C600.45 505.098 602.268 506.981 604.289 508.63C606.351 510.273 608.537 511.753 610.828 513.058C613.145 514.371 615.492 515.626 618.016 516.718Z" fill="#11999E"/>
<path d="M378.712 576.378C374.104 571.141 368.425 566.955 362.058 564.103C355.692 561.251 348.788 559.799 341.812 559.847C331.48 559.98 321.458 563.389 311.215 562.799C305.81 562.466 300.534 561.015 295.719 558.538C290.904 556.06 286.656 552.611 283.243 548.407C279.831 544.203 277.327 539.337 275.892 534.116C274.457 528.895 274.121 523.433 274.905 518.076C276.086 509.958 280.337 501.84 287.687 498.179C291.776 496.31 296.298 495.596 300.764 496.113C304.847 496.5 308.838 497.562 312.572 499.257C321.059 503.036 328.454 509.678 334.373 516.969C339.731 523.655 351.982 533.471 360.262 539.803C365.118 543.507 368.616 546.017 368.616 546.017C374.417 551.478 374.712 569.5 378.712 576.378Z" fill="#52D2BC"/>
<path d="M288.765 521.028C314.565 528.408 343.052 538.74 363.199 556.452" stroke="#00AD9F" stroke-linecap="round" stroke-linejoin="round"/>
<path d="M455.036 517.367C454.749 521.722 453.6 525.977 451.656 529.884C450.183 532.539 448.294 534.94 446.062 536.998C444.927 538.076 443.735 539.091 442.49 540.039C437.776 543.647 432.48 546.423 426.83 548.245C418.756 550.814 410.121 551.301 402.697 555.847C397.069 559.38 392.807 564.719 390.609 570.991V563.758C391.406 555.758 392.203 547.611 395.184 539.965C397.21 535.027 399.811 530.346 402.933 526.017C407.696 518.97 413.374 512.587 419.819 507.035C425.029 502.607 430.992 498.903 437.354 497.958C443.715 497.013 450.49 499.434 453.398 504.954C455.287 508.6 455.42 513.072 455.036 517.367Z" fill="#11999E"/>
<path opacity="0.31" d="M395.096 557.057C399.672 546.283 407.295 537.08 417.029 530.578C422.933 526.666 429.516 523.995 435.597 520.334C441.678 516.674 447.538 511.685 450.357 504.999" stroke="#0B43A4" stroke-linecap="round" stroke-linejoin="round"/>
<path d="M385.236 563.625C396.586 552.378 412.675 547.212 428.512 544.939C441.708 543.05 455.567 542.976 467.922 548.024C471.789 549.603 475.597 551.788 477.885 555.286C480.172 558.784 480.497 563.832 477.707 566.932C475.346 569.559 471.523 570.194 467.995 570.312C456.409 570.74 445.058 567.36 433.708 564.983C414.195 560.895 392.941 559.906 375.199 569.013" fill="#52D2BC"/>
<path d="M399.317 557.707C422.815 547.803 456.748 550.991 471.538 561.234" stroke="#00AD9F" stroke-linecap="round" stroke-linejoin="round"/>
<path d="M121.49 442.505C110.877 437.398 105.8 423.804 97.0765 420.881C86.2574 417.147 83.2316 429.221 65.7558 426.239C51.0991 423.73 46.6416 407.243 22.1252 412.35C14.6272 413.9 9.6678 420.232 12.4722 427.819C14.5829 435.376 24.9739 440.158 31.1731 444.055C36.6638 447.154 41.5051 448.822 44.7818 454.578L44.8704 454.77C47.0549 459.449 46.184 463.626 51.291 467.051C63.2761 475.818 78.1837 461.899 91.8072 462.313C101.416 462.608 101.15 472.571 112.693 475.464C124.235 478.357 120.383 468.084 144.382 477.383C144.588 477.463 144.807 477.503 145.028 477.498C145.248 477.494 145.466 477.445 145.668 477.356C145.869 477.267 146.051 477.138 146.203 476.978C146.355 476.818 146.474 476.63 146.552 476.423V476.423C146.664 476.127 146.691 475.805 146.628 475.494C146.565 475.183 146.416 474.896 146.198 474.667C129.401 457.043 137.12 450.003 121.49 442.505Z" fill="#4A84D8"/>
<path d="M121.49 442.505C110.877 437.398 105.8 423.804 97.0765 420.881C86.2574 417.147 83.2316 429.221 65.7558 426.239C51.0991 423.73 46.6416 407.243 22.1252 412.35C14.6272 413.9 9.6678 420.232 12.4722 427.819C14.5829 435.376 24.9739 440.158 31.1731 444.055C36.6638 447.154 41.5051 448.822 44.7818 454.578L44.8704 454.77C47.0549 459.449 46.184 463.626 51.291 467.051C63.2761 475.818 78.1837 461.899 91.8072 462.313C101.416 462.608 101.15 472.571 112.693 475.464C124.235 478.357 120.383 468.084 144.382 477.383C144.588 477.463 144.807 477.503 145.028 477.498C145.248 477.494 145.466 477.445 145.668 477.356C145.869 477.267 146.051 477.138 146.203 476.978C146.355 476.818 146.474 476.63 146.552 476.423V476.423C146.664 476.127 146.691 475.805 146.628 475.494C146.565 475.183 146.416 474.896 146.198 474.667C129.401 457.043 137.12 450.003 121.49 442.505Z" fill="#00AD9F"/>
<g style="mix-blend-mode:screen" opacity="0.5">
<g style="mix-blend-mode:screen" opacity="0.5">
<path d="M135.083 465.412C125.947 460.689 120.678 450.741 111.054 446.815C108.898 445.904 106.576 445.451 104.235 445.486C100.885 445.56 97.6078 446.962 94.2426 446.579C89.4308 446.091 86.3902 441.885 82.1246 440.114C77.2243 438.106 72.2354 441.221 67.1875 439.996C62.1396 438.771 57.8444 434.992 53.7706 431.833C45.6217 425.226 35.4499 421.62 24.9591 421.619C24.413 421.619 24.6639 423.095 25.2838 423.095C37.0918 423.095 46.6711 427.848 55.8518 434.903C59.2761 437.575 62.9514 440.379 67.2613 441.427C72.4273 442.667 77.5933 439.464 82.5822 441.752C86.4493 443.538 89.3275 447.198 93.6964 447.907C99.0838 448.778 104.028 445.959 109.519 447.656C119.954 450.918 125.43 461.826 134.921 466.741C135.585 467.08 135.571 465.648 135.083 465.398V465.412Z" fill="#4CA1FF"/>
</g>
</g>
<path d="M224.824 513.869C189.902 517.559 184.323 520.57 175.939 516.954C165.282 512.334 154.065 513.486 143.305 509.072C132.545 504.659 120.87 501.294 109.357 503.168C105.726 503.744 101.711 505.22 101.195 509.486C101.04 511.207 101.523 512.925 102.553 514.312C105.076 517.84 109.209 519.021 113.15 520.113L126.346 523.744C127.263 523.993 128.069 524.548 128.628 525.316C129.188 526.085 129.469 527.022 129.424 527.972C129.379 528.921 129.012 529.828 128.382 530.54C127.753 531.253 126.899 531.73 125.962 531.891H125.903C122.17 532.199 118.413 531.844 114.803 530.843C106.877 529.116 98.892 526.932 90.8183 526.932C81.0029 526.932 70.5823 530.474 65.7263 539.626C63.9859 542.888 63.3637 546.632 63.9551 550.282C65.6673 560.408 75.1579 563.788 83.5564 563.035C89.4604 562.504 95.0544 560.216 100.634 558.194C114.257 553.264 125.918 558.71 140.412 559.079C180.397 560.157 224.824 513.869 224.824 513.869Z" fill="#7EE8D4"/>
<path d="M74.8185 545.825C99.6743 542.976 124.722 540.098 148.618 532.541C155.615 530.327 164.633 529.707 184.382 515.139" stroke="#00AD9F" stroke-linecap="round" stroke-linejoin="round"/>
<path d="M115.128 401.634C115.942 402.259 116.817 402.798 117.741 403.243C122.006 405.339 126.892 405.634 130.287 409.457C132.545 411.878 133.785 415.11 135.467 417.974C135.816 418.604 136.206 419.21 136.633 419.789C141.888 426.992 147.054 427.819 152.574 427.7C154.832 427.7 157.179 427.435 159.6 427.435C163.713 427.308 167.786 428.27 171.408 430.224C174.575 432.016 177.415 434.331 179.806 437.073C180.107 437.351 180.494 437.517 180.902 437.544C181.31 437.571 181.716 437.457 182.05 437.221C182.366 437.017 182.617 436.726 182.771 436.383C182.926 436.04 182.978 435.659 182.921 435.287C181.855 429.823 179.11 424.828 175.068 420.999C165.282 411.745 150.847 411.007 149.976 391.907C149.784 387.804 150.655 384.911 149.976 381.989C149.545 380.274 148.681 378.699 147.467 377.413C144.515 374.225 140.264 372.808 136.471 370.269C126.139 362.889 131.098 350.978 130.198 339.583C129.578 330.285 121.224 324.233 114.39 318.919C105.829 312.632 105.859 301.281 100.088 292.853C94.3164 284.425 79.9992 281.045 72.3683 292.351C64.2798 303.672 68.7226 317.827 71.0546 329.251C71.6286 332.095 72.6605 334.827 74.11 337.34C78.3756 344.72 85.7113 350.107 92.0286 356.41C95.9502 360.231 99.1459 364.732 101.46 369.694C102.82 372.651 103.812 375.764 104.412 378.963C104.545 379.73 104.693 380.439 104.84 381.236C106.272 389.251 108.058 396.335 115.128 401.634Z" fill="#7EE8D4"/>
<g style="mix-blend-mode:screen" opacity="0.5">
<g style="mix-blend-mode:screen" opacity="0.5">
<path d="M78.7151 292.558C79.1284 303.023 79.9254 313.886 87.7778 321.665C91.4382 325.296 95.8367 328.115 99.2905 331.997C101.532 334.562 103.108 337.638 103.881 340.956C104.258 342.93 104.978 344.823 106.006 346.55C107.493 348.295 109.321 349.717 111.379 350.727C113.94 352.386 116.046 354.659 117.504 357.34C119.851 361.502 121.121 366.196 123.231 370.446C124.121 372.335 125.236 374.11 126.552 375.731C128.648 378.24 131.822 379.804 133.239 382.83C135.644 387.981 134.715 394.166 136.958 399.494C142.39 411.907 155.246 418.092 166.818 423.538C167.497 423.863 167.467 422.431 166.98 422.195C155.718 416.896 143.069 410.963 137.696 398.933C135.497 394.092 136.146 388.734 134.552 383.76C132.958 378.786 128.309 376.97 125.696 372.926C121.18 366.092 120.383 356.897 114.021 351.258C111.91 349.384 108.929 348.484 107.084 346.343C104.899 343.775 104.84 340.026 103.66 337C101.919 333.181 99.2682 329.846 95.94 327.288C91.3644 323.318 86.287 319.834 83.4531 314.299C80.073 307.716 79.8516 300.012 79.5712 292.765C79.5712 292.012 78.6266 291.569 78.6561 292.558H78.7151Z" fill="#4CA1FF"/>
</g>
</g>
<g style="mix-blend-mode:multiply" opacity="0.37">
<path d="M159.556 427.435C163.669 427.308 167.742 428.27 171.364 430.224C171.733 424.32 173.71 423.14 175.024 420.999C165.238 411.745 150.803 411.007 149.932 391.908C149.74 387.804 150.611 384.911 149.932 381.989C146.98 388.114 141.77 389.369 142.183 395.627C142.596 401.885 150.803 408.055 152.279 416.202C153.504 422.918 156.043 424.63 159.556 427.435Z" fill="#5A4FD1"/>
</g>
<path d="M254.197 523.729C247.599 521.117 238.787 520.054 234.566 525.736C231.024 530.504 232.854 537.264 235.304 542.681C237.356 547.242 239.983 551.891 244.337 554.371C247.416 555.891 250.769 556.779 254.197 556.983C263.69 558.11 273.242 558.662 282.802 558.636C294.908 558.947 306.637 562.92 316.44 570.031C304.676 548.186 276.396 532.497 254.197 523.729Z" fill="#00AD9F"/>
<path opacity="0.31" d="M242.625 537.928C251.023 538.282 259.496 538.873 267.555 541.264C275.613 543.655 307.495 558.238 312.454 564.437" stroke="#0B43A4" stroke-linecap="round" stroke-linejoin="round"/>
<path d="M576.54 361.236C576.34 362.207 576.25 363.197 576.275 364.188C576.275 368.734 578.105 373.044 576.275 377.59C575.182 380.542 572.924 382.978 571.197 385.649C570.804 386.216 570.449 386.807 570.135 387.421C566.194 394.978 567.684 399.76 570.135 404.439C571.153 406.358 572.334 408.276 573.352 410.343C575.228 413.824 576.145 417.741 576.009 421.693C575.816 425.167 575.042 428.585 573.721 431.804C573.608 432.178 573.628 432.58 573.779 432.941C573.93 433.302 574.202 433.599 574.548 433.782C574.855 433.97 575.21 434.063 575.57 434.05C575.93 434.036 576.277 433.918 576.57 433.708C580.783 430.463 583.879 425.984 585.426 420.896C589.19 408.586 583.669 395.907 599.669 387.022C603.108 385.118 605.957 384.631 608.171 382.83C609.466 381.734 610.452 380.32 611.035 378.727C612.511 374.845 611.905 370.594 612.511 366.269C614.415 354.373 626.754 353.458 636.126 347.834C643.831 343.406 645.455 333.606 647.049 325.517C648.805 315.51 658.532 310.757 663.285 302.167C668.038 293.576 664.879 279.923 651.92 278.211C638.783 276.101 628.54 285.931 619.699 292.809C617.507 294.513 615.608 296.561 614.075 298.875C609.499 305.709 608.068 314.24 605.367 322.344C603.75 327.316 601.25 331.956 597.987 336.041C596.036 338.467 593.784 340.635 591.286 342.491L589.514 343.834C583.419 348.454 578.075 352.956 576.54 361.236Z" fill="#7EE8D4"/>
<g style="mix-blend-mode:screen" opacity="0.5">
<g style="mix-blend-mode:screen" opacity="0.5">
<path d="M654.34 283.392C645.292 288.351 636.495 293.724 633.307 304.056C631.831 308.779 631.315 313.812 629.293 318.358C627.993 321.112 626.079 323.53 623.699 325.428C621.96 326.702 620.544 328.365 619.566 330.285C618.577 332.646 618.902 335.318 618.385 337.768C617.738 340.464 616.503 342.984 614.769 345.148C611.95 348.912 608.363 352.056 605.721 355.952C602.769 360.247 603.02 366.284 599.138 369.768C595.522 372.985 591.049 374.742 587.846 378.505C579.404 388.409 579.655 402.313 579.906 414.564C579.906 415.332 580.821 415.76 580.806 414.771C580.555 402.535 580.289 388.439 589.263 378.889C592.555 375.391 597.234 373.753 600.496 370.299C603.758 366.845 603.448 361.812 605.898 357.9C610.193 350.978 618.149 346.092 619.462 337.546C620.038 333.738 619.994 330.713 623.034 327.879C624.702 326.521 626.266 325.041 627.713 323.451C630.459 319.953 631.551 315.525 632.555 311.288C634.031 305.311 635.507 299.628 639.846 295.052C644.185 290.477 649.573 287.672 654.872 284.72C655.359 284.455 654.872 283.067 654.34 283.377V283.392Z" fill="#4CA1FF"/>
</g>
</g>
<path d="M538.401 543.434C548.452 549.101 552.555 562.725 560.895 566.135C571.227 570.489 574.961 558.873 591.891 562.917C606.075 566.312 609.367 582.725 633.676 579.315C641.056 578.267 646.37 572.393 644.097 564.791C642.532 557.279 632.673 551.935 626.857 547.758C621.691 544.378 617.042 542.445 614.237 536.585L614.149 536.408C612.319 531.685 613.44 527.655 608.658 523.965C597.514 514.637 582.09 527.286 568.732 526.002C559.36 525.102 560.26 515.375 549.146 511.803C538.032 508.231 541.161 518.519 518.283 507.892C518.087 507.8 517.875 507.747 517.659 507.738C517.443 507.728 517.228 507.761 517.025 507.835C516.821 507.909 516.635 508.023 516.476 508.169C516.317 508.316 516.189 508.492 516.098 508.689V508.689C515.972 508.972 515.927 509.285 515.968 509.593C516.01 509.901 516.137 510.191 516.334 510.43C531.611 528.703 523.611 535.094 538.401 543.434Z" fill="#4A84D8"/>
<path d="M538.401 543.434C548.452 549.101 552.555 562.725 560.895 566.135C571.227 570.489 574.961 558.873 591.891 562.917C606.075 566.312 609.367 582.725 633.676 579.315C641.056 578.267 646.37 572.393 644.097 564.791C642.532 557.279 632.673 551.935 626.857 547.758C621.691 544.378 617.042 542.445 614.237 536.585L614.149 536.408C612.319 531.685 613.44 527.655 608.658 523.965C597.514 514.637 582.09 527.286 568.732 526.002C559.36 525.102 560.26 515.375 549.146 511.803C538.032 508.231 541.161 518.519 518.283 507.892C518.087 507.8 517.875 507.747 517.659 507.738C517.443 507.728 517.228 507.761 517.025 507.835C516.821 507.909 516.635 508.023 516.476 508.169C516.317 508.316 516.189 508.492 516.098 508.689V508.689C515.972 508.972 515.927 509.285 515.968 509.593C516.01 509.901 516.137 510.191 516.334 510.43C531.611 528.703 523.611 535.094 538.401 543.434Z" fill="#00AD9F"/>
<g style="mix-blend-mode:screen" opacity="0.5">
<g style="mix-blend-mode:screen" opacity="0.5">
<path d="M526.637 520.172C535.493 525.559 540.142 536.29 549.958 540.364C555.256 542.578 560.009 540.275 565.367 541.205C570.208 542.046 572.747 546.578 577.175 548.467C581.736 550.489 586.739 547.921 591.463 549.382C596.54 550.961 600.466 555.094 604.348 558.504C611.814 565.311 621.367 569.385 631.448 570.061C632.126 570.061 631.935 568.585 631.448 568.585C619.846 567.847 610.784 562.681 602.311 555.094C599.45 552.239 596.101 549.92 592.422 548.245C587.197 546.223 581.441 549.293 576.54 546.651C573.027 544.747 570.636 541.131 566.622 539.995C561.5 538.519 556.29 541.102 551.065 539.286C540.733 535.699 535.995 524.275 526.917 518.785C526.297 518.401 526.297 519.847 526.77 520.128L526.637 520.172Z" fill="#4CA1FF"/>
</g>
</g>
<path d="M179.275 515.906C179.275 515.906 135.453 506.312 101.741 510.002C100.678 510.106 101.977 503.464 101.977 503.464C101.977 503.464 95.0249 510.844 93.2685 511.124C74.7299 514.076 56.6784 520.467 44.3538 532.969C44.3538 532.969 66.7743 440.852 189.592 454.549L179.275 515.906Z" fill="#11999E"/>
<path d="M204.751 520.836C204.751 520.836 185.12 511.98 160.604 492.881C159.629 492.128 164.072 486.239 164.072 486.239C164.072 486.239 154.301 487.833 152.604 486.401C124.56 462.785 92.3681 426.284 76.1764 374.904C76.1764 374.904 103.084 376.041 140.751 389.797C142.345 390.387 146.655 398.417 146.655 398.417C146.655 398.417 148.412 392.705 149.814 393.28C193.706 411.06 232.902 438.73 264.352 474.135L204.751 520.836Z" fill="#11999E"/>
<g style="mix-blend-mode:multiply" opacity="0.4">
<g style="mix-blend-mode:multiply" opacity="0.4">
<path d="M76.1764 376.159C92.6046 383.588 108.569 392.001 123.984 401.354C139.512 410.579 154.478 420.704 169.076 431.331C176.456 436.601 183.393 442.328 190.507 447.892L200.839 456.615C202.566 458.091 204.308 459.567 206.005 461.043L210.979 465.634C224.37 477.737 237.008 490.646 248.824 504.29L239.274 494.726L234.684 489.87C233.06 488.305 231.393 486.8 229.754 485.264L219.924 475.995L209.784 467.139C203.083 461.132 196.013 455.567 189.12 449.796C181.976 444.32 174.98 438.682 167.629 433.56C153.224 422.8 138.286 412.749 123.039 403.184C115.443 398.392 107.733 393.753 99.9104 389.265C92.0876 384.778 84.1763 380.409 76.1764 376.159Z" fill="#11999E"/>
</g>
<g style="mix-blend-mode:multiply" opacity="0.4">
<path d="M178.921 440.246C174.493 439.154 170.065 438.18 165.637 437.206C161.209 436.232 156.781 435.39 152.279 434.667C147.777 433.944 143.334 433.383 138.833 432.94C134.331 432.498 129.74 432.468 125.135 432.468C129.639 431.452 134.245 430.957 138.862 430.992C143.481 431.043 148.089 431.443 152.648 432.188C161.745 433.609 170.592 436.323 178.921 440.246V440.246Z" fill="#11999E"/>
</g>
<g style="mix-blend-mode:multiply" opacity="0.4">
<path d="M135.792 410.712C132.604 410.52 129.46 410.417 126.301 410.284C123.143 410.151 120.014 410.151 116.884 410.21C113.755 410.269 110.626 410.431 107.497 410.682C104.368 410.933 101.268 411.435 98.1245 412.011C101.068 410.746 104.149 409.829 107.305 409.28C110.461 408.741 113.654 408.445 116.855 408.394C123.246 408.254 129.624 409.035 135.792 410.712V410.712Z" fill="#11999E"/>
</g>
<g style="mix-blend-mode:multiply" opacity="0.4">
<path d="M217.828 472.94C213.878 471.257 209.807 469.871 205.651 468.792C201.553 467.684 197.372 466.909 193.149 466.475C188.943 465.976 184.701 465.837 180.471 466.062C176.18 466.308 171.907 466.801 167.674 467.538C171.701 465.825 175.941 464.664 180.279 464.084C184.643 463.477 189.067 463.422 193.445 463.922C197.82 464.377 202.123 465.369 206.256 466.874C210.397 468.3 214.299 470.346 217.828 472.94V472.94Z" fill="#11999E"/>
</g>
<g style="mix-blend-mode:multiply" opacity="0.4">
<path d="M178.921 440.246C175.766 434.884 172.317 429.7 168.589 424.719C166.773 422.239 164.795 419.878 162.685 417.575C160.574 415.273 158.434 413.147 156.235 410.771C159.097 412.186 161.753 413.983 164.131 416.114C166.536 418.222 168.712 420.577 170.626 423.14C172.543 425.689 174.218 428.412 175.629 431.272C177.112 434.108 178.219 437.125 178.921 440.246V440.246Z" fill="#11999E"/>
</g>
<g style="mix-blend-mode:multiply" opacity="0.4">
<path d="M217.341 472.069C215.644 468.66 213.887 465.324 212.175 461.988C210.463 458.652 208.633 455.39 206.714 452.187C204.795 448.984 202.773 445.87 200.647 442.815C198.439 439.772 196.074 436.846 193.563 434.047C196.791 436.125 199.712 438.644 202.242 441.531C204.751 444.439 207.003 447.56 208.972 450.859C212.897 457.427 215.724 464.591 217.341 472.069Z" fill="#11999E"/>
</g>
</g>
<g style="mix-blend-mode:screen" opacity="0.5">
<g style="mix-blend-mode:screen" opacity="0.5">
<path d="M63.2171 512.748C68.8111 505.117 76.5011 499.183 84.6339 494.371C92.8906 489.637 101.768 486.08 111.01 483.803L117.977 482.327C120.294 481.811 122.67 481.648 125.017 481.309C129.717 480.712 134.449 480.401 139.187 480.379C141.548 480.231 143.91 480.467 146.272 480.556L153.342 480.896C158.035 481.486 162.7 482.135 167.349 482.873C162.626 482.726 157.962 482.342 153.283 482.18H146.257C143.918 482.118 141.578 482.182 139.246 482.372C134.596 482.8 129.932 482.873 125.342 483.744C123.039 484.128 120.707 484.276 118.449 484.807L111.63 486.283C102.601 488.536 93.8674 491.841 85.608 496.128C83.5253 497.169 81.5003 498.322 79.5417 499.582C78.5675 500.202 77.5491 500.792 76.5897 501.456L73.8 503.493C69.9627 506.205 66.4162 509.306 63.2171 512.748Z" fill="#4CA1FF"/>
</g>
</g>
<g style="mix-blend-mode:screen" opacity="0.5">
<g style="mix-blend-mode:screen" opacity="0.5">
<path d="M139.024 481.56C136.471 485.619 133.991 489.471 131.91 493.545C130.867 495.569 129.945 497.654 129.15 499.788C128.394 501.993 127.768 504.241 127.275 506.519C126.366 501.672 127.181 496.659 129.578 492.349C130.703 490.202 132.064 488.187 133.637 486.342C135.187 484.491 137.002 482.879 139.024 481.56V481.56Z" fill="#4CA1FF"/>
</g>
</g>
<path d="M405.162 511.139H332.572V561.057H405.162V511.139Z" fill="#40514E"/>
<path d="M442.534 560.275H295.2C294.065 560.227 292.931 560.41 291.868 560.812C290.805 561.213 289.834 561.826 289.014 562.613C288.194 563.399 287.541 564.344 287.095 565.389C286.649 566.434 286.419 567.559 286.419 568.695C286.419 569.832 286.649 570.957 287.095 572.002C287.541 573.047 288.194 573.992 289.014 574.778C289.834 575.565 290.805 576.178 291.868 576.579C292.931 576.981 294.065 577.164 295.2 577.116H442.534C444.766 577.116 446.906 576.23 448.483 574.652C450.061 573.074 450.948 570.934 450.948 568.703C450.949 567.597 450.733 566.501 450.311 565.479C449.889 564.456 449.27 563.527 448.489 562.744C447.707 561.961 446.779 561.34 445.757 560.917C444.736 560.493 443.64 560.275 442.534 560.275V560.275Z" fill="#40514E"/>
<g style="mix-blend-mode:multiply" opacity="0.5">
<path d="M450.962 568.703C450.96 569.81 450.74 570.905 450.315 571.927C449.89 572.949 449.267 573.877 448.483 574.658C447.699 575.439 446.769 576.058 445.746 576.48C444.723 576.902 443.626 577.118 442.52 577.116H295.2C294.094 577.118 292.998 576.902 291.976 576.48C290.953 576.058 290.024 575.438 289.241 574.657C288.459 573.876 287.838 572.948 287.414 571.926C286.99 570.904 286.772 569.809 286.772 568.703C286.762 568.01 286.851 567.319 287.038 566.651C287.485 568.477 288.532 570.1 290.013 571.26C291.493 572.419 293.32 573.046 295.2 573.042H442.52C444.4 573.046 446.227 572.419 447.707 571.26C449.187 570.1 450.235 568.477 450.682 566.651C450.873 567.318 450.967 568.009 450.962 568.703V568.703Z" fill="#00CA98"/>
</g>
<path d="M595.964 207.806H141.74C138.887 207.806 136.574 210.119 136.574 212.972V512.939C136.574 515.793 138.887 518.105 141.74 518.105H595.964C598.818 518.105 601.13 515.793 601.13 512.939V212.972C601.13 210.119 598.818 207.806 595.964 207.806Z" fill="white"/>
<path d="M595.979 211.496C596.371 211.496 596.746 211.652 597.023 211.928C597.3 212.205 597.455 212.581 597.455 212.972V512.925C597.455 513.316 597.3 513.692 597.023 513.968C596.746 514.245 596.371 514.401 595.979 514.401H141.696C141.305 514.401 140.929 514.245 140.652 513.968C140.376 513.692 140.22 513.316 140.22 512.925V212.972C140.22 212.581 140.376 212.205 140.652 211.928C140.929 211.652 141.305 211.496 141.696 211.496H595.979ZM595.979 204.116H141.696C139.347 204.116 137.095 205.049 135.434 206.71C133.773 208.371 132.84 210.623 132.84 212.972V512.925C132.84 515.274 133.773 517.526 135.434 519.187C137.095 520.848 139.347 521.781 141.696 521.781H595.979C598.328 521.781 600.581 520.848 602.241 519.187C603.902 517.526 604.835 515.274 604.835 512.925V212.972C604.835 210.623 603.902 208.371 602.241 206.71C600.581 205.049 598.328 204.116 595.979 204.116V204.116Z" fill="#40514E"/>
<path d="M604.835 512.32V482.992H132.84V512.32C132.84 514.97 133.893 517.511 135.767 519.385C137.641 521.259 140.182 522.312 142.833 522.312H594.828C596.141 522.314 597.442 522.057 598.656 521.556C599.871 521.054 600.974 520.319 601.903 519.391C602.833 518.463 603.57 517.36 604.073 516.147C604.576 514.934 604.835 513.633 604.835 512.32V512.32Z" fill="#40514E"/>
<path d="M368.867 308.204C388.961 308.204 405.251 291.914 405.251 271.82C405.251 251.726 388.961 235.437 368.867 235.437C348.773 235.437 332.484 251.726 332.484 271.82C332.484 291.914 348.773 308.204 368.867 308.204Z" fill="#E4F9F5"/>
<path d="M382.919 263.525C382.919 266.308 382.093 269.028 380.547 271.341C379.001 273.655 376.803 275.458 374.232 276.522C371.661 277.586 368.832 277.864 366.103 277.32C363.374 276.776 360.867 275.435 358.901 273.466C356.934 271.497 355.596 268.99 355.055 266.26C354.513 263.531 354.794 260.702 355.861 258.132C356.928 255.562 358.733 253.366 361.048 251.822C363.363 250.278 366.084 249.456 368.867 249.459C370.714 249.459 372.542 249.823 374.248 250.53C375.954 251.237 377.503 252.273 378.808 253.58C380.113 254.886 381.148 256.437 381.853 258.143C382.559 259.85 382.921 261.679 382.919 263.525ZM390.077 322.388V297.813C390.077 293.33 388.297 289.032 385.127 285.862C381.958 282.693 377.659 280.912 373.177 280.912H364.572C360.09 280.912 355.791 282.693 352.622 285.862C349.452 289.032 347.672 293.33 347.672 297.813V322.388C347.672 323.004 347.793 323.613 348.029 324.182C348.265 324.751 348.611 325.267 349.047 325.702C349.483 326.136 350.001 326.481 350.57 326.715C351.14 326.949 351.75 327.069 352.365 327.067H385.384C385.999 327.069 386.609 326.949 387.179 326.715C387.748 326.481 388.266 326.136 388.702 325.702C389.138 325.267 389.484 324.751 389.72 324.182C389.956 323.613 390.077 323.004 390.077 322.388V322.388Z" fill="#11999E"/>
<path d="M455.892 349.576H281.827C279.936 349.578 278.063 349.207 276.316 348.485C274.568 347.762 272.98 346.703 271.642 345.366C270.304 344.03 269.243 342.442 268.519 340.695C267.794 338.948 267.422 337.076 267.422 335.185V335.185C267.422 333.294 267.794 331.421 268.519 329.674C269.243 327.927 270.304 326.34 271.642 325.004C272.98 323.667 274.568 322.607 276.316 321.885C278.063 321.163 279.936 320.792 281.827 320.794H455.892C457.783 320.792 459.656 321.163 461.404 321.885C463.152 322.607 464.74 323.667 466.078 325.004C467.416 326.34 468.477 327.927 469.201 329.674C469.925 331.421 470.298 333.294 470.298 335.185V335.185C470.298 337.076 469.925 338.948 469.201 340.695C468.477 342.442 467.416 344.03 466.078 345.366C464.74 346.703 463.152 347.762 461.404 348.485C459.656 349.207 457.783 349.578 455.892 349.576V349.576Z" fill="#E4F9F5"/>
<path d="M449.855 338.949H287.82C287.326 338.949 286.836 338.851 286.38 338.662C285.923 338.473 285.508 338.196 285.159 337.846C284.809 337.497 284.532 337.082 284.343 336.625C284.154 336.169 284.056 335.679 284.056 335.185V335.185C284.056 334.691 284.154 334.201 284.343 333.744C284.532 333.288 284.809 332.873 285.159 332.523C285.508 332.174 285.923 331.897 286.38 331.708C286.836 331.518 287.326 331.421 287.82 331.421H449.855C450.853 331.421 451.811 331.818 452.517 332.523C453.223 333.229 453.619 334.187 453.619 335.185V335.185C453.619 336.183 453.223 337.14 452.517 337.846C451.811 338.552 450.853 338.949 449.855 338.949Z" fill="#11999E"/>
<path d="M456.084 401.354H281.916C278.1 401.35 274.442 399.833 271.744 397.135C269.046 394.437 267.529 390.778 267.525 386.963V386.963C267.525 383.146 269.041 379.486 271.74 376.787C274.439 374.088 278.099 372.572 281.916 372.572H456.084C457.974 372.572 459.845 372.944 461.591 373.667C463.337 374.391 464.924 375.451 466.26 376.787C467.596 378.123 468.656 379.71 469.38 381.456C470.103 383.202 470.475 385.073 470.475 386.963V386.963C470.471 390.778 468.954 394.437 466.256 397.135C463.558 399.833 459.9 401.35 456.084 401.354Z" fill="#E4F9F5"/>
<path d="M286.418 390.978C285.42 390.978 284.462 390.581 283.756 389.875C283.051 389.169 282.654 388.212 282.654 387.214V387.214C282.654 386.216 283.051 385.258 283.756 384.552C284.462 383.847 285.42 383.45 286.418 383.45V383.45C286.912 383.45 287.401 383.547 287.858 383.737C288.315 383.926 288.73 384.203 289.079 384.552C289.429 384.902 289.706 385.317 289.895 385.774C290.084 386.23 290.182 386.72 290.182 387.214V387.214C290.182 387.708 290.084 388.198 289.895 388.654C289.706 389.111 289.429 389.526 289.079 389.875C288.73 390.225 288.315 390.502 287.858 390.691C287.401 390.88 286.912 390.978 286.418 390.978V390.978ZM301.355 387.214C301.355 386.216 300.958 385.258 300.253 384.552C299.547 383.847 298.589 383.45 297.591 383.45V383.45C296.595 383.454 295.642 383.852 294.939 384.558C294.237 385.263 293.842 386.218 293.842 387.214C293.842 388.21 294.237 389.165 294.939 389.87C295.642 390.575 296.595 390.974 297.591 390.978V390.978C298.589 390.978 299.547 390.581 300.253 389.875C300.958 389.169 301.355 388.212 301.355 387.214V387.214ZM312.528 387.214C312.528 386.216 312.132 385.258 311.426 384.552C310.72 383.847 309.763 383.45 308.764 383.45V383.45C307.769 383.454 306.815 383.852 306.113 384.558C305.41 385.263 305.015 386.218 305.015 387.214V387.214C305.015 388.21 305.41 389.165 306.113 389.87C306.815 390.575 307.769 390.974 308.764 390.978V390.978C309.763 390.978 310.72 390.581 311.426 389.875C312.132 389.169 312.528 388.212 312.528 387.214V387.214ZM323.702 387.214C323.702 386.218 323.307 385.263 322.604 384.558C321.902 383.852 320.948 383.454 319.953 383.45C318.954 383.45 317.997 383.847 317.291 384.552C316.585 385.258 316.189 386.216 316.189 387.214V387.214C316.189 388.212 316.585 389.169 317.291 389.875C317.997 390.581 318.954 390.978 319.953 390.978V390.978C320.948 390.974 321.902 390.575 322.604 389.87C323.307 389.165 323.702 388.21 323.702 387.214ZM334.89 387.214C334.89 386.72 334.792 386.23 334.603 385.774C334.414 385.317 334.137 384.902 333.787 384.552C333.438 384.203 333.023 383.926 332.566 383.737C332.11 383.547 331.62 383.45 331.126 383.45V383.45C330.128 383.45 329.17 383.847 328.464 384.552C327.759 385.258 327.362 386.216 327.362 387.214V387.214C327.362 388.212 327.759 389.169 328.464 389.875C329.17 390.581 330.128 390.978 331.126 390.978V390.978C332.124 390.978 333.081 390.581 333.787 389.875C334.493 389.169 334.89 388.212 334.89 387.214V387.214ZM346.063 387.214C346.063 386.72 345.966 386.23 345.776 385.774C345.587 385.317 345.31 384.902 344.961 384.552C344.611 384.203 344.196 383.926 343.74 383.737C343.283 383.547 342.793 383.45 342.299 383.45V383.45C341.303 383.454 340.35 383.852 339.647 384.558C338.945 385.263 338.55 386.218 338.55 387.214C338.55 388.21 338.945 389.165 339.647 389.87C340.35 390.575 341.303 390.974 342.299 390.978V390.978C342.793 390.978 343.283 390.88 343.74 390.691C344.196 390.502 344.611 390.225 344.961 389.875C345.31 389.526 345.587 389.111 345.776 388.654C345.966 388.198 346.063 387.708 346.063 387.214V387.214ZM357.236 387.214C357.236 386.218 356.842 385.263 356.139 384.558C355.436 383.852 354.483 383.454 353.487 383.45V383.45C352.489 383.45 351.532 383.847 350.826 384.552C350.12 385.258 349.723 386.216 349.723 387.214V387.214C349.723 388.212 350.12 389.169 350.826 389.875C351.532 390.581 352.489 390.978 353.487 390.978V390.978C354.475 390.962 355.417 390.559 356.111 389.855C356.804 389.15 357.192 388.202 357.192 387.214H357.236Z" fill="#11999E"/>
<path d="M393.575 455.597H344.144C340.324 455.597 336.659 454.079 333.958 451.378C331.256 448.676 329.738 445.012 329.738 441.191V441.191C329.742 437.373 331.262 433.713 333.963 431.014C336.664 428.316 340.326 426.8 344.144 426.8H393.575C397.393 426.8 401.055 428.316 403.757 431.014C406.458 433.713 407.977 437.373 407.981 441.191V441.191C407.981 445.012 406.463 448.676 403.762 451.378C401.06 454.079 397.396 455.597 393.575 455.597Z" fill="#11999E"/>
<g style="mix-blend-mode:multiply" opacity="0.09">
<path d="M551.36 521.515V505.058C551.36 502.458 550.327 499.966 548.489 498.128C546.651 496.29 544.158 495.257 541.559 495.257H540.703V480.01C540.703 469.229 536.42 458.89 528.797 451.267C521.174 443.644 510.835 439.361 500.054 439.361C489.273 439.361 478.934 443.644 471.311 451.267C463.688 458.89 459.405 469.229 459.405 480.01V495.257H458.549C455.95 495.257 453.457 496.29 451.619 498.128C449.781 499.966 448.748 502.458 448.748 505.058V521.515H551.36ZM472.837 480.01C472.837 472.791 475.704 465.869 480.808 460.764C485.913 455.66 492.836 452.792 500.054 452.792C507.273 452.792 514.195 455.66 519.3 460.764C524.404 465.869 527.272 472.791 527.272 480.01V495.257H472.837V480.01Z" fill="black"/>
</g>
<g style="mix-blend-mode:multiply" opacity="0.09">
<path d="M570.577 367.317C566.395 363.855 561.233 361.791 555.817 361.413C555.788 360.828 555.788 360.242 555.817 359.657C558.769 359.17 561.397 356.543 562.902 352.985C566.961 349.074 569.706 344.247 568.378 338.137C568.309 337.834 568.362 337.515 568.526 337.251C566.784 334.122 563.566 332.617 559.994 329.384C547.995 318.521 533.736 333.62 539.124 339.849C539.806 340.899 540.305 342.057 540.6 343.273C540.591 343.307 540.591 343.343 540.6 343.377C540.448 344.083 540.447 344.814 540.597 345.521C540.747 346.228 541.045 346.896 541.471 347.48C541.547 348.092 541.587 348.708 541.589 349.325C541.589 349.325 541.589 349.428 541.589 349.487C541.763 350.4 542.109 351.271 542.607 352.056C542.916 353.679 543.641 355.194 544.713 356.451C545.784 357.709 547.164 358.666 548.718 359.229C549.007 359.335 549.303 359.424 549.603 359.495C549.797 360.13 549.843 360.802 549.736 361.458C546.338 361.813 543.059 362.906 540.127 364.661C517.19 375.76 494.519 411.479 497.014 419.361C499.508 427.243 505.869 436.468 510.106 442.623L510.785 442.505C511.124 443.7 511.464 444.881 511.818 446.062C511.925 446.678 512.213 447.248 512.644 447.7C513.342 448.154 514.185 448.328 515.006 448.187C516.026 448.255 517.037 447.968 517.869 447.376C518.284 446.974 518.576 446.462 518.711 445.9C519.071 444.348 518.845 442.719 518.076 441.324L518.578 441.235C518.578 441.235 508.689 426.475 509.043 417.413C509.176 414.107 516.895 406.343 523.183 400.557C523.035 402.564 522.962 404.616 522.962 406.682L520.01 478.608C520.01 478.608 522.607 479.11 526.77 479.789L530.799 522.725H547.035L547.419 482.268H548.054H548.614L551.02 482.431H551.847H552.718L554.312 522.548H570.341L573.633 481.693L575.581 481.353L576.408 481.161L577.972 480.792L578.784 480.556L580.26 480.084L580.939 479.848C581.618 479.597 582.267 479.316 582.887 479.021L582.577 401.472C582.577 399.789 582.577 398.166 582.43 396.572C582.43 396.454 582.43 396.336 582.43 396.217C582.341 394.741 582.208 393.265 582.031 391.893C582.024 391.75 582.024 391.607 582.031 391.465C582.031 391.347 582.031 391.214 582.031 391.081C585.204 391.716 589.337 392.468 594.725 393.384C598.124 393.94 601.605 393.723 604.909 392.749V376.941C591.345 378.476 576.304 370.786 570.577 367.317Z" fill="black"/>
</g>
<path opacity="0.3" d="M351.613 410.771C365.422 410.771 376.616 399.576 376.616 385.767C376.616 371.958 365.422 360.764 351.613 360.764C337.804 360.764 326.609 371.958 326.609 385.767C326.609 399.576 337.804 410.771 351.613 410.771Z" fill="#11999E" fill-opacity="0.59"/>
<path opacity="0.5" d="M351.613 399.332C359.104 399.332 365.177 393.259 365.177 385.767C365.177 378.276 359.104 372.203 351.613 372.203C344.121 372.203 338.048 378.276 338.048 385.767C338.048 393.259 344.121 399.332 351.613 399.332Z" fill="#E4F9F5"/>
<path d="M489.914 439.361C479.137 439.373 468.804 443.659 461.184 451.28C453.563 458.9 449.277 469.233 449.265 480.01V519.109H530.563V480.01C530.551 469.233 526.265 458.9 518.644 451.28C511.024 443.659 500.691 439.373 489.914 439.361V439.361ZM462.696 505.678V480.01C462.696 472.791 465.564 465.869 470.668 460.764C475.773 455.66 482.695 452.792 489.914 452.792C497.132 452.792 504.055 455.66 509.16 460.764C514.264 465.869 517.131 472.791 517.131 480.01V505.678H462.696Z" fill="#F9714E"/>
<g style="mix-blend-mode:multiply" opacity="0.4">
<path d="M489.914 447.39C481.302 447.39 473.042 450.812 466.953 456.901C460.863 462.991 457.442 471.25 457.442 479.862V511.065H522.386V479.862C522.386 475.598 521.546 471.376 519.914 467.436C518.282 463.496 515.89 459.916 512.875 456.901C509.86 453.886 506.28 451.494 502.34 449.862C498.401 448.23 494.178 447.39 489.914 447.39ZM517.131 505.678H462.696V480.01C462.696 472.791 465.564 465.869 470.668 460.764C475.773 455.66 482.695 452.793 489.914 452.793C497.132 452.793 504.055 455.66 509.16 460.764C514.264 465.869 517.131 472.791 517.131 480.01V505.678Z" fill="#F9714E"/>
</g>
<path d="M531.227 495.257H448.601C443.082 495.257 438.608 499.731 438.608 505.25V567.124C438.608 572.642 443.082 577.116 448.601 577.116H531.227C536.746 577.116 541.22 572.642 541.22 567.124V505.25C541.22 499.731 536.746 495.257 531.227 495.257Z" fill="#FFB255"/>
<path d="M504.792 530.519C504.786 527.872 504.076 525.274 502.735 522.992C501.394 520.71 499.47 518.826 497.161 517.533C494.851 516.239 492.24 515.583 489.593 515.633C486.947 515.682 484.361 516.434 482.101 517.812C479.841 519.19 477.988 521.144 476.733 523.474C475.477 525.804 474.864 528.426 474.956 531.072C475.049 533.717 475.843 536.29 477.257 538.527C478.672 540.765 480.656 542.585 483.006 543.803V559.921H496.733V543.758C499.159 542.5 501.193 540.6 502.614 538.266C504.035 535.931 504.788 533.252 504.792 530.519V530.519Z" fill="#F9714E"/>
<g style="mix-blend-mode:multiply" opacity="0.4">
<path d="M531.36 495.257H506.711C501.306 512.013 493.069 527.719 482.357 541.692C472.438 554.563 456.822 570.917 439.169 570.577C439.844 572.489 441.095 574.144 442.75 575.315C444.404 576.487 446.382 577.116 448.409 577.116H531.36C533.959 577.116 536.452 576.083 538.29 574.245C540.128 572.408 541.161 569.915 541.161 567.315V505.058C541.161 502.458 540.128 499.966 538.29 498.128C536.452 496.29 533.959 495.257 531.36 495.257Z" fill="#FFB255"/>
</g>
<path d="M499.833 439.376C500.482 441.634 501.132 443.892 501.796 446.136C501.903 446.752 502.191 447.322 502.622 447.774C503.32 448.228 504.163 448.402 504.984 448.261C506.003 448.329 507.015 448.042 507.847 447.449C508.262 447.047 508.554 446.535 508.689 445.973C509.028 444.275 508.689 442.51 507.744 441.058C506.808 439.623 505.686 438.318 504.408 437.176" fill="#FFC2D3"/>
<path d="M621.396 361.62C622.193 358.47 623.27 355.398 624.614 352.439C625.195 353.421 625.375 354.59 625.115 355.701C625.813 354.04 627.094 352.69 628.717 351.908C628.806 351.851 628.905 351.813 629.01 351.798C629.114 351.783 629.221 351.79 629.322 351.819C629.425 351.879 629.512 351.963 629.576 352.063C629.64 352.163 629.679 352.277 629.691 352.395C630.321 354.834 630.039 357.418 628.898 359.664C627.756 361.909 625.834 363.659 623.492 364.587" fill="#FFC2D3"/>
<path d="M554.976 571.669C560.718 573.072 565.529 574.754 568.171 577.116H546.031L546.459 571.979L554.976 571.669Z" fill="#5084DA"/>
<path d="M527.877 571.669C522.135 573.072 517.338 574.754 514.696 577.116H536.836L536.408 571.979L527.877 571.669Z" fill="#5084DA"/>
<path d="M566.592 442.682L556.157 572.57C554.541 572.98 552.899 573.275 551.242 573.456C550.279 573.387 549.323 573.254 548.378 573.057C547.168 572.821 546.12 572.57 546.12 572.57L542.209 474.386H537.264L536.319 572.57C534.589 573.057 532.803 573.32 531.006 573.352C529.06 573.29 527.126 573.028 525.235 572.57L512.703 439.361L566.592 442.682Z" fill="#2E2C84"/>
<g style="mix-blend-mode:multiply" opacity="0.3">
<g style="mix-blend-mode:multiply" opacity="0.5">
<path d="M546.578 441.442L528.201 440.32C527.98 464.232 531.581 549.721 531.936 573.323C533.433 573.22 534.916 572.968 536.364 572.57L537.264 474.386H542.164L546.12 572.57C546.12 572.57 547.168 572.821 548.378 573.057L549.456 573.249C549.456 546.504 547.05 452.438 546.578 441.442Z" fill="#2E2C84"/>
</g>
</g>
<path d="M531.508 349.399C531.508 349.399 531.508 349.502 531.508 349.561C532.305 353.856 536.378 356.055 540.91 357.31C544.6 358.328 545.456 358.786 548.408 356.646C554.533 352.218 559.994 346.314 558.223 338.211C558.154 337.908 558.207 337.589 558.371 337.325C556.629 334.196 553.411 332.69 549.839 329.458C537.84 318.595 523.582 333.694 528.984 339.923C530.632 342.81 531.501 346.075 531.508 349.399V349.399Z" fill="#001F64"/>
<path d="M572.437 401.472C572.437 376.779 562.208 361.428 542.637 361.428C523.065 361.428 512.807 382.092 512.807 406.756L509.855 478.682C509.855 478.682 555.478 487.729 572.821 479.257L572.437 401.472Z" fill="#8FC2FF"/>
<g style="mix-blend-mode:multiply" opacity="0.3">
<path d="M572.437 401.472C572.525 395.259 571.72 389.065 570.046 383.081C568.319 409.944 565.957 481.486 525.973 481.191C540.836 483.051 562.12 484.453 572.762 479.257L572.437 401.472Z" fill="#8FC2FF"/>
</g>
<path d="M552.688 346.491C551.965 341.635 547.626 336.764 542.356 339.288C540.884 340.099 539.241 340.551 537.561 340.607C535.881 340.663 534.212 340.323 532.688 339.613C532.6 340.543 532.497 341.915 532.393 343.347C531.803 342.27 530.829 342.107 530.533 343.45C530.238 344.794 530.607 347.554 532.142 348.056V348.779C532.216 352.41 533.707 358.181 539.596 359.568C539.879 360.696 539.822 361.882 539.434 362.978C539.758 364.114 544.349 364.852 545.854 363.509C545.736 362.253 545.696 360.991 545.736 359.731C549.22 359.17 552.127 355.731 553.456 351.318C558.695 348.336 554.976 342.993 552.688 346.491Z" fill="#FFC2D3"/>
<g style="mix-blend-mode:multiply" opacity="0.3">
<path d="M552.688 346.491C552.394 344.538 551.566 342.705 550.297 341.192C550.445 349.65 546.858 357.428 538.696 359.303C538.985 359.409 539.281 359.497 539.581 359.568C539.864 360.696 539.808 361.882 539.419 362.978C539.744 364.114 544.334 364.852 545.84 363.509C545.721 362.253 545.682 360.991 545.722 359.731C549.205 359.17 552.113 355.731 553.441 351.318C558.696 348.336 554.976 342.993 552.688 346.491Z" fill="#FFC2D3"/>
</g>
<path d="M530.105 364.734C507.168 375.834 484.497 411.553 486.991 419.435C489.486 427.317 495.847 436.542 500.084 442.697L508.423 441.221C508.423 441.221 498.534 426.461 498.888 417.398C499.124 411.834 521.028 393.502 521.028 393.502L530.105 364.734Z" fill="#8FC2FF"/>
<path d="M558.371 366.048C561.972 368.616 591.935 386.579 608.422 370.727C620.319 359.273 621.529 357.059 621.529 357.059L625.603 364.292C625.603 364.292 606.975 397.118 584.496 393.31C562.017 389.502 561.382 388.336 561.382 388.336L558.371 366.048Z" fill="#8FC2FF"/>
<g style="mix-blend-mode:multiply" opacity="0.09">
<path d="M187.865 506.667C179.371 509.145 172.081 514.654 167.378 522.15H228.278C223.575 514.654 216.286 509.145 207.791 506.667V357.502H187.865V359.923H166.596V377.856H187.865V382.136H166.596V400.085H187.865V506.667Z" fill="black"/>
</g>
<path d="M179.644 377.885H205.149V359.923H179.644V377.885Z" fill="#FFB255"/>
<path d="M179.644 400.114H205.149V382.151H179.644V400.114Z" fill="#FFB255"/>
<g style="mix-blend-mode:multiply" opacity="0.5">
<path d="M198.64 377.885H205.149V359.923H198.64V377.885Z" fill="#FFC87C"/>
</g>
<g style="mix-blend-mode:multiply" opacity="0.5">
<path d="M198.64 400.114H205.149V382.151H198.64V400.114Z" fill="#FFC87C"/>
</g>
<path d="M200.913 513.559H220.824L220.824 357.487H200.913L200.913 513.559Z" fill="#FFB255"/>
<g style="mix-blend-mode:multiply" opacity="0.5">
<path d="M210.551 518.932H211.171C211.84 518.932 212.382 518.39 212.382 517.722L212.382 364.07C212.382 363.402 211.84 362.86 211.171 362.86H210.551C209.883 362.86 209.341 363.402 209.341 364.07L209.341 517.722C209.341 518.39 209.883 518.932 210.551 518.932Z" fill="#FFC87C"/>
</g>
<path d="M174.936 541.19C174.933 534.081 177.038 527.13 180.986 521.217C184.935 515.304 190.548 510.696 197.115 507.973C203.683 505.251 210.911 504.538 217.884 505.925C224.857 507.311 231.263 510.734 236.29 515.762C241.317 520.789 244.741 527.194 246.127 534.167C247.513 541.141 246.8 548.368 244.078 554.936C241.356 561.504 236.747 567.117 230.834 571.065C224.922 575.013 217.971 577.119 210.861 577.116C201.337 577.104 192.206 573.316 185.471 566.581C178.736 559.846 174.947 550.715 174.936 541.19V541.19ZM193.459 541.19C193.459 544.632 194.48 547.997 196.392 550.858C198.304 553.72 201.022 555.95 204.202 557.268C207.382 558.585 210.881 558.929 214.256 558.258C217.632 557.586 220.733 555.929 223.167 553.495C225.6 551.062 227.258 547.961 227.929 544.585C228.601 541.209 228.256 537.711 226.939 534.531C225.622 531.351 223.391 528.633 220.529 526.721C217.668 524.809 214.303 523.788 210.861 523.788C206.247 523.792 201.823 525.627 198.561 528.889C195.298 532.152 193.463 536.576 193.459 541.19Z" fill="#FFB255"/>
<g style="mix-blend-mode:multiply" opacity="0.5">
<path d="M191.762 541.19C191.762 544.968 192.882 548.66 194.981 551.801C197.079 554.942 200.062 557.39 203.552 558.836C207.042 560.281 210.883 560.66 214.587 559.923C218.292 559.186 221.696 557.367 224.367 554.696C227.038 552.024 228.857 548.621 229.594 544.916C230.331 541.211 229.953 537.371 228.507 533.881C227.061 530.391 224.613 527.408 221.472 525.31C218.332 523.211 214.639 522.091 210.861 522.091C205.803 522.114 200.959 524.134 197.382 527.711C193.805 531.287 191.785 536.132 191.762 541.19V541.19ZM193.459 541.19C193.459 537.748 194.48 534.384 196.392 531.522C198.304 528.66 201.022 526.43 204.202 525.113C207.382 523.796 210.881 523.451 214.256 524.122C217.632 524.794 220.733 526.451 223.166 528.885C225.6 531.319 227.258 534.42 227.929 537.795C228.6 541.171 228.256 544.67 226.939 547.85C225.622 551.029 223.391 553.747 220.529 555.659C217.668 557.572 214.303 558.592 210.861 558.592C206.247 558.588 201.823 556.754 198.561 553.491C195.298 550.228 193.463 545.804 193.459 541.19Z" fill="#FFC87C"/>
</g>
<g style="mix-blend-mode:multiply" opacity="0.09">
<path d="M341.546 390.978C335.229 396.557 312.513 420.35 308.351 407.405C305.06 397.147 298.137 383.052 294.093 378.314C291.507 375.351 288.077 373.25 284.263 372.291V370.653C288.204 370.653 294.359 369.856 294.359 355.657C294.518 352.622 294.133 349.583 293.222 346.683C293.742 345.985 294.044 345.149 294.091 344.28C294.138 343.411 293.928 342.548 293.488 341.797C292.381 339.982 289.488 338.403 287.584 337.561C283.038 335.539 277.075 334.609 272.706 337.428C271.2 335.488 269.336 333.854 267.215 332.617C265.415 331.485 263.37 330.802 261.252 330.624C257.06 330.624 253.4 333.768 251.466 337.487C249.816 340.503 249.229 343.986 249.798 347.377C250.102 349.061 250.794 350.651 251.818 352.022C252.843 353.392 254.173 354.505 255.702 355.273C256.61 355.746 257.635 355.946 258.654 355.849C259.965 355.566 261.143 354.854 262.005 353.827C264.248 351.495 264.617 348.705 266.27 346.181C266.511 345.833 266.823 345.542 267.186 345.325C266.696 346.969 266.437 348.673 266.418 350.388C266.572 355.303 267.925 360.107 270.359 364.38C270.886 365.575 271.691 366.628 272.706 367.45C273.739 368.159 276.381 368.852 277.473 368.159L277.016 371.642C273.79 371.935 270.652 372.852 267.776 374.343V374.343C250.699 378.269 237.813 420.202 214.979 417.413C212.205 416.645 209.075 416.424 208.987 419.14C208.677 424.468 211.939 425.147 214.979 424.704V424.822C221.302 424.882 227.563 423.566 233.325 420.963C239.088 418.361 244.216 414.535 248.352 409.752C242.212 444.379 244.662 489.737 244.662 489.737C246.315 489.973 247.953 490.18 249.577 490.386L252.381 522.12H266.92V491.847C269.872 491.966 272.784 492.02 275.658 492.01L275.997 522.12H292.868L296.13 490.534C299.082 490.121 302.034 489.619 304.986 489.058C304.381 470.017 304.307 445.117 303.038 423.553C303.907 424.411 304.986 425.026 306.167 425.339C308.145 425.826 316.691 435.671 322.831 428.188C328.971 420.704 342.019 404.926 346.845 396.852C345.723 394.225 342.978 393.443 341.546 390.978Z" fill="black"/>
</g>
<path d="M286.182 366.934L285.222 374.284L292.956 375.14V367.391L286.182 366.934Z" fill="#F9ACC8"/>
<g style="mix-blend-mode:multiply" opacity="0.1">
<path d="M226.61 420.66C226.61 420.66 216.382 415.627 216.086 420.66C215.526 430.21 226.61 424.822 226.61 424.822V420.66Z" fill="black"/>
</g>
<path d="M228.057 419.184C228.057 419.184 217.828 414.136 217.533 419.184C216.972 428.734 228.057 423.346 228.057 423.346V419.184Z" fill="#FFC2D3"/>
<path d="M279.2 355.716C279.2 362.402 286.093 370.712 292.779 370.712C296.705 370.712 303.111 370.122 303.111 355.716C303.111 340.587 298.034 343.628 291.303 343.628C288.096 343.628 285.02 344.901 282.75 347.167C280.481 349.434 279.204 352.509 279.2 355.716V355.716Z" fill="#FFC2D3"/>
<g style="mix-blend-mode:multiply" opacity="0.3">
<path d="M289.37 361.281C289.282 355.258 290.235 349.266 292.189 343.569H291.303C288.096 343.569 285.02 344.842 282.75 347.108C280.481 349.375 279.204 352.45 279.2 355.657C279.2 362.21 285.842 370.314 292.396 370.624C290.248 368.001 289.167 364.665 289.37 361.281V361.281Z" fill="#FFC2D3"/>
</g>
<path d="M300.499 347.568C299.436 347.731 298.285 347.214 297.281 347.568C295.672 348.218 295.569 350.668 294.078 351.568C292.233 352.705 289.444 350.757 287.835 352.203C286.875 353.044 286.993 354.55 287.082 355.834C287.349 359.219 286.979 362.623 285.99 365.871C285.754 366.624 286.743 367.967 286.152 368.483C285.163 369.339 282.315 368.587 281.252 367.834C280.233 367.009 279.428 365.951 278.905 364.749C276.469 360.418 275.117 355.561 274.964 350.594C274.904 348.12 275.419 345.666 276.47 343.424C277.52 341.183 279.076 339.217 281.016 337.679C285.444 334.535 291.569 335.48 296.248 337.576C298.182 338.447 301.074 340.041 302.152 341.871C303.229 343.701 303.082 347.185 300.499 347.568Z" fill="#FFB255"/>
<g style="mix-blend-mode:multiply" opacity="0.5">
<path d="M299.229 339.214C297.65 340.69 296.056 343.17 294.875 343.997C293.165 344.935 291.317 345.597 289.399 345.96C280.794 348.602 280.204 361.782 283.953 368.838C284.698 369.025 285.487 368.913 286.152 368.528C286.742 368.011 285.754 366.668 285.99 365.915C286.979 362.667 287.349 359.263 287.082 355.878C286.993 354.594 286.875 353.089 287.835 352.247C289.444 350.771 292.263 352.749 294.078 351.613C295.554 350.712 295.672 348.262 297.281 347.613C298.285 347.214 299.436 347.731 300.499 347.613C303.082 347.229 303.259 343.76 302.167 341.96C301.402 340.839 300.399 339.902 299.229 339.214V339.214Z" fill="#FFC87C"/>
</g>
<path d="M275.879 332.646C274.064 331.518 272.003 330.845 269.872 330.683C265.68 330.683 262.02 333.856 260.086 337.62C258.435 340.673 257.848 344.189 258.418 347.613C258.719 349.307 259.409 350.909 260.433 352.292C261.457 353.675 262.789 354.802 264.322 355.583C265.227 356.065 266.255 356.266 267.274 356.159C268.585 355.878 269.761 355.16 270.61 354.122C272.853 351.76 273.237 348.956 274.89 346.402C276.219 344.336 279.141 345.192 281.089 343.849C285.975 340.425 278.964 334.329 275.879 332.646Z" fill="#FFB255"/>
<g style="mix-blend-mode:multiply" opacity="0.5">
<path d="M278.108 341.738C277.208 341.281 276.514 340.439 275.613 339.982C274.344 338.594 267.805 337.871 266.448 346.978C266.162 348.372 265.604 349.695 264.806 350.873C264.008 352.05 262.986 353.059 261.798 353.841C262.526 354.557 263.37 355.146 264.293 355.583C265.197 356.065 266.225 356.266 267.245 356.159C268.555 355.878 269.732 355.16 270.58 354.122C272.824 351.76 273.208 348.956 274.861 346.402C276.189 344.336 279.112 345.192 281.06 343.849C281.693 343.461 282.204 342.904 282.536 342.24C281.806 342.486 281.031 342.569 280.266 342.482C279.501 342.395 278.764 342.141 278.108 341.738V341.738Z" fill="#FFC87C"/>
</g>
<path d="M273.798 571.669C279.54 573.072 284.351 574.754 286.993 577.116H264.853L265.281 571.979L273.798 571.669Z" fill="#F9714E"/>
<path d="M293.724 571.669C299.466 573.072 304.263 574.754 306.905 577.116H284.765L285.193 571.979L293.724 571.669Z" fill="#F9714E"/>
<g style="mix-blend-mode:multiply" opacity="0.1">
<path d="M351.037 386.018C350.889 385.941 350.736 385.872 350.58 385.812C350.163 385.789 349.746 385.858 349.358 386.013C348.971 386.169 348.622 386.407 348.336 386.712C346.761 387.888 345.28 389.186 343.908 390.594V390.594C343.584 390.877 343.297 391.2 343.052 391.553C342.649 392.099 342.41 392.749 342.363 393.426C342.316 394.103 342.463 394.78 342.786 395.376C343.065 395.82 343.447 396.189 343.899 396.454C344.351 396.718 344.861 396.87 345.384 396.896C347.137 396.837 348.801 396.108 350.033 394.86C350.368 394.39 350.587 393.849 350.673 393.28C350.76 392.711 350.712 392.129 350.532 391.581C350.353 391.034 350.047 390.537 349.64 390.129C349.233 389.722 348.736 389.416 348.188 389.236C349.137 388.683 350.027 388.035 350.845 387.302C351.035 387.141 351.187 386.94 351.288 386.712C351.337 386.586 351.339 386.446 351.293 386.318C351.247 386.191 351.156 386.084 351.037 386.018V386.018Z" fill="black"/>
</g>
<path d="M350.506 389.221C350.911 389.808 351.112 390.512 351.077 391.224C351.042 391.936 350.774 392.617 350.314 393.162C349.081 394.41 347.418 395.139 345.664 395.199C345.129 395.175 344.608 395.022 344.145 394.752C343.682 394.482 343.292 394.103 343.008 393.649C342.681 393.05 342.534 392.37 342.584 391.689C342.634 391.009 342.878 390.357 343.288 389.812C344.897 387.465 348.867 386.166 350.506 389.221Z" fill="#FFC2D3"/>
<path d="M347.908 387.908C349.058 387.262 350.133 386.49 351.111 385.605C351.313 385.442 351.474 385.235 351.583 385C351.627 384.88 351.631 384.748 351.593 384.626C351.556 384.503 351.48 384.396 351.377 384.321L350.904 384.114C350.078 383.893 349.31 384.468 348.616 384.985C347.044 386.159 345.564 387.452 344.188 388.852C345.486 388.838 346.761 388.514 347.908 387.908V387.908Z" fill="#FFC2D3"/>
<path d="M319.716 408.232C327.519 402.802 334.919 396.813 341.856 390.313C341.97 390.215 342.101 390.14 342.243 390.093C342.386 390.045 342.536 390.027 342.685 390.038C342.835 390.049 342.981 390.089 343.115 390.157C343.248 390.224 343.368 390.318 343.465 390.431C344.838 392.055 347.052 394.461 346.816 395.479C346.645 396.043 346.33 396.552 345.901 396.955C339.013 404.66 332.07 412.355 325.074 420.04C323.789 421.613 322.3 423.008 320.646 424.188C319.795 424.778 318.834 425.191 317.819 425.402C316.805 425.612 315.758 425.616 314.742 425.413C311.392 424.586 309.532 421.147 307.702 418.225C298.742 403.819 300.218 398.623 301.311 394.181C302.078 391.096 303.038 388.055 303.598 384.911C303.776 383.922 301.399 378.417 302.757 378.343C306.801 383.081 312.868 397.531 317.015 407.435C317.119 407.684 317.278 407.906 317.478 408.086C317.679 408.266 317.918 408.399 318.176 408.476C318.435 408.552 318.707 408.57 318.974 408.528C319.24 408.485 319.494 408.385 319.716 408.232V408.232Z" fill="#F9714E"/>
<path d="M254.935 454.283L265.37 572.688C266.989 573.064 268.631 573.335 270.285 573.5C271.246 573.442 272.202 573.324 273.149 573.146C274.359 572.924 275.407 572.688 275.407 572.688L275.51 483.228H284.145L285.163 572.688C286.901 573.13 288.684 573.368 290.477 573.396C292.418 573.341 294.351 573.104 296.248 572.688L308.779 451.302L254.935 454.283Z" fill="#4B48B5"/>
<path d="M281.783 463.154C281.783 467.169 281.562 470.785 282.964 474.431C283.488 475.868 284.466 477.096 285.749 477.929C287.033 478.763 288.552 479.156 290.078 479.051C295.244 478.947 298.831 476.099 298.86 470.918C298.86 470.239 299.185 463.169 299.525 463.154H281.783Z" fill="#568EDB"/>
<path d="M257.282 463.169C257.095 466.944 257.387 470.729 258.152 474.431C258.92 477.294 260.662 479.154 263.127 479.095C266.728 479.095 268.735 475.021 269.208 470.992C269.281 470.327 269.399 463.257 269.636 463.243L257.282 463.169Z" fill="#568EDB"/>
<path d="M275.51 483.169C275.566 483.158 275.616 483.126 275.649 483.079C275.682 483.032 275.696 482.974 275.687 482.918C274.315 474.873 275.259 459.479 275.274 459.302C275.272 459.24 275.245 459.182 275.2 459.139C275.175 459.128 275.147 459.123 275.119 459.123C275.091 459.123 275.064 459.128 275.038 459.139C274.905 459.139 261.119 459.789 255.333 458.327C255.306 458.319 255.277 458.315 255.249 458.318C255.221 458.321 255.193 458.329 255.168 458.343C255.143 458.357 255.121 458.376 255.104 458.399C255.087 458.421 255.074 458.447 255.068 458.475C255.054 458.532 255.064 458.592 255.094 458.641C255.125 458.691 255.173 458.727 255.23 458.741C260.647 460.113 272.942 459.656 274.816 459.582C274.713 461.575 273.975 475.493 275.274 483.036C275.291 483.083 275.324 483.122 275.367 483.146C275.411 483.171 275.461 483.179 275.51 483.169V483.169Z" fill="#5E9CE4"/>
<path d="M277.237 483.169C277.294 483.161 277.347 483.133 277.385 483.09C277.423 483.046 277.444 482.99 277.444 482.932C276.63 475.184 276.527 467.378 277.134 459.612C287.104 459.357 297.036 458.286 306.831 456.409C306.866 456.403 306.899 456.389 306.928 456.368C306.957 456.347 306.981 456.32 306.998 456.289C307.015 456.258 307.025 456.223 307.026 456.188C307.028 456.152 307.022 456.117 307.008 456.084C306.994 456.03 306.96 455.984 306.914 455.954C306.868 455.924 306.812 455.912 306.757 455.922C296.924 457.81 286.952 458.882 276.942 459.125C276.888 459.124 276.836 459.143 276.795 459.179C276.754 459.214 276.728 459.263 276.72 459.316C276.093 467.18 276.186 475.086 277.001 482.932C276.999 482.964 277.003 482.996 277.014 483.025C277.026 483.055 277.043 483.082 277.065 483.104C277.088 483.127 277.115 483.144 277.144 483.155C277.174 483.166 277.205 483.171 277.237 483.169V483.169Z" fill="#5E9CE4"/>
<g style="mix-blend-mode:multiply" opacity="0.16">
<g style="mix-blend-mode:multiply" opacity="0.16">
<path d="M273.149 573.101C274.359 572.88 275.407 572.644 275.407 572.644L275.51 483.183H276.233C276.204 483.118 276.161 483.06 276.108 483.012C276.054 482.965 275.992 482.929 275.924 482.906C275.856 482.884 275.784 482.876 275.713 482.883C275.641 482.89 275.572 482.912 275.51 482.947C274.054 483.719 272.831 484.865 271.968 486.268C271.131 487.399 270.663 488.759 270.625 490.165C269.931 517.737 271.584 538.74 273.149 573.101Z" fill="#4E84D9"/>
</g>
</g>
<path d="M295.362 570.164C295.306 570.157 295.255 570.128 295.219 570.084C295.184 570.04 295.166 569.984 295.17 569.928L295.348 568.157C295.348 568.039 295.48 567.935 295.584 567.965C295.64 567.972 295.691 568.001 295.727 568.045C295.762 568.089 295.78 568.145 295.776 568.201L295.599 569.972C295.592 570.023 295.567 570.07 295.53 570.105C295.492 570.14 295.443 570.161 295.392 570.164H295.362ZM295.894 564.954C295.838 564.946 295.786 564.918 295.751 564.874C295.715 564.83 295.698 564.774 295.702 564.718L296.056 561.278C296.058 561.25 296.065 561.222 296.079 561.197C296.092 561.171 296.11 561.149 296.132 561.131C296.154 561.113 296.18 561.099 296.207 561.092C296.235 561.084 296.264 561.083 296.292 561.087C296.348 561.094 296.399 561.123 296.435 561.167C296.471 561.21 296.488 561.266 296.484 561.323L296.13 564.762C296.126 564.814 296.103 564.863 296.064 564.899C296.026 564.934 295.976 564.954 295.923 564.954H295.894ZM296.602 558.076C296.546 558.068 296.495 558.04 296.459 557.996C296.424 557.952 296.406 557.896 296.41 557.839L296.765 554.4C296.764 554.371 296.77 554.342 296.782 554.315C296.794 554.288 296.813 554.265 296.835 554.246C296.858 554.228 296.885 554.215 296.914 554.208C296.942 554.202 296.972 554.202 297.001 554.208C297.057 554.216 297.108 554.244 297.144 554.288C297.179 554.332 297.197 554.388 297.193 554.445L296.838 557.884C296.831 557.937 296.805 557.986 296.764 558.022C296.723 558.057 296.671 558.076 296.617 558.076H296.602ZM297.296 551.197C297.24 551.19 297.189 551.161 297.153 551.118C297.117 551.074 297.1 551.018 297.104 550.961L297.458 547.522C297.458 547.404 297.591 547.301 297.694 547.33C297.751 547.338 297.802 547.366 297.837 547.41C297.873 547.454 297.891 547.51 297.886 547.566L297.532 551.006C297.532 551.032 297.527 551.058 297.516 551.083C297.506 551.107 297.49 551.129 297.471 551.147C297.451 551.165 297.428 551.179 297.403 551.187C297.378 551.196 297.352 551.199 297.325 551.197H297.296ZM298.004 544.319C297.976 544.318 297.948 544.31 297.923 544.297C297.897 544.284 297.875 544.266 297.857 544.243C297.839 544.221 297.825 544.195 297.818 544.168C297.81 544.14 297.808 544.111 297.813 544.083L298.167 540.644C298.166 540.615 298.172 540.585 298.184 540.559C298.196 540.532 298.215 540.508 298.238 540.49C298.26 540.471 298.287 540.458 298.316 540.452C298.344 540.445 298.374 540.445 298.403 540.452C298.459 540.46 298.51 540.488 298.546 540.532C298.582 540.576 298.599 540.632 298.595 540.688L298.241 544.127C298.239 544.155 298.231 544.181 298.219 544.205C298.207 544.23 298.19 544.252 298.17 544.269C298.149 544.287 298.125 544.301 298.099 544.309C298.074 544.318 298.046 544.321 298.019 544.319H298.004ZM298.713 537.441C298.684 537.439 298.656 537.432 298.631 537.419C298.606 537.406 298.583 537.387 298.565 537.365C298.547 537.343 298.534 537.317 298.526 537.29C298.519 537.262 298.517 537.233 298.521 537.205L298.86 533.781C298.86 533.663 298.979 533.544 299.097 533.589C299.125 533.591 299.153 533.598 299.178 533.611C299.204 533.624 299.226 533.643 299.244 533.665C299.262 533.687 299.276 533.713 299.283 533.74C299.291 533.768 299.293 533.797 299.289 533.825L298.949 537.249C298.942 537.304 298.916 537.355 298.876 537.393C298.835 537.43 298.783 537.453 298.728 537.456L298.713 537.441ZM299.407 530.578C299.35 530.57 299.299 530.542 299.264 530.498C299.228 530.454 299.21 530.398 299.215 530.342L299.628 526.932C299.628 526.814 299.761 526.711 299.864 526.74C299.893 526.742 299.921 526.75 299.946 526.763C299.971 526.776 299.994 526.794 300.012 526.816C300.03 526.838 300.043 526.864 300.051 526.892C300.058 526.919 300.06 526.948 300.056 526.976L299.702 530.415C299.695 530.466 299.671 530.513 299.633 530.548C299.595 530.583 299.547 530.604 299.495 530.607L299.407 530.578ZM300.115 523.7C300.059 523.692 300.008 523.664 299.972 523.62C299.936 523.576 299.919 523.52 299.923 523.463L300.277 520.024C300.277 519.995 300.283 519.966 300.295 519.939C300.307 519.912 300.325 519.889 300.348 519.87C300.371 519.852 300.398 519.839 300.426 519.832C300.455 519.826 300.485 519.826 300.514 519.832C300.57 519.84 300.621 519.868 300.657 519.912C300.692 519.956 300.71 520.012 300.705 520.069L300.351 523.508C300.344 523.561 300.318 523.61 300.277 523.645C300.236 523.681 300.184 523.7 300.13 523.7H300.115ZM300.809 516.821C300.753 516.814 300.702 516.785 300.666 516.742C300.63 516.698 300.613 516.642 300.617 516.585L300.971 513.146C300.973 513.118 300.981 513.09 300.994 513.064C301.007 513.039 301.025 513.016 301.047 512.998C301.069 512.98 301.095 512.967 301.123 512.959C301.15 512.952 301.179 512.95 301.207 512.954C301.263 512.962 301.315 512.99 301.35 513.034C301.386 513.078 301.403 513.134 301.399 513.19L301.104 516.6C301.1 516.652 301.077 516.701 301.038 516.737C301 516.772 300.95 516.792 300.897 516.792L300.809 516.821ZM301.517 509.943C301.461 509.936 301.41 509.907 301.374 509.863C301.339 509.819 301.321 509.763 301.325 509.707L301.68 506.268C301.683 506.216 301.707 506.167 301.745 506.131C301.783 506.096 301.834 506.076 301.886 506.076C301.942 506.083 301.994 506.112 302.029 506.156C302.065 506.2 302.082 506.256 302.078 506.312L301.724 509.751C301.722 509.778 301.715 509.805 301.703 509.829C301.691 509.854 301.674 509.875 301.653 509.893C301.633 509.911 301.609 509.925 301.583 509.933C301.557 509.942 301.53 509.945 301.503 509.943H301.517ZM302.226 503.065C302.17 503.058 302.118 503.029 302.083 502.985C302.047 502.941 302.03 502.885 302.034 502.829L302.373 499.39C302.373 499.272 302.506 499.168 302.609 499.198C302.666 499.205 302.717 499.234 302.752 499.278C302.788 499.322 302.806 499.378 302.801 499.434L302.462 502.873C302.455 502.927 302.428 502.976 302.387 503.011C302.347 503.046 302.294 503.066 302.24 503.065H302.226ZM302.919 496.187C302.891 496.185 302.863 496.178 302.838 496.164C302.812 496.151 302.79 496.133 302.772 496.111C302.754 496.089 302.74 496.063 302.733 496.035C302.725 496.008 302.723 495.979 302.728 495.951L303.082 492.512C303.094 492.464 303.122 492.423 303.161 492.393C303.2 492.363 303.247 492.347 303.296 492.347C303.345 492.347 303.392 492.363 303.431 492.393C303.47 492.423 303.497 492.464 303.51 492.512L303.156 495.951C303.152 496.003 303.128 496.052 303.09 496.087C303.052 496.123 303.001 496.143 302.949 496.143L302.919 496.187ZM303.628 489.323C303.572 489.316 303.521 489.288 303.485 489.244C303.449 489.2 303.432 489.144 303.436 489.087L303.79 485.648C303.79 485.619 303.795 485.59 303.808 485.563C303.82 485.536 303.838 485.513 303.861 485.494C303.884 485.476 303.911 485.463 303.939 485.456C303.968 485.449 303.998 485.45 304.026 485.456C304.055 485.458 304.083 485.466 304.108 485.479C304.134 485.492 304.156 485.51 304.174 485.532C304.192 485.555 304.206 485.58 304.213 485.608C304.221 485.635 304.222 485.664 304.218 485.693L303.864 489.132C303.857 489.185 303.83 489.234 303.79 489.269C303.749 489.305 303.697 489.324 303.643 489.323H303.628ZM304.322 482.445C304.266 482.438 304.214 482.409 304.179 482.365C304.143 482.322 304.126 482.266 304.13 482.209L304.484 478.77C304.484 478.652 304.617 478.549 304.72 478.578C304.776 478.586 304.827 478.614 304.863 478.658C304.899 478.702 304.916 478.758 304.912 478.814L304.558 482.253C304.554 482.306 304.531 482.355 304.492 482.39C304.454 482.426 304.404 482.445 304.351 482.445H304.322ZM305.03 475.567C304.974 475.56 304.923 475.531 304.887 475.487C304.852 475.443 304.834 475.387 304.838 475.331L305.192 471.892C305.192 471.863 305.198 471.833 305.21 471.807C305.222 471.78 305.24 471.756 305.263 471.738C305.286 471.719 305.313 471.706 305.342 471.7C305.37 471.693 305.4 471.693 305.429 471.7C305.485 471.707 305.536 471.736 305.572 471.78C305.607 471.824 305.625 471.88 305.621 471.936L305.266 475.375C305.259 475.429 305.233 475.478 305.192 475.513C305.151 475.548 305.099 475.568 305.045 475.567H305.03ZM305.724 468.689C305.668 468.682 305.617 468.653 305.581 468.609C305.545 468.565 305.528 468.509 305.532 468.453L305.886 465.014C305.886 464.896 306.019 464.792 306.122 464.822C306.178 464.829 306.23 464.858 306.265 464.902C306.301 464.946 306.319 465.002 306.314 465.058L305.96 468.497C305.96 468.524 305.955 468.55 305.944 468.574C305.934 468.598 305.918 468.62 305.899 468.638C305.879 468.656 305.856 468.67 305.831 468.679C305.806 468.688 305.78 468.691 305.753 468.689H305.724ZM306.432 461.811C306.376 461.803 306.325 461.775 306.289 461.731C306.254 461.687 306.236 461.631 306.24 461.575L306.595 458.136C306.596 458.107 306.604 458.079 306.617 458.054C306.63 458.028 306.648 458.006 306.671 457.988C306.693 457.97 306.719 457.957 306.746 457.949C306.774 457.941 306.803 457.94 306.831 457.944C306.887 457.951 306.938 457.98 306.974 458.024C307.009 458.068 307.027 458.123 307.023 458.18L306.668 461.619C306.665 461.671 306.641 461.72 306.603 461.756C306.565 461.791 306.514 461.811 306.462 461.811H306.432Z" fill="#5E9CE4"/>
<path d="M276.322 374.387C259.245 378.314 246.359 420.247 223.525 417.457V424.926C234.212 424.926 248.809 421.501 260.78 405.103C278.093 381.384 276.322 374.387 276.322 374.387Z" fill="#F9714E"/>
<g style="mix-blend-mode:multiply" opacity="0.3">
<path d="M276.322 374.387C259.245 378.314 246.359 420.247 223.525 417.457V424.926C234.212 424.926 248.809 421.501 260.78 405.103C278.093 381.384 276.322 374.387 276.322 374.387Z" fill="#F9714E"/>
</g>
<path d="M302.787 378.314C313.266 390.328 312.395 451.257 313.591 489.102C294.683 493.073 274.418 492.895 253.208 489.84C253.208 489.84 249.902 428.867 260.588 394.328C267.746 370.889 291.717 365.635 302.787 378.314Z" fill="#F9714E"/>
<g style="mix-blend-mode:multiply" opacity="0.3">
<path d="M267.673 458.667C263.813 445.82 261.907 432.465 262.02 419.051C262.02 407.745 262.33 395.435 265.296 384.291C263.214 387.379 261.606 390.763 260.529 394.328C249.902 428.867 253.149 489.84 253.149 489.84C263.541 491.387 274.036 492.142 284.543 492.098C276.885 482.104 271.163 470.765 267.673 458.667Z" fill="#F9714E"/>
</g>
<path d="M100.826 359.288C102.302 359.199 112.87 351.421 116.914 348.794C118.103 348.126 119.154 347.239 120.014 346.181C120.438 345.651 120.715 345.019 120.819 344.348C120.922 343.678 120.848 342.991 120.604 342.358C120.222 341.386 119.535 340.564 118.646 340.016C117.757 339.468 116.714 339.223 115.674 339.318C110.449 339.318 108.634 341.045 106.08 343.746C97.6669 352.38 100.826 359.288 100.826 359.288Z" fill="#00AD9F"/>
<path d="M147.939 390.682C152.515 392.734 157.401 394.786 162.375 394.151C164.308 393.9 166.404 393.029 167.054 391.199C167.255 390.397 167.223 389.554 166.962 388.77C166.7 387.985 166.22 387.292 165.578 386.771C164.282 385.756 162.765 385.063 161.15 384.749C155.054 383.273 146.508 384.085 140.486 385.797C142.833 387.626 145.326 389.26 147.939 390.682V390.682Z" fill="#00AD9F"/>
<path d="M178.065 323.096C176.028 321.812 173.769 320.144 173.769 317.665C173.769 315.185 176.308 313.399 178.729 313.399C181.175 313.565 183.478 314.614 185.208 316.351C192.913 323.111 191.954 330.816 191.954 330.816C191.954 330.816 180.338 324.528 178.065 323.096Z" fill="#00AD9F"/>
<path d="M184.146 302.477C182.284 301.857 180.65 300.695 179.452 299.141C179.175 298.755 178.987 298.313 178.903 297.845C178.819 297.378 178.84 296.898 178.965 296.44C179.496 294.964 180.441 293.591 184.205 294.285C196.16 296.44 198.758 304.617 198.758 304.617C198.758 304.617 187.304 303.849 184.146 302.477Z" fill="#00AD9F"/>
<path d="M219.156 320.587C224.105 320.168 228.688 317.813 231.909 314.034C233.127 312.679 234.007 311.056 234.477 309.296C234.697 308.406 234.677 307.473 234.417 306.594C234.158 305.715 233.669 304.92 233.001 304.292C232.1 303.645 231.019 303.296 229.909 303.296C228.8 303.296 227.718 303.645 226.817 304.292C225.044 305.642 223.663 307.441 222.817 309.502C221.607 312.159 219.156 320.587 219.156 320.587Z" fill="#00AD9F"/>
<path d="M133.563 495.36L98.7444 464.674C92.56 459.213 86.2427 453.604 82.3165 446.357C73.9033 430.756 78.7594 410.49 90.1246 396.896C101.49 383.302 118.169 375.273 134.892 369.428C151.615 363.583 169.061 359.48 185.076 351.716C195.083 346.86 205.149 339.642 207.895 328.868C208.72 325.614 208.816 322.218 208.178 318.923C207.539 315.628 206.181 312.514 204.2 309.804C202.219 307.095 199.664 304.855 196.718 303.247C193.772 301.638 190.507 300.7 187.157 300.499" stroke="#086356" stroke-linecap="round" stroke-linejoin="round"/>
<path d="M227.304 309.458C224.131 319.2 211.776 325.119 206.138 333.561" stroke="#086356" stroke-linecap="round" stroke-linejoin="round"/>
<path d="M182.906 320.661C185.341 323.229 188.249 325.355 190.374 328.174C194.802 334.166 195.231 343.878 188.603 349.901" stroke="#086356" stroke-linecap="round" stroke-linejoin="round"/>
<path d="M120.412 375.17C130.965 383.305 143.729 388.063 157.032 388.823" stroke="#086356" stroke-linecap="round" stroke-linejoin="round"/>
<path d="M96.9584 389.546C94.7298 382.525 94.7004 374.99 96.8742 367.952C99.0479 360.914 103.321 354.708 109.121 350.166" stroke="#086356" stroke-linecap="round" stroke-linejoin="round"/>
<path d="M502.755 198.581C502.418 197.738 502.309 196.82 502.439 195.921C502.568 195.023 502.932 194.173 503.493 193.459C504.005 192.939 504.656 192.577 505.368 192.418C506.08 192.258 506.823 192.307 507.508 192.559C517.648 196.987 516.556 212.913 516.556 212.913C516.556 212.913 506.932 211.526 502.755 198.581Z" fill="#00AD9F"/>
<path d="M502.519 228.337C495.951 240.234 519.286 239.333 527.7 232.322C527.7 232.322 508.172 218.079 502.519 228.337Z" fill="#00AD9F"/>
<path d="M532.024 199.481C530.43 197.297 529.869 194.05 531.596 191.983C532.291 191.258 533.163 190.726 534.125 190.439C535.088 190.152 536.108 190.119 537.087 190.345C539.461 190.992 541.601 192.303 543.257 194.124C545.475 196.688 547.01 199.77 547.722 203.085C548.434 206.4 548.3 209.841 547.33 213.09C547.33 213.09 534.622 203.039 532.024 199.481Z" fill="#00AD9F"/>
<path d="M624.717 228.957C624.363 228.05 624.27 227.063 624.447 226.106C624.624 225.149 625.065 224.26 625.721 223.54C626.188 223.144 626.732 222.849 627.319 222.673C627.906 222.498 628.522 222.446 629.13 222.522C630.343 222.66 631.522 223.009 632.614 223.555C634.984 224.658 636.891 226.56 638.001 228.928C640.879 234.832 638.916 242.212 638.916 242.212C638.916 242.212 626.119 233.577 624.717 228.957Z" fill="#00AD9F"/>
<path d="M595.551 250.802C593.455 248.993 590.897 247.802 588.163 247.362C585.429 246.921 582.627 247.249 580.068 248.307C578.764 248.83 577.619 249.685 576.747 250.787C574.917 253.355 575.551 257.09 577.47 259.643C579.553 262.022 582.189 263.852 585.145 264.972C590.341 267.333 598.429 267.805 603.935 269.222C603.95 269.178 603.92 258.167 595.551 250.802Z" fill="#00AD9F"/>
<path d="M510.032 201.135C513.471 212.396 523.183 220.913 534.002 225.518C544.821 230.123 556.747 231.333 568.467 232.086C580.186 232.839 592.083 233.238 603.404 236.322C614.459 239.274 625.47 245.592 630.208 256.056C635.979 268.78 630.872 283.997 622.828 295.377C614.784 306.757 603.684 315.864 595.906 327.48C592.304 332.794 589.293 339.008 590.002 345.384C590.961 353.886 598.105 360.144 604.762 365.531" stroke="#086356" stroke-linecap="round" stroke-linejoin="round"/>
<path d="M537.072 196.987C545.261 206.541 550.624 218.19 552.555 230.625" stroke="#086356" stroke-linecap="round" stroke-linejoin="round"/>
<path d="M510.932 230.256C515.328 231.629 519.882 232.433 524.482 232.647C529.459 232.393 534.177 230.349 537.766 226.891" stroke="#086356" stroke-linecap="round" stroke-linejoin="round"/>
<path d="M632.318 229.651C636.51 233.761 638.98 239.313 639.226 245.178C639.447 250.979 636.274 258.005 632.377 262.344" stroke="#086356" stroke-linecap="round" stroke-linejoin="round"/>
<path d="M588.747 255.983C596.537 263.35 604.828 270.171 613.558 276.396C617.78 279.348 626.149 283.185 629.868 282.196" stroke="#086356" stroke-linecap="round" stroke-linejoin="round"/>
</svg>
