<svg width="400" height="250" viewBox="0 0 760 694" fill="none" xmlns="http://www.w3.org/2000/svg">
<path d="M376.484 694C568.094 694 723.425 684.924 723.425 673.729C723.425 662.533 568.094 653.458 376.484 653.458C184.873 653.458 29.5425 662.533 29.5425 673.729C29.5425 684.924 184.873 694 376.484 694Z" fill="#F5F5F5"/>
<path d="M355.727 513.028H10.2173C7.50897 513.023 4.9129 511.945 2.99781 510.028C1.08272 508.112 0.00473075 505.514 0 502.803V16.7434C0.0282439 14.0485 1.1166 11.4734 3.02916 9.57613C4.94172 7.67887 7.52437 6.61238 10.2173 6.60782H355.727C358.434 6.61256 361.028 7.69194 362.94 9.60901C364.853 11.5261 365.927 14.1242 365.927 16.8329V16.8329V502.803C365.927 505.512 364.853 508.11 362.94 510.027C361.028 511.944 358.434 513.023 355.727 513.028V513.028ZM10.2173 6.96597C7.62761 6.9707 5.14533 8.00234 3.31413 9.83493C1.48293 11.6675 0.452073 14.1517 0.447343 16.7434V502.803C0.452073 505.395 1.48293 507.879 3.31413 509.712C5.14533 511.544 7.62761 512.576 10.2173 512.581H355.727C358.315 512.576 360.796 511.544 362.624 509.71C364.452 507.877 365.479 505.393 365.479 502.803V16.7434C365.479 14.1534 364.452 11.6691 362.624 9.83603C360.796 8.00293 358.315 6.97071 355.727 6.96597H10.2173Z" fill="#E6E6E6"/>
<path d="M742.768 513.028H397.241C394.534 513.023 391.94 511.944 390.027 510.027C388.115 508.11 387.041 505.512 387.041 502.803V16.7434C387.065 14.0502 388.149 11.475 390.059 9.57726C391.969 7.67951 394.549 6.61243 397.241 6.60782H742.768C745.46 6.61243 748.04 7.67951 749.95 9.57726C751.86 11.475 752.944 14.0502 752.968 16.7434V502.803C752.968 505.512 751.894 508.11 749.982 510.027C748.069 511.944 745.475 513.023 742.768 513.028V513.028ZM397.241 6.96597C394.653 6.97071 392.172 8.00293 390.344 9.83603C388.515 11.6691 387.488 14.1534 387.488 16.7434V502.803C387.488 505.393 388.515 507.877 390.344 509.71C392.172 511.544 394.653 512.576 397.241 512.581H742.768C745.36 512.576 747.844 511.545 749.678 509.713C751.512 507.881 752.547 505.396 752.556 502.803V16.7434C752.547 14.1501 751.512 11.6659 749.678 9.83384C747.844 8.00175 745.36 6.97068 742.768 6.96597H397.241Z" fill="#E6E6E6"/>
<path d="M300.883 255.037L298.431 465.52C289.771 535.556 165.714 591.158 165.714 591.158C165.714 591.158 41.6387 535.609 32.9244 465.52L30.4014 255.037L162.994 211.361L300.883 255.037Z" fill="#F5F5F5"/>
<path d="M283.58 268.36L281.45 457.354C273.899 518.436 165.696 566.929 165.696 566.929C165.696 566.929 57.4925 518.436 49.9593 457.354L47.6868 268.36L163.334 230.271L283.58 268.36Z" fill="#E0E0E0"/>
<path d="M275.993 280.286L273.989 453.791C266.831 511.094 165.463 556.507 165.463 556.507C165.463 556.507 64.0237 511.04 56.9557 453.791L54.8264 280.286L163.244 244.579L275.993 280.286Z" stroke="white" stroke-width="3" stroke-linecap="round" stroke-linejoin="round"/>
<path d="M717.037 183.998H478.371V603.102H717.037V183.998Z" fill="#F5F5F5"/>
<path d="M699.716 200.473H495.996V603.102H699.716V200.473Z" fill="#E0E0E0"/>
<path d="M501.74 604.893C501.383 604.895 501.029 604.821 500.702 604.678C500.379 604.549 500.086 604.354 499.843 604.105C499.583 603.861 499.381 603.561 499.253 603.228C499.124 602.903 499.057 602.556 499.056 602.207C499.056 601.81 499.144 601.419 499.314 601.06C499.484 600.702 499.73 600.386 500.036 600.134C500.343 599.882 500.701 599.702 501.085 599.605C501.469 599.508 501.87 599.498 502.259 599.574L502.76 599.718L503.225 599.968C503.37 600.072 503.508 600.186 503.637 600.309C503.764 600.429 503.872 600.568 503.959 600.721C504.063 600.863 504.147 601.02 504.209 601.186C504.282 601.347 504.336 601.515 504.37 601.688C504.389 601.86 504.389 602.034 504.37 602.207C504.372 602.558 504.298 602.906 504.156 603.228C504.027 603.556 503.832 603.855 503.583 604.105C503.091 604.593 502.432 604.875 501.74 604.893V604.893Z" fill="white"/>
<path d="M499.02 536.236C499.022 535.882 499.095 535.532 499.233 535.205C499.371 534.879 499.572 534.584 499.825 534.336C500.078 534.088 500.377 533.892 500.706 533.76C501.035 533.629 501.386 533.563 501.74 533.568V533.568C502.452 533.568 503.134 533.851 503.638 534.355C504.141 534.858 504.424 535.542 504.424 536.254C504.424 536.966 504.141 537.65 503.638 538.153C503.134 538.657 502.452 538.94 501.74 538.94C501.383 538.945 501.029 538.878 500.698 538.744C500.367 538.61 500.066 538.412 499.812 538.16C499.559 537.908 499.359 537.608 499.223 537.278C499.087 536.948 499.018 536.593 499.02 536.236V536.236ZM499.02 470.283C499.02 469.571 499.303 468.888 499.806 468.384C500.31 467.88 500.992 467.597 501.704 467.597C502.416 467.597 503.099 467.88 503.602 468.384C504.105 468.888 504.388 469.571 504.388 470.283C504.388 470.996 504.105 471.679 503.602 472.183C503.099 472.686 502.416 472.969 501.704 472.969C500.992 472.969 500.31 472.686 499.806 472.183C499.303 471.679 499.02 470.996 499.02 470.283ZM499.02 404.313C499.02 403.6 499.303 402.917 499.806 402.413C500.31 401.909 500.992 401.626 501.704 401.626C502.416 401.626 503.099 401.909 503.602 402.413C504.105 402.917 504.388 403.6 504.388 404.313C504.388 405.025 504.105 405.708 503.602 406.212C503.099 406.716 502.416 406.999 501.704 406.999C501.352 406.999 501.003 406.929 500.677 406.794C500.351 406.659 500.055 406.461 499.806 406.212C499.557 405.962 499.359 405.666 499.224 405.34C499.089 405.015 499.02 404.665 499.02 404.313V404.313ZM499.02 338.342C499.02 337.629 499.303 336.946 499.806 336.442C500.31 335.939 500.992 335.656 501.704 335.656C502.416 335.656 503.099 335.939 503.602 336.442C504.105 336.946 504.388 337.629 504.388 338.342C504.388 339.054 504.105 339.737 503.602 340.241C503.099 340.745 502.416 341.028 501.704 341.028C500.998 341.028 500.321 340.75 499.819 340.254C499.316 339.758 499.029 339.084 499.02 338.378V338.342ZM499.02 272.389C499.02 271.677 499.303 270.993 499.806 270.49C500.31 269.986 500.992 269.703 501.704 269.703C502.416 269.703 503.099 269.986 503.602 270.49C504.105 270.993 504.388 271.677 504.388 272.389C504.388 273.101 504.105 273.785 503.602 274.288C503.099 274.792 502.416 275.075 501.704 275.075C501.352 275.075 501.003 275.006 500.677 274.871C500.351 274.736 500.055 274.538 499.806 274.288C499.557 274.039 499.359 273.743 499.224 273.417C499.089 273.091 499.02 272.742 499.02 272.389V272.389Z" fill="white"/>
<path d="M501.74 209.104C501.387 209.106 501.038 209.037 500.712 208.902C500.386 208.767 500.091 208.567 499.843 208.316C499.711 208.196 499.597 208.057 499.503 207.905C499.409 207.761 499.325 207.612 499.253 207.457C499.179 207.292 499.131 207.117 499.11 206.938C499.091 206.765 499.091 206.591 499.11 206.418C499.114 205.707 499.397 205.025 499.897 204.52C500.016 204.393 500.148 204.279 500.291 204.18C500.436 204.084 500.592 204.006 500.756 203.947C500.917 203.877 501.085 203.823 501.257 203.786C501.605 203.714 501.964 203.714 502.313 203.786C502.484 203.823 502.652 203.877 502.814 203.947C502.977 204.006 503.133 204.084 503.279 204.18C503.424 204.283 503.561 204.397 503.69 204.52C504.191 205.025 504.473 205.707 504.478 206.418C504.496 206.591 504.496 206.765 504.478 206.938C504.44 207.115 504.387 207.289 504.317 207.457C504.251 207.615 504.167 207.766 504.066 207.905C503.979 208.057 503.871 208.196 503.744 208.316C503.481 208.577 503.168 208.782 502.823 208.917C502.479 209.053 502.11 209.116 501.74 209.104Z" fill="white"/>
<path d="M626.781 206.418C626.781 205.706 627.064 205.023 627.567 204.519C628.071 204.015 628.753 203.732 629.465 203.732V203.732C630.177 203.732 630.86 204.015 631.363 204.519C631.867 205.023 632.149 205.706 632.149 206.418V206.418C632.149 207.131 631.867 207.814 631.363 208.318C630.86 208.821 630.177 209.104 629.465 209.104V209.104C628.753 209.104 628.071 208.821 627.567 208.318C627.064 207.814 626.781 207.131 626.781 206.418V206.418ZM562.901 206.418C562.901 205.706 563.183 205.023 563.687 204.519C564.19 204.015 564.873 203.732 565.585 203.732C566.297 203.732 566.979 204.015 567.483 204.519C567.986 205.023 568.269 205.706 568.269 206.418C568.269 207.131 567.986 207.814 567.483 208.318C566.979 208.821 566.297 209.104 565.585 209.104C564.873 209.104 564.19 208.821 563.687 208.318C563.183 207.814 562.901 207.131 562.901 206.418Z" fill="white"/>
<path d="M693.346 209.104C693.173 209.122 693 209.122 692.827 209.104L692.326 208.961L691.861 208.71C691.716 208.607 691.578 208.493 691.449 208.37C690.946 207.867 690.662 207.184 690.662 206.472C690.666 205.761 690.949 205.079 691.449 204.574C691.574 204.451 691.712 204.343 691.861 204.251C692.002 204.144 692.159 204.059 692.326 204.001C692.486 203.928 692.654 203.874 692.827 203.84C693.175 203.768 693.534 203.768 693.883 203.84L694.384 204.001C694.545 204.06 694.696 204.144 694.831 204.251C694.983 204.338 695.122 204.447 695.243 204.574C695.743 205.079 696.025 205.761 696.03 206.472C696.029 207.184 695.746 207.867 695.243 208.37C695.118 208.497 694.98 208.611 694.831 208.71C694.688 208.805 694.539 208.888 694.384 208.961L693.883 209.104C693.704 209.122 693.524 209.122 693.346 209.104Z" fill="white"/>
<path d="M690.662 536.236C690.662 535.524 690.945 534.841 691.448 534.337C691.951 533.833 692.634 533.55 693.346 533.55V533.55C694.058 533.55 694.74 533.833 695.244 534.337C695.747 534.841 696.03 535.524 696.03 536.236V536.236C696.03 536.949 695.747 537.632 695.244 538.136C694.74 538.639 694.058 538.922 693.346 538.922V538.922C692.634 538.922 691.951 538.639 691.448 538.136C690.945 537.632 690.662 536.949 690.662 536.236V536.236ZM690.662 470.283C690.662 469.571 690.945 468.888 691.448 468.384C691.951 467.88 692.634 467.597 693.346 467.597V467.597C694.058 467.597 694.74 467.88 695.244 468.384C695.747 468.888 696.03 469.571 696.03 470.283V470.283C696.03 470.996 695.747 471.679 695.244 472.183C694.74 472.686 694.058 472.969 693.346 472.969V472.969C692.634 472.969 691.951 472.686 691.448 472.183C690.945 471.679 690.662 470.996 690.662 470.283V470.283ZM690.662 404.313C690.662 403.6 690.945 402.917 691.448 402.413C691.951 401.909 692.634 401.626 693.346 401.626V401.626C694.058 401.626 694.74 401.909 695.244 402.413C695.747 402.917 696.03 403.6 696.03 404.313V404.313C696.03 405.025 695.747 405.708 695.244 406.212C694.74 406.716 694.058 406.999 693.346 406.999V406.999C692.993 406.999 692.644 406.929 692.319 406.794C691.993 406.659 691.697 406.461 691.448 406.212C691.199 405.962 691.001 405.666 690.866 405.34C690.731 405.015 690.662 404.665 690.662 404.313V404.313ZM690.662 338.342C690.662 337.629 690.945 336.946 691.448 336.442C691.951 335.939 692.634 335.656 693.346 335.656V335.656C694.058 335.656 694.74 335.939 695.244 336.442C695.747 336.946 696.03 337.629 696.03 338.342V338.342C696.03 339.054 695.747 339.737 695.244 340.241C694.74 340.745 694.058 341.028 693.346 341.028V341.028C692.64 341.028 691.963 340.75 691.46 340.254C690.958 339.758 690.671 339.084 690.662 338.378V338.342ZM690.662 272.389C690.662 271.677 690.945 270.993 691.448 270.49C691.951 269.986 692.634 269.703 693.346 269.703V269.703C694.058 269.703 694.74 269.986 695.244 270.49C695.747 270.993 696.03 271.677 696.03 272.389V272.389C696.03 273.101 695.747 273.785 695.244 274.288C694.74 274.792 694.058 275.075 693.346 275.075V275.075C692.993 275.075 692.644 275.006 692.319 274.871C691.993 274.736 691.697 274.538 691.448 274.288C691.199 274.039 691.001 273.743 690.866 273.417C690.731 273.091 690.662 272.742 690.662 272.389V272.389Z" fill="white"/>
<path d="M693.346 604.893C692.815 604.892 692.297 604.735 691.856 604.439C691.415 604.144 691.071 603.725 690.868 603.234C690.665 602.744 690.612 602.204 690.716 601.683C690.819 601.163 691.074 600.684 691.449 600.309C691.578 600.186 691.716 600.072 691.861 599.968L692.326 599.718L692.827 599.574C693.175 599.503 693.534 599.503 693.883 599.574L694.384 599.718C694.539 599.79 694.688 599.874 694.831 599.968C694.98 600.067 695.117 600.181 695.243 600.309C695.746 600.812 696.029 601.495 696.03 602.207C696.034 602.56 695.966 602.91 695.83 603.237C695.695 603.563 695.495 603.858 695.243 604.105C694.74 604.609 694.057 604.892 693.346 604.893Z" fill="white"/>
<path d="M99.1312 603.783H25.3912V604.23H99.1312V603.783Z" fill="#E0E0E0"/>
<path d="M249.438 600.201H175.484V600.649H249.438V600.201Z" fill="#E0E0E0"/>
<path d="M345.671 600.201H327.777V600.649H345.671V600.201Z" fill="#E0E0E0"/>
<path d="M166.823 615.494H84.0647V615.942H166.823V615.494Z" fill="#E0E0E0"/>
<path d="M453.069 603.55H414.419V603.998H453.069V603.55Z" fill="#E0E0E0"/>
<path d="M518.972 603.55H468.994V603.998H518.972V603.55Z" fill="#E0E0E0"/>
<path d="M759.982 611.125H648.254V611.572H759.982V611.125Z" fill="#E0E0E0"/>
<path d="M346.798 58.3959H264.362L268.853 6.98389H351.29L346.798 58.3959Z" fill="#EBEBEB"/>
<path d="M348.462 0L346.208 26.8431L343.953 59.1122H264.666L269.175 0H348.462Z" fill="#FAFAFA"/>
<path d="M340.875 6.98387L345.367 58.3959H262.948L258.457 6.98387H265.453L267.905 3.13379H290.111L293.296 6.98387H340.875Z" fill="#E0E0E0"/>
<path d="M474.559 69.8745H386.844V157.656H474.559V69.8745Z" fill="#EBEBEB"/>
<path d="M476.778 69.8745H474.541V157.656H476.778V69.8745Z" fill="#E0E0E0"/>
<path d="M466.436 78.0045H394.932V149.562H466.436V78.0045Z" fill="#F5F5F5"/>
<path d="M395.612 78.0045H394.95V149.562H395.612V78.0045Z" fill="#E0E0E0"/>
<path d="M431.364 124.116C439.062 124.116 445.303 116.163 445.303 106.352C445.303 96.541 439.062 88.5878 431.364 88.5878C423.666 88.5878 417.425 96.541 417.425 106.352C417.425 116.163 423.666 124.116 431.364 124.116Z" fill="#E0E0E0"/>
<path d="M424.063 133.105H438.754V118.404H424.063V133.105Z" fill="#E0E0E0"/>
<path d="M457.847 149.562H404.022V144.548C404.022 139.97 405.84 135.579 409.075 132.342C412.31 129.104 416.697 127.286 421.272 127.286H440.669C445.244 127.286 449.631 129.104 452.866 132.342C456.101 135.579 457.918 139.97 457.918 144.548V149.562H457.847Z" fill="#E0E0E0"/>
<path d="M402.68 119.693C402.68 122.612 408.048 125.065 408.048 125.065C408.048 125.065 413.417 122.683 413.417 119.693C413.417 118.296 411.484 117.508 410.214 117.902C409.727 118.072 409.278 118.337 408.895 118.681C408.511 119.025 408.199 119.442 407.977 119.908C407.292 118.984 406.388 118.246 405.346 117.759C405.041 117.652 404.714 117.62 404.394 117.667C404.074 117.714 403.77 117.838 403.508 118.028C403.246 118.218 403.034 118.469 402.89 118.759C402.745 119.048 402.674 119.369 402.68 119.693V119.693Z" fill="#E0E0E0"/>
<path d="M450.313 106.638C450.313 110.488 457.274 113.604 457.274 113.604C457.274 113.604 464.235 110.488 464.235 106.638C464.235 104.848 461.658 103.791 460.03 104.257C458.801 104.748 457.813 105.698 457.274 106.907C456.366 105.7 455.182 104.73 453.821 104.078C453.417 103.935 452.986 103.892 452.562 103.954C452.139 104.016 451.738 104.18 451.392 104.432C451.047 104.685 450.768 105.017 450.58 105.402C450.392 105.786 450.3 106.211 450.313 106.638V106.638Z" fill="#E0E0E0"/>
<path d="M297.233 544.885C298.056 550.061 301.795 554.519 302.082 559.748C302.314 563.849 300.4 567.699 299.451 571.693C298.503 575.686 298.968 580.646 302.458 582.759C303.727 583.405 305.146 583.701 306.567 583.616C307.989 583.531 309.362 583.068 310.545 582.276C312.882 580.657 314.812 578.518 316.182 576.026C321.671 567.148 324.668 556.953 324.86 546.515C324.86 542.128 324.413 537.472 321.836 533.98C313.856 522.823 295.193 531.992 297.233 544.885Z" fill="#F5F5F5"/>
<path d="M290.594 531.186C291.364 532.028 292.367 532.62 293.475 532.887C294.145 533.106 294.86 533.149 295.552 533.015C296.244 532.88 296.89 532.571 297.429 532.117C297.84 531.589 298.133 530.978 298.287 530.326C298.442 529.674 298.454 528.996 298.324 528.339C298.215 526.69 297.651 525.103 296.696 523.755C296.216 523.09 295.579 522.554 294.843 522.195C294.106 521.835 293.292 521.664 292.473 521.695C291.655 521.763 290.886 522.109 290.293 522.676C289.7 523.243 289.32 523.997 289.216 524.811C289.017 527.027 289.498 529.251 290.594 531.186Z" fill="#F5F5F5"/>
<path d="M305.464 520.424C305.098 519.857 304.574 519.411 303.957 519.14C303.339 518.87 302.656 518.787 301.992 518.902C301.336 519.049 300.738 519.391 300.279 519.883C299.819 520.375 299.518 520.994 299.416 521.66C299.387 522.095 299.387 522.531 299.416 522.967C299.422 523.671 299.5 524.373 299.648 525.062C299.798 525.726 300.112 526.342 300.561 526.853C301.175 527.45 301.954 527.849 302.798 527.999C303.319 528.124 303.864 528.12 304.384 527.99C304.904 527.859 305.385 527.604 305.786 527.247C306.142 526.813 306.408 526.312 306.568 525.774C306.727 525.236 306.778 524.671 306.716 524.113C306.675 522.786 306.239 521.501 305.464 520.424V520.424Z" fill="#F5F5F5"/>
<path d="M313.748 519.976C313.455 519.436 312.978 519.019 312.403 518.802C311.828 518.585 311.194 518.582 310.617 518.794C310.054 519.029 309.558 519.398 309.171 519.869C308.784 520.341 308.519 520.9 308.398 521.498C308.398 521.892 308.291 522.286 308.273 522.68C308.262 523.331 308.334 523.981 308.488 524.614C308.616 525.238 308.943 525.803 309.418 526.226C309.926 526.651 310.549 526.913 311.208 526.978C311.636 527.031 312.071 526.989 312.482 526.856C312.893 526.723 313.271 526.502 313.587 526.208C314.283 525.416 314.665 524.397 314.661 523.343C314.739 522.15 314.418 520.966 313.748 519.976V519.976Z" fill="#F5F5F5"/>
<path d="M321.139 521.695C320.262 520.388 319.349 520.299 318.347 520.854C317.457 521.506 316.823 522.45 316.558 523.522C316.457 523.868 316.385 524.221 316.343 524.578C316.246 525.171 316.246 525.776 316.343 526.369C316.46 526.943 316.793 527.45 317.274 527.784C317.717 528.061 318.238 528.187 318.759 528.142C319.436 528.081 320.07 527.783 320.548 527.3C321.206 526.594 321.626 525.698 321.747 524.74C321.929 523.684 321.712 522.599 321.139 521.695V521.695Z" fill="#F5F5F5"/>
<path d="M322.588 528.948C322.49 529.372 322.49 529.813 322.588 530.237C322.624 530.455 322.713 530.66 322.847 530.835C322.982 531.01 323.157 531.149 323.357 531.24C323.723 531.323 324.105 531.296 324.455 531.163C324.806 531.029 325.109 530.794 325.326 530.488C325.855 529.946 326.242 529.282 326.453 528.554C326.557 528.19 326.587 527.809 326.541 527.434C326.495 527.059 326.374 526.697 326.185 526.369C324.592 523.773 322.803 527.658 322.588 528.948Z" fill="#F5F5F5"/>
<path d="M324.037 664.489C325.236 660.263 325.934 655.625 324.342 651.524C319.421 638.756 299.094 642.821 297.751 655.821L324.037 664.489Z" fill="#F5F5F5"/>
<path d="M294.924 640.887C295.456 641.899 296.278 642.729 297.286 643.268C297.876 643.651 298.554 643.876 299.256 643.923C299.957 643.97 300.659 643.837 301.294 643.537C301.817 643.126 302.247 642.608 302.555 642.019C302.864 641.429 303.044 640.781 303.084 640.117C303.4 638.5 303.263 636.826 302.69 635.282C302.393 634.511 301.912 633.825 301.288 633.285C300.664 632.745 299.916 632.367 299.111 632.184C298.307 632.041 297.477 632.178 296.761 632.572C296.045 632.966 295.485 633.594 295.175 634.351C294.434 636.454 294.347 638.733 294.924 640.887V640.887Z" fill="#F5F5F5"/>
<path d="M312.066 634.279C311.854 633.639 311.46 633.075 310.933 632.655C310.405 632.235 309.767 631.978 309.096 631.915C308.423 631.893 307.759 632.071 307.189 632.429C306.618 632.786 306.167 633.305 305.893 633.921C305.736 634.33 305.604 634.749 305.499 635.174C305.319 635.853 305.211 636.55 305.177 637.252C305.132 637.951 305.274 638.649 305.589 639.275C306.013 639.991 306.634 640.569 307.378 640.94C307.849 641.191 308.375 641.323 308.908 641.323C309.442 641.323 309.967 641.191 310.438 640.94C310.907 640.622 311.308 640.212 311.615 639.735C311.922 639.258 312.131 638.724 312.228 638.165C312.549 636.881 312.493 635.532 312.066 634.279Z" fill="#F5F5F5"/>
<path d="M320.119 635.98C319.973 635.391 319.623 634.871 319.132 634.514C318.641 634.157 318.04 633.985 317.435 634.028C316.829 634.115 316.254 634.348 315.758 634.707C315.263 635.065 314.862 635.539 314.589 636.088C314.428 636.444 314.285 636.809 314.16 637.18C313.959 637.788 313.838 638.42 313.802 639.06C313.767 639.691 313.929 640.317 314.267 640.851C314.664 641.411 315.228 641.832 315.878 642.051C316.28 642.214 316.713 642.285 317.146 642.261C317.58 642.236 318.002 642.115 318.383 641.907C319.261 641.331 319.898 640.451 320.172 639.436C320.535 638.31 320.516 637.095 320.119 635.98V635.98Z" fill="#F5F5F5"/>
<path d="M326.811 639.544C326.31 638.039 325.362 637.753 324.342 638.004C323.299 638.392 322.425 639.133 321.872 640.099C321.693 640.412 321.532 640.735 321.389 641.066C321.17 641.603 321.037 642.171 320.995 642.749C320.961 643.327 321.147 643.896 321.514 644.343C321.869 644.729 322.34 644.987 322.856 645.077C323.526 645.208 324.221 645.086 324.807 644.737C325.614 644.218 326.239 643.461 326.596 642.57C327.033 641.621 327.109 640.545 326.811 639.544V639.544Z" fill="#F5F5F5"/>
<path d="M326.381 646.921C326.163 647.299 326.034 647.722 326.006 648.157C325.988 648.376 326.023 648.595 326.107 648.798C326.191 649 326.322 649.179 326.489 649.321C326.82 649.496 327.196 649.569 327.568 649.531C327.941 649.493 328.294 649.345 328.582 649.106C329.23 648.714 329.776 648.174 330.175 647.53C330.368 647.205 330.495 646.844 330.547 646.469C330.599 646.094 330.576 645.712 330.479 645.346C329.549 642.427 326.954 645.757 326.381 646.921Z" fill="#F5F5F5"/>
<path d="M253.5 588.472C254.162 593.683 251.711 599.001 252.964 604.105C253.876 608.098 256.793 611.268 258.797 614.849C260.801 618.431 261.749 623.302 258.958 626.31C257.921 627.285 256.643 627.966 255.256 628.281C253.869 628.595 252.422 628.533 251.067 628.101C248.374 627.177 245.926 625.652 243.909 623.642C236.181 616.633 230.482 607.669 227.411 597.694C226.123 593.486 225.336 588.884 226.839 584.747C231.545 571.872 251.908 575.525 253.5 588.472Z" fill="#F5F5F5"/>
<path d="M256.023 573.501C255.52 574.52 254.722 575.362 253.733 575.919C253.152 576.318 252.478 576.561 251.776 576.624C251.074 576.687 250.367 576.567 249.725 576.277C249.18 575.885 248.726 575.38 248.396 574.795C248.065 574.211 247.865 573.562 247.81 572.892C247.465 571.279 247.564 569.601 248.096 568.04C248.386 567.259 248.864 566.562 249.489 566.012C250.113 565.462 250.865 565.076 251.675 564.888C252.477 564.725 253.311 564.843 254.037 565.221C254.763 565.599 255.338 566.214 255.665 566.965C256.166 568.631 256.793 571.872 256.023 573.501Z" fill="#F5F5F5"/>
<path d="M238.827 567.252C239.025 566.606 239.405 566.032 239.923 565.599C240.441 565.167 241.074 564.895 241.744 564.816C242.417 564.782 243.085 564.949 243.662 565.297C244.239 565.645 244.699 566.157 244.983 566.768C245.156 567.169 245.3 567.582 245.412 568.004C245.605 568.675 245.725 569.366 245.77 570.063C245.835 570.765 245.705 571.472 245.394 572.105C244.997 572.872 244.372 573.497 243.605 573.895C243.144 574.166 242.624 574.318 242.091 574.34C241.557 574.362 241.026 574.252 240.545 574.021C240.078 573.704 239.679 573.297 239.372 572.823C239.064 572.349 238.855 571.819 238.756 571.263C238.367 569.95 238.392 568.55 238.827 567.252V567.252Z" fill="#F5F5F5"/>
<path d="M230.74 569.114C230.871 568.513 231.215 567.979 231.708 567.611C232.201 567.242 232.81 567.064 233.424 567.108C234.028 567.183 234.606 567.402 235.108 567.748C235.61 568.094 236.02 568.557 236.304 569.096C236.476 569.45 236.626 569.815 236.752 570.188C236.971 570.794 237.109 571.427 237.163 572.069C237.2 572.697 237.044 573.322 236.716 573.859C236.335 574.427 235.783 574.86 235.141 575.095C234.743 575.267 234.312 575.349 233.879 575.333C233.445 575.318 233.021 575.206 232.636 575.006C231.761 574.441 231.124 573.574 230.847 572.57C230.431 571.461 230.394 570.246 230.74 569.114V569.114Z" fill="#F5F5F5"/>
<path d="M224.119 572.821C224.602 571.317 225.532 571.03 226.57 571.227C227.62 571.599 228.507 572.328 229.075 573.286C229.263 573.592 229.43 573.909 229.576 574.236C229.817 574.761 229.963 575.325 230.006 575.901C230.062 576.481 229.889 577.06 229.523 577.513C229.176 577.903 228.711 578.167 228.199 578.265C227.53 578.413 226.83 578.311 226.23 577.978C225.4 577.478 224.744 576.734 224.351 575.847C223.91 574.9 223.828 573.825 224.119 572.821V572.821Z" fill="#F5F5F5"/>
<path d="M224.727 580.127C224.949 580.506 225.089 580.927 225.139 581.363C225.159 581.582 225.127 581.804 225.046 582.009C224.965 582.214 224.838 582.398 224.674 582.545C224.342 582.722 223.966 582.799 223.591 582.767C223.217 582.735 222.859 582.596 222.562 582.366C221.907 581.993 221.354 581.464 220.952 580.825C220.748 580.504 220.613 580.144 220.555 579.768C220.496 579.393 220.516 579.009 220.612 578.641C221.453 575.758 224.119 579.035 224.727 580.127Z" fill="#F5F5F5"/>
<path d="M209.589 158.57C205.471 159.149 201.274 158.493 197.528 156.685C193.783 154.878 190.657 151.999 188.546 148.413C186.436 144.827 185.435 140.696 185.671 136.541C185.907 132.386 187.368 128.394 189.871 125.07C192.374 121.747 195.805 119.24 199.731 117.869C203.657 116.497 207.901 116.321 211.927 117.363C215.953 118.405 219.58 120.619 222.349 123.724C225.118 126.828 226.904 130.685 227.483 134.807C228.249 140.331 226.795 145.934 223.442 150.388C220.088 154.842 215.106 157.784 209.589 158.57ZM205.33 127.948C203.398 128.215 201.588 129.049 200.13 130.345C198.672 131.641 197.63 133.341 197.137 135.23C196.644 137.118 196.722 139.111 197.361 140.955C198 142.799 199.172 144.412 200.727 145.59C202.282 146.768 204.151 147.458 206.099 147.573C208.046 147.687 209.983 147.221 211.665 146.233C213.348 145.246 214.7 143.781 215.55 142.024C216.4 140.268 216.711 138.298 216.442 136.365C216.078 133.777 214.705 131.438 212.622 129.861C210.54 128.284 207.918 127.596 205.33 127.948V127.948Z" fill="#E0E0E0"/>
<path d="M201.69 74.9657L193.786 76.0703L200.886 126.953L208.79 125.848L201.69 74.9657Z" fill="#E0E0E0"/>
<path d="M208.393 67.884L193.566 69.9824L194.683 77.8892L209.511 75.7908L208.393 67.884Z" fill="#E0E0E0"/>
<path d="M209.612 78.6408L195.665 80.5876L196.767 88.4977L210.715 86.5509L209.612 78.6408Z" fill="#E0E0E0"/>
<path d="M211.645 92.9807L199.47 94.6801L200.572 102.59L212.747 100.891L211.645 92.9807Z" fill="#E0E0E0"/>
<path d="M193.002 337.081C209.499 319.835 207.629 291.251 188.826 273.237C170.022 255.223 141.406 254.6 124.909 271.846C108.412 289.092 110.282 317.676 129.085 335.69C147.889 353.704 176.505 354.327 193.002 337.081Z" fill="#E4F9F5"/>
<path d="M137.943 276.132C137.567 276.132 137.201 276.013 136.896 275.794C136.592 275.574 136.364 275.264 136.245 274.907C136.126 274.551 136.123 274.166 136.235 273.807C136.347 273.448 136.569 273.134 136.869 272.908C142.894 268.581 150.157 266.319 157.572 266.462V266.462C158.047 266.462 158.502 266.65 158.837 266.986C159.173 267.322 159.361 267.777 159.361 268.252C159.361 268.727 159.173 269.183 158.837 269.519C158.502 269.854 158.047 270.043 157.572 270.043C150.931 269.897 144.42 271.907 139.016 275.773C138.707 276.006 138.33 276.132 137.943 276.132V276.132Z" fill="#11999E"/>
<path d="M146.406 337.733C146.113 337.732 145.824 337.658 145.565 337.518C140.082 334.583 135.323 330.458 131.639 325.445C127.954 320.432 125.437 314.657 124.272 308.544C123.135 303.256 123.187 297.781 124.425 292.516C125.663 287.251 128.056 282.327 131.429 278.101C131.733 277.736 132.17 277.506 132.643 277.462C133.116 277.418 133.587 277.565 133.952 277.869C134.318 278.173 134.548 278.609 134.591 279.083C134.635 279.556 134.489 280.028 134.185 280.394C131.137 284.219 128.98 288.675 127.868 293.439C126.757 298.203 126.721 303.155 127.761 307.935C128.833 313.523 131.137 318.802 134.505 323.387C137.873 327.971 142.22 331.747 147.23 334.438C147.579 334.627 147.856 334.927 148.017 335.291C148.177 335.655 148.212 336.062 148.116 336.448C148.019 336.834 147.797 337.177 147.484 337.423C147.172 337.668 146.786 337.803 146.389 337.805L146.406 337.733Z" fill="#11999E"/>
<path d="M164.318 342.407C160.313 342.389 156.335 341.749 152.526 340.509C152.302 340.436 152.094 340.319 151.914 340.166C151.735 340.013 151.587 339.826 151.48 339.615C151.373 339.405 151.308 339.175 151.29 338.94C151.271 338.705 151.299 338.468 151.372 338.243C151.445 338.019 151.561 337.811 151.714 337.631C151.867 337.452 152.054 337.304 152.265 337.197C152.475 337.089 152.704 337.025 152.939 337.006C153.174 336.987 153.411 337.015 153.635 337.088C164.64 340.67 175.627 338.664 183.768 331.716C187.899 328.068 191.02 323.416 192.832 318.209C194.643 313.003 195.084 307.417 194.111 301.99C194.035 301.515 194.151 301.029 194.433 300.64C194.715 300.25 195.14 299.989 195.614 299.913C196.089 299.837 196.574 299.952 196.963 300.234C197.353 300.517 197.614 300.942 197.69 301.417C198.775 307.447 198.282 313.655 196.259 319.439C194.237 325.222 190.754 330.383 186.148 334.42C180.08 339.644 172.322 342.483 164.318 342.407V342.407Z" fill="#11999E"/>
<path d="M194.415 297.406C194.036 297.404 193.666 297.282 193.361 297.057C193.055 296.831 192.829 296.514 192.715 296.152C191.07 291.067 188.375 286.384 184.805 282.408C181.236 278.432 176.871 275.25 171.994 273.069C171.558 272.88 171.215 272.524 171.04 272.08C170.866 271.637 170.874 271.143 171.064 270.706C171.254 270.269 171.609 269.925 172.052 269.751C172.495 269.576 172.989 269.585 173.426 269.775C178.766 272.164 183.546 275.649 187.454 280.005C191.363 284.361 194.314 289.49 196.115 295.06C196.262 295.511 196.224 296.002 196.009 296.425C195.794 296.848 195.421 297.169 194.97 297.316C194.79 297.371 194.603 297.401 194.415 297.406V297.406Z" fill="#11999E"/>
<path d="M166.215 271.046C166.078 271.065 165.94 271.065 165.803 271.046C163.11 270.418 160.355 270.1 157.59 270.097C157.115 270.097 156.66 269.908 156.325 269.572C155.989 269.237 155.801 268.781 155.801 268.306C155.801 267.831 155.989 267.376 156.325 267.04C156.66 266.704 157.115 266.515 157.59 266.515C160.603 266.525 163.605 266.879 166.537 267.572C167.011 267.627 167.445 267.868 167.742 268.242C168.039 268.616 168.175 269.094 168.12 269.569C168.066 270.043 167.825 270.477 167.451 270.775C167.077 271.072 166.6 271.208 166.125 271.153L166.215 271.046Z" fill="#11999E"/>
<path d="M134.65 313.827C134.285 313.828 133.927 313.717 133.627 313.509C133.326 313.301 133.096 313.005 132.968 312.663C131.291 308.33 130.701 303.651 131.25 299.037C131.799 294.422 133.47 290.013 136.118 286.196C138.62 282.579 141.971 279.633 145.877 277.616C149.784 275.598 154.125 274.572 158.52 274.627C158.995 274.627 159.45 274.816 159.786 275.152C160.121 275.488 160.31 275.943 160.31 276.418C160.31 276.893 160.121 277.349 159.786 277.684C159.45 278.02 158.995 278.209 158.52 278.209C154.702 278.164 150.93 279.054 147.533 280.802C144.137 282.55 141.219 285.102 139.034 288.237C136.713 291.599 135.252 295.48 134.781 299.539C134.31 303.599 134.843 307.712 136.332 311.517C136.494 311.961 136.474 312.451 136.276 312.88C136.079 313.31 135.719 313.644 135.277 313.809C135.07 313.849 134.859 313.855 134.65 313.827Z" fill="#11999E"/>
<path d="M163.03 334.277C157.666 334.097 152.425 332.625 147.752 329.984C143.08 327.343 139.113 323.613 136.189 319.109C135.972 318.714 135.912 318.251 136.021 317.813C136.131 317.375 136.402 316.994 136.779 316.747C137.157 316.501 137.614 316.406 138.059 316.482C138.503 316.558 138.903 316.799 139.177 317.157C141.776 321.164 145.3 324.485 149.451 326.842C153.603 329.198 158.26 330.52 163.03 330.695C163.504 330.695 163.959 330.884 164.295 331.22C164.631 331.556 164.819 332.011 164.819 332.486C164.819 332.961 164.631 333.417 164.295 333.752C163.959 334.088 163.504 334.277 163.03 334.277Z" fill="#11999E"/>
<path d="M169.722 333.507C169.313 333.519 168.913 333.39 168.587 333.143C168.262 332.895 168.031 332.543 167.933 332.146C167.819 331.685 167.893 331.198 168.138 330.792C168.383 330.386 168.779 330.093 169.239 329.979C183.751 326.398 187.508 313.665 186.309 303.888C184.753 291.138 174.696 278.227 158.467 278.209C157.992 278.209 157.537 278.02 157.201 277.684C156.866 277.349 156.677 276.893 156.677 276.418C156.677 275.943 156.866 275.488 157.201 275.152C157.537 274.816 157.992 274.627 158.467 274.627C176.772 274.627 188.117 289.132 189.87 303.458C191.66 318.232 183.912 330.015 170.098 333.453C169.975 333.484 169.849 333.502 169.722 333.507Z" fill="#11999E"/>
<path d="M151.202 288.094C150.863 288.091 150.531 287.992 150.246 287.808C149.961 287.624 149.734 287.363 149.591 287.055C149.39 286.625 149.367 286.133 149.528 285.686C149.689 285.24 150.021 284.875 150.45 284.673C153.194 283.459 156.165 282.849 159.165 282.883C159.639 282.883 160.094 283.071 160.43 283.407C160.765 283.743 160.954 284.198 160.954 284.673C160.954 285.148 160.765 285.604 160.43 285.94C160.094 286.275 159.639 286.464 159.165 286.464C156.695 286.466 154.254 286.997 152.007 288.022C151.748 288.107 151.472 288.132 151.202 288.094Z" fill="#11999E"/>
<path d="M162.708 325.932C158.176 325.859 153.76 324.488 149.983 321.981C146.205 319.473 143.226 315.935 141.396 311.785C137.692 303.709 138.784 295.275 144.313 289.186C144.634 288.838 145.079 288.631 145.552 288.611C146.025 288.591 146.487 288.759 146.836 289.079C147.184 289.4 147.39 289.846 147.411 290.319C147.431 290.792 147.263 291.254 146.943 291.604C144.72 294.12 143.311 297.252 142.902 300.587C142.493 303.921 143.104 307.301 144.653 310.281C146.234 313.898 148.843 316.971 152.155 319.116C155.466 321.262 159.335 322.387 163.28 322.351C166.265 322.329 169.179 321.443 171.672 319.8C174.164 318.158 176.128 315.828 177.327 313.092C178.674 309.866 179.081 306.322 178.498 302.874C177.915 299.426 176.367 296.213 174.034 293.609C173.882 293.43 173.766 293.223 173.693 293C173.62 292.776 173.592 292.54 173.61 292.306C173.628 292.071 173.693 291.843 173.799 291.633C173.906 291.424 174.053 291.237 174.231 291.084C174.41 290.931 174.617 290.815 174.84 290.742C175.064 290.67 175.299 290.642 175.533 290.66C175.768 290.678 175.996 290.742 176.206 290.849C176.415 290.956 176.601 291.103 176.754 291.281C179.532 294.399 181.368 298.242 182.049 302.363C182.73 306.484 182.228 310.714 180.601 314.561C179.133 317.917 176.727 320.777 173.674 322.797C170.62 324.818 167.048 325.913 163.388 325.95L162.708 325.932Z" fill="#11999E"/>
<path d="M170.241 289.67C169.903 289.672 169.573 289.572 169.293 289.383C166.271 287.437 162.758 286.393 159.165 286.375C158.69 286.375 158.235 286.186 157.899 285.85C157.564 285.514 157.375 285.059 157.375 284.584C157.375 284.109 157.564 283.654 157.899 283.318C158.235 282.982 158.69 282.793 159.165 282.793C163.439 282.809 167.618 284.052 171.207 286.375C171.531 286.584 171.779 286.893 171.913 287.255C172.048 287.617 172.062 288.013 171.953 288.383C171.845 288.754 171.619 289.079 171.311 289.311C171.002 289.543 170.627 289.669 170.241 289.67V289.67Z" fill="#11999E"/>
<path d="M161.759 317.856C159.668 317.842 157.606 317.369 155.717 316.472C153.829 315.575 152.159 314.275 150.826 312.663C149.106 310.693 147.989 308.269 147.609 305.681C147.228 303.093 147.599 300.45 148.679 298.068C149.643 295.906 151.219 294.074 153.214 292.801C155.208 291.527 157.533 290.868 159.898 290.905V290.905C160.373 290.905 160.828 291.094 161.164 291.43C161.499 291.766 161.688 292.221 161.688 292.696C161.688 293.171 161.499 293.626 161.164 293.962C160.828 294.298 160.373 294.487 159.898 294.487C158.225 294.456 156.579 294.916 155.165 295.81C153.75 296.704 152.627 297.994 151.936 299.519C151.149 301.277 150.884 303.225 151.173 305.13C151.461 307.035 152.291 308.817 153.564 310.263C154.831 311.817 156.512 312.978 158.413 313.612C160.314 314.246 162.355 314.327 164.3 313.845C165.882 313.488 167.329 312.684 168.468 311.529C169.607 310.373 170.39 308.914 170.724 307.326C170.827 306.864 171.109 306.461 171.508 306.205C171.907 305.95 172.391 305.864 172.853 305.965C173.084 306.014 173.302 306.108 173.497 306.242C173.691 306.376 173.857 306.546 173.985 306.744C174.113 306.942 174.2 307.164 174.243 307.396C174.285 307.628 174.281 307.866 174.231 308.096C173.757 310.337 172.653 312.396 171.049 314.03C169.445 315.664 167.408 316.805 165.177 317.319C164.063 317.633 162.916 317.814 161.759 317.856Z" fill="#11999E"/>
<path d="M172.173 303.673C171.779 303.691 171.389 303.578 171.065 303.351C170.742 303.125 170.502 302.797 170.384 302.42C169.67 300.176 168.274 298.211 166.391 296.799C164.509 295.386 162.233 294.597 159.88 294.54C159.406 294.54 158.951 294.352 158.615 294.016C158.28 293.68 158.091 293.225 158.091 292.75C158.091 292.275 158.28 291.819 158.615 291.483C158.951 291.148 159.406 290.959 159.88 290.959C162.991 291.028 166.004 292.066 168.499 293.927C170.993 295.788 172.847 298.381 173.802 301.345C173.874 301.57 173.901 301.806 173.882 302.042C173.862 302.277 173.797 302.506 173.689 302.715C173.581 302.925 173.432 303.111 173.252 303.263C173.072 303.415 172.863 303.53 172.639 303.602C172.487 303.646 172.331 303.67 172.173 303.673V303.673Z" fill="#11999E"/>
<path d="M162.242 310.406C161.768 310.406 161.313 310.218 160.977 309.882C160.642 309.546 160.453 309.091 160.453 308.616C160.453 308.141 160.642 307.685 160.977 307.349C161.313 307.014 161.768 306.825 162.242 306.825C162.487 306.825 162.728 306.776 162.953 306.679C163.177 306.582 163.38 306.441 163.547 306.263C163.715 306.085 163.844 305.875 163.928 305.645C164.011 305.415 164.046 305.171 164.032 304.927C164.041 304.578 163.981 304.231 163.856 303.906C163.73 303.58 163.541 303.283 163.3 303.032C163.058 302.78 162.769 302.579 162.449 302.44C162.13 302.301 161.786 302.227 161.437 302.223C161.175 302.23 160.916 302.289 160.677 302.396C160.437 302.504 160.221 302.658 160.041 302.849C159.858 303.066 159.719 303.317 159.633 303.587C159.547 303.858 159.516 304.142 159.54 304.425C159.554 304.66 159.522 304.896 159.445 305.119C159.368 305.341 159.248 305.547 159.092 305.723C158.936 305.899 158.747 306.043 158.535 306.146C158.323 306.249 158.093 306.309 157.858 306.323C157.623 306.338 157.388 306.305 157.165 306.228C156.943 306.151 156.738 306.031 156.562 305.875C156.386 305.719 156.242 305.529 156.139 305.317C156.036 305.105 155.976 304.875 155.962 304.64C155.898 303.889 155.989 303.132 156.228 302.417C156.467 301.702 156.849 301.043 157.352 300.481C157.855 299.92 158.467 299.467 159.151 299.15C159.835 298.834 160.576 298.66 161.33 298.641C162.149 298.643 162.959 298.808 163.714 299.126C164.469 299.444 165.154 299.909 165.728 300.494C166.302 301.078 166.755 301.771 167.059 302.532C167.364 303.293 167.515 304.107 167.503 304.927C167.517 305.641 167.389 306.351 167.126 307.016C166.862 307.68 166.469 308.285 165.969 308.795C165.469 309.305 164.873 309.711 164.214 309.987C163.556 310.264 162.849 310.406 162.135 310.406H162.242Z" fill="#11999E"/>
<path d="M208.283 304.443C210.466 329.388 192.018 349.606 167.127 349.606H165.195C188.922 348.388 206.154 328.654 204.042 304.497C202.823 292.672 197.464 281.66 188.914 273.409C180.364 265.157 169.173 260.197 157.322 259.406C157.948 259.406 158.592 259.406 159.236 259.406C184.198 259.299 206.171 279.516 208.283 304.443Z" fill="#11999E"/>
<g opacity="0.4">
<path opacity="0.4" d="M208.283 304.443C210.466 329.388 192.018 349.606 167.127 349.606H165.195C188.922 348.388 206.154 328.654 204.042 304.497C202.823 292.672 197.464 281.66 188.914 273.409C180.364 265.157 169.173 260.197 157.322 259.406C157.948 259.406 158.592 259.406 159.236 259.406C184.198 259.299 206.171 279.516 208.283 304.443Z" fill="#11999E"/>
</g>
<path d="M244.822 84.3437C244.866 84.8783 244.937 85.4103 245.037 85.9374C245.712 89.3878 247.481 92.5279 250.083 94.8911C253.03 97.653 256.907 99.2061 260.944 99.2426H412.128C413.893 99.2782 415.647 98.9623 417.289 98.3133C418.93 97.6642 420.427 96.6949 421.69 95.4617C422.954 94.2286 423.96 92.7563 424.65 91.1304C425.34 89.5045 425.7 87.7576 425.709 85.9912C425.736 85.4602 425.736 84.9283 425.709 84.3974C425.288 80.388 423.42 76.67 420.455 73.9404C417.49 71.2108 413.633 69.6569 409.605 69.5701H258.385C256.49 69.5318 254.607 69.8975 252.864 70.6429C251.12 71.3884 249.555 72.4965 248.272 73.8938C246.989 75.2911 246.018 76.9455 245.423 78.7472C244.829 80.5489 244.623 82.4566 244.822 84.3437V84.3437Z" fill="#E4F9F5"/>
<path d="M425.71 85.8837C425.71 86.3633 425.674 86.8422 425.602 87.3163C425.069 83.3976 423.152 79.7992 420.198 77.1718C417.245 74.5443 413.449 73.0611 409.498 72.9904L248.758 73.3486C250.033 72.1081 251.539 71.1312 253.191 70.4736C254.843 69.8161 256.608 69.4908 258.385 69.5164H409.569C413.597 69.6032 417.455 71.1571 420.419 73.8867C423.384 76.6163 425.252 80.3342 425.674 84.3437C425.71 84.8562 425.722 85.3701 425.71 85.8837V85.8837Z" fill="#11999E"/>
<path d="M399.746 76.6793L400.39 83.8423L407.118 81.3352L408.71 84.9167L401.839 87.2088L406.778 93.2794L403.682 95.5537L398.869 89.2503L395.29 95.5537L391.908 93.2794L395.72 87.2088L388.562 84.9167L389.528 81.3352L396.775 83.7527L396.131 76.5898L399.746 76.6793Z" fill="#11999E"/>
<path d="M358.322 76.6793L358.966 83.8423L365.694 81.3353L367.304 84.9167L360.38 87.2626L365.318 93.3332L362.24 95.6074L357.427 89.304L353.848 95.6074L350.449 93.3332L354.278 87.2626L347.12 84.9705L348.087 81.389L355.333 83.8065L354.707 76.6435L358.322 76.6793Z" fill="#11999E"/>
<path d="M316.987 76.6793L317.614 83.8423L324.342 81.3353L325.952 84.9167L319.063 87.2089L324.002 93.2795L321.013 95.6074L316.2 89.304L312.621 95.6074L309.239 93.3332L313.051 87.2626L305.893 84.9705L306.877 81.389L314.035 83.8065L313.408 76.6435L316.987 76.6793Z" fill="#11999E"/>
<path d="M275.635 76.6793L276.261 83.8423L283.007 81.3352L284.6 84.9167L277.711 87.2088L282.667 93.2794L279.571 95.5537L274.758 89.2503L271.179 95.5537L267.797 93.2794L271.609 87.2088L264.451 84.9167L265.418 81.3352L272.575 83.7527L271.949 76.5898L275.635 76.6793Z" fill="#11999E"/>
<path d="M375.84 62.4967H368.79V64.2874H375.84V62.4967Z" fill="#11999E"/>
<path d="M406.134 62.4967H383.14V64.2874H406.134V62.4967Z" fill="#11999E"/>
<path opacity="0.8" d="M640.935 129.291L633.617 213.026C633.334 215.699 632.089 218.176 630.112 219.996C628.136 221.815 625.565 222.852 622.88 222.911H564.78C563.522 222.918 562.277 222.659 561.126 222.152C559.975 221.645 558.944 220.901 558.1 219.968C557.256 219.036 556.617 217.935 556.227 216.739C555.836 215.543 555.702 214.278 555.833 213.026L563.151 129.273C563.422 126.596 564.665 124.112 566.643 122.29C568.622 120.468 571.199 119.436 573.887 119.388H631.988C633.247 119.381 634.494 119.64 635.646 120.148C636.799 120.656 637.831 121.402 638.675 122.337C639.52 123.272 640.157 124.374 640.547 125.573C640.936 126.771 641.069 128.038 640.935 129.291Z" fill="#E4F9F5"/>
<path d="M568.448 142.793H568.287C567.815 142.752 567.378 142.526 567.073 142.163C566.768 141.801 566.619 141.332 566.658 140.859L567.338 133.195C567.379 132.749 567.585 132.333 567.916 132.032C568.247 131.73 568.68 131.564 569.128 131.565H577.216C577.69 131.565 578.145 131.754 578.481 132.09C578.817 132.426 579.005 132.881 579.005 133.356C579.005 133.831 578.817 134.287 578.481 134.622C578.145 134.958 577.69 135.147 577.216 135.147H570.774L570.237 141.164C570.197 141.61 569.991 142.025 569.659 142.327C569.328 142.629 568.896 142.795 568.448 142.793Z" fill="#1E9DA2"/>
<path d="M633.509 142.793H633.348C632.876 142.752 632.44 142.526 632.135 142.163C631.829 141.801 631.68 141.332 631.72 140.859L632.221 135.147H626.101C625.627 135.147 625.172 134.958 624.836 134.622C624.5 134.287 624.312 133.831 624.312 133.356C624.312 132.881 624.5 132.426 624.836 132.09C625.172 131.754 625.627 131.565 626.101 131.565H634.153C634.403 131.564 634.649 131.615 634.878 131.715C635.106 131.815 635.311 131.962 635.479 132.146C635.648 132.329 635.776 132.546 635.856 132.782C635.936 133.019 635.965 133.269 635.943 133.517L635.263 141.164C635.223 141.604 635.022 142.014 634.698 142.315C634.375 142.616 633.951 142.786 633.509 142.793V142.793Z" fill="#1E9DA2"/>
<path d="M571.525 200.58H563.437C563.192 200.58 562.949 200.528 562.725 200.43C562.5 200.331 562.298 200.187 562.131 200.007C561.964 199.825 561.836 199.61 561.756 199.376C561.676 199.141 561.645 198.893 561.666 198.646L562.328 190.982C562.368 190.507 562.596 190.068 562.96 189.76C563.324 189.453 563.795 189.303 564.269 189.344C564.744 189.384 565.183 189.611 565.49 189.976C565.797 190.34 565.947 190.812 565.907 191.287L565.406 196.999H571.525C572 196.999 572.455 197.188 572.791 197.523C573.126 197.859 573.315 198.315 573.315 198.79C573.315 199.265 573.126 199.72 572.791 200.056C572.455 200.392 572 200.58 571.525 200.58Z" fill="#1E9DA2"/>
<path d="M628.445 200.58H620.375C619.901 200.58 619.446 200.392 619.11 200.056C618.774 199.72 618.586 199.265 618.586 198.79C618.586 198.315 618.774 197.859 619.11 197.523C619.446 197.188 619.901 196.999 620.375 196.999H626.817L627.336 190.982C627.377 190.51 627.603 190.073 627.966 189.768C628.328 189.462 628.796 189.313 629.268 189.353C629.74 189.394 630.177 189.62 630.482 189.983C630.787 190.345 630.936 190.814 630.897 191.287L630.235 198.951C630.194 199.397 629.988 199.812 629.657 200.114C629.326 200.416 628.893 200.582 628.445 200.58Z" fill="#1E9DA2"/>
<path d="M622.287 171.708C626.326 156.031 619.392 140.688 606.799 137.438C594.205 134.188 580.722 144.262 576.682 159.939C572.643 175.616 579.577 190.959 592.17 194.209C604.763 197.459 618.247 187.385 622.287 171.708Z" fill="white"/>
<path d="M606.49 210.394H583.317L585.357 187.204H608.53L606.49 210.394Z" fill="white"/>
<path d="M633.617 213.026C633.334 215.699 632.089 218.176 630.112 219.996C628.136 221.815 625.565 222.852 622.88 222.911H564.78C563.522 222.918 562.277 222.659 561.126 222.152C559.975 221.645 558.944 220.901 558.1 219.968C557.256 219.036 556.617 217.935 556.227 216.739C555.836 215.543 555.702 214.278 555.833 213.026C555.833 213.026 582.53 204.574 585.822 204.574H606.454L633.617 213.026Z" fill="white"/>
<path d="M644.292 153.762L641.584 186.654L643.367 186.801L646.075 153.91L644.292 153.762Z" fill="#1E9DA2"/>
<path d="M646.192 138.711L645.66 145.172L647.444 145.319L647.975 138.858L646.192 138.711Z" fill="#1E9DA2"/>
<path d="M583.836 338.503H576.786V340.294H583.836V338.503Z" fill="#1E9DA2"/>
<path d="M614.13 338.503H591.137V340.294H614.13V338.503Z" fill="#1E9DA2"/>
<path d="M656.216 307.935L651.761 358.971C651.529 361.227 650.48 363.319 648.812 364.854C647.144 366.388 644.972 367.257 642.707 367.298C641.641 367.317 640.583 367.109 639.604 366.687C638.624 366.265 637.746 365.64 637.026 364.852C636.307 364.065 635.764 363.133 635.432 362.119C635.1 361.105 634.987 360.032 635.102 358.971L639.522 307.935C639.933 304.129 639.531 300.278 638.342 296.639C637.153 293 635.205 289.655 632.626 286.827C630.047 283.999 626.897 281.752 623.384 280.236C619.872 278.719 616.077 277.967 612.252 278.03H594.072C585.94 278.184 578.147 281.31 572.161 286.819C566.174 292.328 562.41 299.839 561.577 307.935L559.787 328.779H543.146L544.935 307.935C547.172 282.256 569.879 261.376 595.521 261.376H613.772C619.728 261.278 625.635 262.448 631.104 264.81C636.572 267.171 641.476 270.669 645.49 275.073C649.505 279.476 652.537 284.683 654.386 290.349C656.235 296.015 656.859 302.01 656.216 307.935V307.935Z" fill="#E9FAF7"/>
<g opacity="0.5">
<path opacity="0.5" d="M656.216 307.935L651.761 358.971C651.529 361.227 650.48 363.319 648.812 364.854C647.144 366.388 644.972 367.257 642.707 367.298C641.641 367.317 640.583 367.109 639.604 366.687C638.624 366.265 637.746 365.64 637.026 364.852C636.307 364.065 635.764 363.133 635.432 362.119C635.1 361.105 634.987 360.032 635.102 358.971L639.522 307.935C639.933 304.129 639.531 300.278 638.342 296.639C637.153 293 635.205 289.655 632.626 286.827C630.047 283.999 626.897 281.752 623.384 280.236C619.872 278.719 616.077 277.967 612.252 278.03H594.072C585.94 278.184 578.147 281.31 572.161 286.819C566.174 292.328 562.41 299.839 561.577 307.935L559.787 328.779H543.146L544.935 307.935C547.172 282.256 569.879 261.376 595.521 261.376H613.772C619.728 261.278 625.635 262.448 631.104 264.81C636.572 267.171 641.476 270.669 645.49 275.073C649.505 279.476 652.537 284.683 654.386 290.349C656.235 296.015 656.859 302.01 656.216 307.935V307.935Z" fill="white"/>
</g>
<path d="M657.415 357.109L648.737 456.566C648.422 459.65 646.987 462.511 644.705 464.607C642.423 466.703 639.452 467.888 636.354 467.937H536.973C535.517 467.964 534.073 467.68 532.735 467.104C531.398 466.528 530.198 465.674 529.217 464.598C528.235 463.522 527.493 462.25 527.041 460.865C526.589 459.48 526.437 458.015 526.594 456.566L535.291 357.109C535.491 355.126 536.156 353.218 537.231 351.541C538.307 349.864 539.764 348.464 541.482 347.457C543.347 346.314 545.486 345.695 547.673 345.666H647.037C649.067 345.655 651.059 346.22 652.781 347.295C654.388 348.339 655.674 349.809 656.492 351.543C657.311 353.276 657.63 355.204 657.415 357.109V357.109Z" fill="#1E9DA2"/>
<path d="M554.079 400.552L579.9 440.324L665.056 355.103C665.187 354.945 665.258 354.745 665.255 354.539C665.252 354.334 665.175 354.136 665.039 353.982C664.902 353.828 664.715 353.729 664.511 353.701C664.308 353.673 664.101 353.72 663.929 353.832L582.781 417.492L567.446 392.762L554.079 400.552Z" fill="white"/>
<path d="M147.444 208.209H82.7048C79.7093 208.155 76.8375 207.004 74.6318 204.975C72.4262 202.946 71.0396 200.179 70.7339 197.196L65.1332 132.443C64.9777 131.041 65.1228 129.621 65.5589 128.28C65.995 126.938 66.712 125.705 67.662 124.663C68.6121 123.621 69.7733 122.793 71.0683 122.236C72.3632 121.678 73.7621 121.403 75.1715 121.43H139.839C142.824 121.498 145.68 122.655 147.872 124.683C150.063 126.711 151.438 129.471 151.739 132.443L157.393 197.16C157.553 198.557 157.414 199.973 156.986 201.312C156.558 202.652 155.849 203.885 154.909 204.93C153.968 205.975 152.816 206.808 151.529 207.373C150.242 207.938 148.85 208.223 147.444 208.209V208.209Z" fill="#E4F9F5"/>
<path d="M70.7697 171.356C70.7697 171.356 93.7631 139.319 110.691 140.143C127.618 140.967 155.747 170.586 155.747 170.586C155.747 170.586 114.287 192.379 70.7697 171.356Z" fill="white"/>
<path d="M71.5033 171.839L70.054 170.8C70.9844 169.493 92.9042 139.194 110.046 139.194H110.744C127.851 140.018 155.228 168.705 156.391 169.923L155.103 171.159C154.817 170.872 127.045 141.773 110.655 140.985H110.046C93.7631 141.021 71.7181 171.57 71.5033 171.839Z" fill="#263238"/>
<path d="M68.3898 172.484C64.9184 172.484 60.4092 171.194 58.8167 166.288C58.7433 166.062 58.7624 165.817 58.8697 165.605C58.9771 165.394 59.164 165.233 59.3893 165.16C59.5008 165.121 59.619 165.105 59.7368 165.113C59.8546 165.121 59.9696 165.152 60.0749 165.206C60.1802 165.259 60.2735 165.334 60.3494 165.424C60.4253 165.515 60.4822 165.62 60.5166 165.733C62.5744 172.072 70.2687 170.55 70.5908 170.478C70.8228 170.435 71.0624 170.484 71.2592 170.614C71.4561 170.745 71.5949 170.946 71.6465 171.177C71.67 171.292 71.6706 171.41 71.6483 171.526C71.6259 171.641 71.5811 171.751 71.5163 171.849C71.4515 171.948 71.368 172.032 71.2706 172.098C71.1732 172.164 71.0638 172.21 70.9486 172.233C70.1059 172.4 69.2489 172.484 68.3898 172.484V172.484Z" fill="#263238"/>
<path d="M82.0427 158.731C81.8431 158.735 81.6478 158.672 81.488 158.552C81.2196 158.337 74.8674 153.43 73.2569 148.434C73.1835 148.209 73.2026 147.963 73.31 147.752C73.4173 147.54 73.6042 147.38 73.8295 147.306C74.055 147.237 74.2983 147.259 74.5084 147.365C74.7185 147.472 74.8792 147.656 74.9568 147.879C76.4062 152.338 82.508 157.083 82.5796 157.119C82.7666 157.264 82.8886 157.478 82.9188 157.713C82.949 157.948 82.8849 158.185 82.7406 158.373C82.6591 158.482 82.5539 158.57 82.433 158.632C82.3121 158.694 82.1786 158.728 82.0427 158.731Z" fill="#263238"/>
<path d="M95.1767 146.536C94.9424 146.522 94.7219 146.421 94.5593 146.252C94.3967 146.082 94.3041 145.858 94.2999 145.623C93.255 141.722 91.958 137.894 90.417 134.162C89.9696 132.98 89.6476 132.121 89.576 131.906C89.5404 131.792 89.5279 131.672 89.5393 131.553C89.5508 131.434 89.5859 131.318 89.6426 131.213C89.6993 131.108 89.7764 131.015 89.8694 130.941C89.9625 130.866 90.0696 130.81 90.1844 130.778C90.2972 130.745 90.4153 130.734 90.5321 130.747C90.6489 130.76 90.7621 130.795 90.8651 130.852C90.9681 130.909 91.059 130.985 91.1325 131.076C91.2061 131.168 91.2609 131.273 91.2938 131.386C91.2938 131.601 91.6695 132.389 92.0811 133.517C94.5862 140.089 96.1251 144.405 96.0893 145.659C96.0894 145.777 96.0656 145.894 96.0193 146.003C95.973 146.112 95.9052 146.21 95.82 146.292C95.7347 146.374 95.6338 146.438 95.5233 146.48C95.4127 146.522 95.2948 146.541 95.1767 146.536V146.536Z" fill="#263238"/>
<path d="M110.691 141.038C110.468 141.031 110.254 140.944 110.09 140.793C109.926 140.642 109.822 140.437 109.796 140.215L108.543 125.889C108.522 125.651 108.596 125.415 108.748 125.232C108.901 125.049 109.12 124.934 109.357 124.913C109.595 124.891 109.831 124.965 110.014 125.118C110.197 125.271 110.311 125.49 110.333 125.728L111.585 140.161C111.601 140.395 111.526 140.625 111.376 140.805C111.226 140.985 111.013 141.101 110.78 141.128L110.691 141.038Z" fill="#263238"/>
<path d="M158.431 171.499C157.556 171.503 156.681 171.431 155.819 171.284C155.703 171.26 155.594 171.214 155.497 171.149C155.399 171.083 155.316 170.998 155.251 170.9C155.186 170.802 155.141 170.692 155.119 170.577C155.097 170.461 155.097 170.343 155.121 170.227C155.14 170.112 155.182 170.001 155.246 169.903C155.309 169.804 155.392 169.719 155.489 169.654C155.586 169.589 155.696 169.544 155.811 169.522C155.926 169.501 156.044 169.503 156.159 169.529C156.159 169.529 160.542 170.371 163.227 168.472C163.801 168.054 164.28 167.519 164.631 166.901C164.983 166.284 165.199 165.599 165.266 164.891C165.284 164.773 165.325 164.661 165.386 164.559C165.447 164.457 165.528 164.368 165.623 164.297C165.719 164.227 165.827 164.175 165.943 164.147C166.058 164.118 166.178 164.112 166.295 164.13C166.413 164.148 166.526 164.188 166.627 164.25C166.729 164.311 166.818 164.392 166.889 164.487C166.959 164.583 167.01 164.691 167.039 164.807C167.068 164.922 167.073 165.042 167.056 165.16C166.948 166.102 166.643 167.011 166.163 167.828C165.682 168.646 165.035 169.353 164.264 169.905C162.526 171.014 160.492 171.57 158.431 171.499V171.499Z" fill="#263238"/>
<path d="M142.362 157.782C142.237 157.783 142.112 157.756 141.998 157.703C141.883 157.651 141.782 157.574 141.7 157.477C141.617 157.394 141.55 157.295 141.505 157.186C141.459 157.077 141.436 156.96 141.436 156.842C141.436 156.723 141.459 156.606 141.505 156.497C141.55 156.388 141.617 156.289 141.7 156.206C141.7 156.206 147.069 151.478 147.641 147.073C147.681 146.84 147.809 146.631 147.999 146.491C148.19 146.351 148.427 146.29 148.661 146.321C148.777 146.339 148.889 146.379 148.99 146.44C149.091 146.5 149.179 146.581 149.248 146.675C149.318 146.77 149.369 146.878 149.397 146.992C149.425 147.107 149.43 147.225 149.413 147.342C148.661 152.392 143.114 157.334 142.881 157.549C142.742 157.686 142.558 157.768 142.362 157.782V157.782Z" fill="#263238"/>
<path d="M127.242 147.378H127.081C126.848 147.334 126.641 147.201 126.504 147.007C126.367 146.813 126.311 146.574 126.348 146.339C126.348 146.232 128.316 134.717 128.674 132.353C128.691 132.236 128.732 132.123 128.793 132.021C128.854 131.919 128.935 131.83 129.031 131.76C129.126 131.689 129.235 131.638 129.35 131.609C129.465 131.58 129.585 131.575 129.703 131.592C129.82 131.61 129.933 131.651 130.035 131.712C130.137 131.773 130.225 131.854 130.296 131.949C130.367 132.045 130.418 132.154 130.446 132.269C130.475 132.384 130.481 132.504 130.463 132.622C130.105 135.004 128.155 146.536 128.137 146.643C128.099 146.852 127.988 147.04 127.824 147.175C127.66 147.309 127.454 147.381 127.242 147.378V147.378Z" fill="#263238"/>
<path d="M127.75 175.107C135.158 167.363 134.311 154.52 125.859 146.423C117.407 138.326 104.55 138.039 97.1418 145.784C89.734 153.528 90.5806 166.37 99.0328 174.467C107.485 182.565 120.342 182.851 127.75 175.107Z" fill="#11999E"/>
<path opacity="0.3" d="M120.854 160.432C120.881 159.979 120.881 159.524 120.854 159.071C120.614 156.736 119.527 154.571 117.799 152.984C116.072 151.397 113.823 150.498 111.478 150.458C110.376 150.438 109.282 150.654 108.27 151.091C107.258 151.527 106.35 152.174 105.607 152.989C104.864 153.804 104.302 154.768 103.96 155.816C103.618 156.865 103.503 157.975 103.623 159.071C103.652 159.533 103.736 159.99 103.873 160.432H92.2063C91.9212 157.85 92.1891 155.237 92.9924 152.766C93.7957 150.296 95.1157 148.025 96.8647 146.105C98.6137 144.185 100.751 142.661 103.135 141.633C105.519 140.605 108.095 140.097 110.691 140.143C116.209 140.245 121.5 142.365 125.565 146.103C129.629 149.84 132.186 154.937 132.754 160.432H120.854Z" fill="black"/>
<path opacity="0.7" d="M120.836 159.071C120.863 159.524 120.863 159.979 120.836 160.432C120.708 162.425 119.815 164.292 118.345 165.643C116.875 166.994 114.941 167.726 112.945 167.685C110.842 167.645 108.81 166.914 107.163 165.603C105.517 164.292 104.348 162.475 103.837 160.432C103.7 159.99 103.616 159.533 103.587 159.071C103.467 157.975 103.582 156.865 103.924 155.816C104.266 154.768 104.828 153.804 105.571 152.989C106.314 152.174 107.222 151.527 108.234 151.091C109.246 150.654 110.34 150.438 111.442 150.458C113.79 150.494 116.043 151.39 117.775 152.978C119.506 154.565 120.596 156.733 120.836 159.071Z" fill="black"/>
<path opacity="0.7" d="M125.507 150.619C125.603 151.513 125.509 152.417 125.229 153.271C124.95 154.126 124.492 154.911 123.886 155.575C123.28 156.239 122.54 156.766 121.715 157.122C120.89 157.478 119.999 157.654 119.101 157.639C117.193 157.601 115.365 156.866 113.961 155.573C112.557 154.28 111.674 152.518 111.478 150.619C111.378 149.724 111.471 148.819 111.749 147.963C112.027 147.107 112.485 146.321 113.091 145.656C113.698 144.992 114.439 144.464 115.266 144.11C116.092 143.755 116.985 143.581 117.884 143.599C119.793 143.633 121.623 144.367 123.027 145.66C124.432 146.954 125.314 148.718 125.507 150.619Z" fill="white"/>
<path d="M97.7892 113.425H90.7391V115.216H97.7892V113.425Z" fill="#11999E"/>
<path d="M128.101 113.425H105.108V115.216H128.101V113.425Z" fill="#11999E"/>
<path d="M423.008 244.633L423.616 245.367L424.439 246.316C425.029 246.943 425.602 247.605 426.228 248.214C427.463 249.503 428.805 250.757 430.165 252.028C432.882 254.536 435.732 256.897 438.7 259.102C441.724 261.358 444.909 263.417 448.095 265.459C449.884 266.426 451.351 267.447 453.033 268.378L456.916 270.527C457.481 270.776 458.115 270.814 458.706 270.634C459.958 270.258 467.151 263.131 469.442 260.481C474.524 254.661 482.218 246.996 486.369 240.478L491.004 246.871C488.074 254.857 484.187 262.458 479.426 269.506C476.867 273.316 473.796 276.757 470.301 279.731C468.202 281.5 465.834 282.921 463.286 283.939C460.057 285.229 456.51 285.498 453.123 284.709C452.247 284.496 451.391 284.208 450.564 283.85L448.953 283.151L446.055 281.826C444.104 280.967 442.225 279.928 440.329 278.979C436.536 276.954 432.857 274.724 429.306 272.299C425.727 269.836 422.292 267.17 419.017 264.313C417.317 262.826 415.796 261.322 414.24 259.693C413.47 258.887 412.683 258.045 411.931 257.168L410.822 255.807C410.41 255.305 410.106 254.929 409.551 254.159L423.008 244.633Z" fill="#FFB573"/>
<path d="M485.636 241.463L493.938 223.699L501.865 237.917C501.865 237.917 496.658 246.871 491.004 246.871L485.636 241.463Z" fill="#FFB573"/>
<path d="M503.35 216.321L511.725 227.101L501.919 237.899L493.992 223.699L503.35 216.321Z" fill="#FFB573"/>
<path d="M500.434 242.806H513.621C513.993 242.803 514.351 242.663 514.625 242.411C514.9 242.16 515.071 241.816 515.106 241.445L517.844 209.803C517.864 209.596 517.841 209.387 517.775 209.19C517.709 208.993 517.603 208.811 517.463 208.658C517.323 208.504 517.153 208.382 516.963 208.298C516.772 208.215 516.567 208.172 516.359 208.173H503.189C502.815 208.176 502.454 208.319 502.18 208.575C501.905 208.83 501.735 209.178 501.704 209.552L498.931 241.176C498.913 241.384 498.939 241.593 499.007 241.791C499.075 241.988 499.183 242.169 499.324 242.322C499.465 242.475 499.637 242.597 499.828 242.681C500.019 242.764 500.225 242.807 500.434 242.806V242.806Z" fill="#11999E"/>
<path opacity="0.3" d="M500.559 239.636H513.765L516.252 211.361H503.028L500.559 239.636Z" fill="#E9FAF7"/>
<path d="M499.718 235.625L502.062 234.425C503.255 233.818 504.357 233.047 505.337 232.133L505.766 230.575C505.516 230.16 505.139 229.837 504.691 229.653C504.243 229.47 503.748 229.435 503.279 229.555L501.328 230.092L491.648 230.826L491.415 234.909L494.242 239.278H495.209C496.274 239.316 497.317 238.967 498.146 238.296C498.975 237.624 499.533 236.676 499.718 235.625V235.625Z" fill="#FFB573"/>
<path d="M406.116 227.352C412.826 226.134 460.155 267.196 460.155 267.196L446.126 287.789C446.126 287.789 394.378 251.724 396.024 243.021C397.616 233.87 396.346 229.143 406.116 227.352Z" fill="#263238"/>
<path opacity="0.2" d="M412.092 240.478L411.573 261.967C416.942 266.139 436.338 281.02 436.338 281.02L412.092 240.478Z" fill="black"/>
<path d="M374.551 654.102L390.441 655.66L395.469 618.825L379.597 617.267L374.551 654.102Z" fill="#FFB573"/>
<path d="M218.303 437.96L214.224 453.432L248.58 468.242L255.683 452.537L218.303 437.96Z" fill="#FFB573"/>
<path d="M401.803 658.919C403.169 659.087 404.552 658.784 405.722 658.06C405.975 657.84 406.172 657.562 406.296 657.251C406.421 656.94 406.469 656.603 406.438 656.269C406.438 656.06 406.381 655.855 406.274 655.675C406.167 655.496 406.013 655.348 405.83 655.248C403.915 654.102 397.437 657.182 396.704 657.523C396.634 657.556 396.575 657.609 396.537 657.677C396.498 657.744 396.482 657.822 396.489 657.899C396.499 657.978 396.534 658.052 396.589 658.11C396.643 658.167 396.715 658.206 396.793 658.221C398.439 658.606 400.116 658.84 401.803 658.919V658.919ZM404.684 655.714C404.934 655.695 405.183 655.751 405.4 655.875C405.475 655.914 405.539 655.974 405.583 656.046C405.627 656.119 405.65 656.202 405.651 656.287C405.67 656.511 405.636 656.736 405.552 656.945C405.468 657.153 405.336 657.339 405.168 657.487C404.183 658.329 401.589 658.4 398.01 657.72C400.12 656.665 402.396 655.98 404.738 655.696L404.684 655.714Z" fill="#1E9DA2"/>
<path d="M396.865 658.149H397.008C398.94 657.344 402.823 654.013 402.573 652.186C402.503 651.869 402.326 651.585 402.072 651.383C401.818 651.181 401.502 651.073 401.177 651.076C400.805 651.007 400.421 651.019 400.054 651.112C399.686 651.204 399.343 651.376 399.048 651.613C396.99 653.207 396.507 657.523 396.471 657.684C396.454 657.749 396.453 657.817 396.469 657.883C396.485 657.949 396.516 658.009 396.561 658.06C396.602 658.095 396.651 658.121 396.703 658.137C396.756 658.152 396.811 658.156 396.865 658.149V658.149ZM400.819 651.757H401.034C401.732 651.864 401.768 652.133 401.768 652.222C401.929 653.315 399.28 655.965 397.294 657.021C397.484 655.206 398.249 653.5 399.477 652.151C399.875 651.863 400.369 651.741 400.855 651.81L400.819 651.757Z" fill="#1E9DA2"/>
<path d="M389.654 649.249L375.339 649.858C375.03 649.861 374.734 649.978 374.506 650.186C374.278 650.394 374.135 650.679 374.104 650.987L370.668 670.989C370.649 671.329 370.697 671.67 370.81 671.991C370.923 672.313 371.099 672.608 371.327 672.862C371.555 673.115 371.831 673.32 372.138 673.466C372.446 673.612 372.78 673.695 373.12 673.711H373.406C379.651 673.389 382.657 672.923 390.566 672.654C395.415 672.493 410.249 674.248 416.87 672.744C423.491 671.24 422.238 664.668 419.393 664.721C410.196 664.9 399.585 658.902 394.342 651.882C393.429 651.291 390.656 649.196 389.654 649.249Z" fill="#263238"/>
<path d="M221.542 455.456L228.843 443.046C229.008 442.784 229.069 442.468 229.012 442.163C228.956 441.858 228.787 441.585 228.539 441.399L213.651 427.664C213.098 427.273 212.414 427.114 211.745 427.221C211.076 427.328 210.476 427.693 210.072 428.237L209.911 428.487C206.798 433.86 205.563 436.689 201.501 443.476C198.996 447.648 189.441 459.234 187.186 465.556C184.932 471.877 191.051 474.509 192.554 472.038C197.404 464.195 208.193 458.536 216.961 457.856C217.802 457.533 221.041 456.333 221.542 455.456Z" fill="#263238"/>
<path opacity="0.2" d="M395.469 618.825L392.875 637.825L377.003 636.267L379.58 617.285L395.469 618.825Z" fill="black"/>
<path opacity="0.2" d="M266.241 456.369L258.904 472.934L236.805 463.156L242.442 447.38L266.241 456.369Z" fill="black"/>
<path d="M416.262 246.244C425.334 261.68 414.24 274.699 404.971 320.828L345.17 320.99C346.136 296.134 346.029 276.042 335.436 227.137C335.161 225.932 335.161 224.68 335.437 223.476C335.714 222.271 336.259 221.144 337.031 220.18C337.804 219.216 338.784 218.438 339.899 217.907C341.014 217.375 342.235 217.102 343.47 217.109C348.409 217.109 354.618 217.27 360.934 217.915C370.897 218.73 380.792 220.232 390.548 222.41C395.839 223.687 401.04 225.314 406.116 227.28C409.194 228.319 412.898 236.7 416.262 246.244Z" fill="#263238"/>
<path d="M407.189 323.944C407.189 323.944 440.776 421.128 439.971 467.866C439.506 494.637 437.484 544.527 429.413 579.608C422.829 608.26 395.988 626.525 395.988 626.525L374.516 625.254C374.516 625.254 362.885 581.56 364.907 564.172C368.933 529.557 380.868 503.555 379.418 471.77C377.128 419.731 361.739 323.138 361.739 323.138L407.189 323.944Z" fill="#1E9DA2"/>
<path d="M370.185 630.859L400.515 632.649L403.289 623.535L369.398 620.401L370.185 630.859Z" fill="#263238"/>
<path opacity="0.2" d="M374.032 520.281C374.032 520.281 374.032 520.102 374.211 520.119C393.268 521.91 406.42 494.458 403.289 456.871L393.179 361.066L374.032 520.281Z" fill="black"/>
<path d="M392.123 323.138C392.123 323.138 418.82 494.028 363.314 513.261C334.022 524.364 309.382 512.33 280.198 499.401C263.324 491.933 242.245 471.716 242.245 471.716L250.351 449.636C264.93 445.691 280.184 444.921 295.085 447.38C323.536 451.785 324.735 459.915 334.845 453.773C356.103 401.197 319.528 359.634 344.383 323.049L392.123 323.138Z" fill="#1E9DA2"/>
<path d="M251.926 445.446L241.1 474.08L249.081 480.186L261.946 446.108L251.926 445.446Z" fill="#263238"/>
<path d="M247.47 291.031C244.768 295.024 231.062 292.32 231.062 292.32L228.145 275.326L244.983 282.077L247.47 291.031Z" fill="#FFB573"/>
<path d="M231.545 274.448L234.157 292.105L224.047 293.609C223.499 293.659 222.952 293.504 222.513 293.173C222.073 292.842 221.772 292.359 221.667 291.818L217.784 279.283C217.718 278.992 217.767 278.686 217.92 278.429C218.074 278.172 218.32 277.984 218.608 277.904L231.545 274.448Z" fill="#FFB573"/>
<path d="M227.018 282.453L232.779 283.474L238.237 279.373L236.126 277.869C234.695 276.849 233.688 275.339 233.298 273.625C232.892 271.829 232.647 270.002 232.565 268.163V267.554C232.496 267.014 232.252 266.512 231.871 266.123C231.489 265.735 230.992 265.483 230.453 265.405L229.022 266.462C228.127 268.414 228.771 270.688 228.664 272.21L228.431 275.165L226.123 276.167L227.018 282.453Z" fill="#FFB573"/>
<path d="M338.317 223.77L304.462 270.33L242.281 282.614V292.821C242.281 292.821 300.722 297.155 313.856 289.508C326.99 281.862 349.017 235.482 349.017 235.482L338.317 223.77Z" fill="#FFB573"/>
<path d="M337.923 134.234C323.715 129.47 307.235 138.299 300.74 151.801C294.244 165.303 296.517 181.867 303.835 194.94C306.036 198.897 308.667 202.622 310.474 206.758C312.482 210.859 312.922 215.554 311.709 219.956C310.241 224.236 308.738 226.976 303.442 226.295C303.442 226.295 303.442 223.359 305.464 223.717C305.464 223.717 301.169 226.098 299.487 224.54C301.438 227.549 306.645 226.457 308.309 223.269C310.796 218.524 306.215 212.095 300.847 212.149C295.479 212.202 291.113 217.646 291.292 223C291.516 225.678 292.468 228.244 294.045 230.419C295.622 232.594 297.764 234.295 300.239 235.339C298.788 235.578 297.3 235.33 296.005 234.633C294.71 233.937 293.682 232.831 293.081 231.489C295.515 237.864 303.46 240.675 310.17 239.422C316.88 238.168 322.552 233.87 327.813 229.519C334.97 223.645 342.289 216.214 342.128 207.027C341.967 200.169 337.565 194.277 333.861 188.493C330.157 182.709 326.918 175.653 329.28 169.225C331.266 163.763 336.67 160.468 341.43 157.137C344.866 154.755 351.844 149.437 351.021 144.405C350.18 139.606 341.949 135.577 337.923 134.234Z" fill="#263238"/>
<path d="M305.911 293.609L296.535 268.772L298.682 268.951C300.419 269.097 302.162 268.738 303.701 267.919C305.24 267.1 306.51 265.854 307.36 264.331C314.518 251.581 333.002 219.222 338.209 217.61C345.635 215.408 353.276 221.353 356.103 230.145C358.232 236.61 336.42 264.331 326.364 280.089C317.435 294.039 305.911 293.609 305.911 293.609Z" fill="#263238"/>
<path d="M214.456 463.622V463.819C214.588 464.163 214.805 464.469 215.086 464.707C215.368 464.945 215.705 465.107 216.067 465.18C216.284 465.248 216.515 465.259 216.737 465.212C216.96 465.165 217.166 465.061 217.337 464.911C218.84 463.532 217.874 457.748 217.784 457.175C217.775 457.101 217.742 457.031 217.69 456.977C217.639 456.922 217.572 456.885 217.498 456.871C217.429 456.862 217.358 456.871 217.293 456.895C217.227 456.92 217.169 456.961 217.122 457.014C215.906 458.733 213.973 461.795 214.456 463.622ZM217.212 458.249C217.534 460.542 217.677 463.622 216.836 464.374C216.748 464.422 216.65 464.448 216.55 464.448C216.45 464.448 216.351 464.422 216.264 464.374C216.023 464.329 215.798 464.223 215.61 464.066C215.422 463.909 215.277 463.707 215.19 463.478C214.868 462.511 215.548 460.542 217.212 458.214V458.249Z" fill="#1E9DA2"/>
<path d="M217.23 457.927C217.695 459.861 219.52 463.156 221.131 463.55C221.424 463.609 221.729 463.567 221.995 463.43C222.262 463.294 222.474 463.071 222.598 462.798C222.738 462.542 222.82 462.259 222.839 461.968C222.857 461.677 222.812 461.386 222.705 461.115C221.972 458.894 217.749 457.068 217.57 456.978C217.512 456.947 217.447 456.93 217.382 456.93C217.316 456.93 217.252 456.947 217.194 456.978C217.141 457.021 217.101 457.076 217.076 457.138C217.051 457.201 217.042 457.269 217.051 457.336C217.095 457.538 217.155 457.735 217.23 457.927V457.927ZM222.097 461.509C222.133 461.667 222.138 461.831 222.11 461.991C222.083 462.15 222.023 462.303 221.936 462.44C221.703 462.87 221.471 462.87 221.292 462.834C220.2 462.619 218.536 459.915 217.999 458.035C219.377 458.733 221.578 460.04 222.043 461.401C222.031 461.436 222.031 461.474 222.043 461.509H222.097Z" fill="#1E9DA2"/>
<path d="M344.955 317.963L343.291 323.783C343.076 324.231 343.595 324.696 344.347 324.679H406.08C406.671 324.679 407.154 324.374 407.189 324.016L407.762 318.196C407.762 317.802 407.297 317.444 406.653 317.462H345.993C345.791 317.446 345.589 317.484 345.406 317.572C345.224 317.66 345.068 317.795 344.955 317.963V317.963Z" fill="#E4F9F5"/>
<path d="M356.801 325.216H355.011C354.671 325.216 354.385 325.037 354.421 324.822L355.226 317.247C355.226 317.032 355.566 316.853 355.924 316.853H357.713C358.053 316.853 358.322 317.032 358.304 317.265L357.499 324.822C357.391 325.037 357.069 325.234 356.801 325.216Z" fill="#1E9DA2"/>
<path d="M401.302 325.216H399.513C399.191 325.216 398.905 325.037 398.94 324.822L399.746 317.265C399.746 317.032 400.068 316.853 400.408 316.853H402.197C402.537 316.853 402.823 317.032 402.788 317.247L401.982 324.804C401.947 325.037 401.66 325.216 401.302 325.216Z" fill="#1E9DA2"/>
<path d="M380.886 325.18H379.096C378.756 325.18 378.47 325.001 378.506 324.786L379.311 317.229C379.311 316.996 379.651 316.817 379.991 316.817H381.78C382.12 316.817 382.389 316.996 382.371 317.211L381.548 324.768C381.548 325.001 381.244 325.18 380.886 325.18Z" fill="#1E9DA2"/>
<path d="M363.726 185.323C365.622 195.083 367.483 212.704 360.863 218.004C360.863 218.004 363.511 228.015 381.208 230.683C400.748 233.62 390.495 222.481 390.495 222.481C379.848 218.273 380.116 210.573 381.941 203.481L363.726 185.323Z" fill="#FFB573"/>
<path d="M360.934 217.915C370.377 218.514 379.761 219.819 389.009 221.819L402.394 225.812C404.774 230.611 400.873 240.478 389.672 242.358C389.672 242.358 361.453 246.244 353.133 217.163L360.934 217.915Z" fill="#FFB573"/>
<path opacity="0.2" d="M371.116 192.755L381.852 203.499C381.4 205.163 381.106 206.866 380.975 208.585C376.895 207.385 370.346 202.89 369.899 198.593C369.904 196.584 370.318 194.598 371.116 192.755V192.755Z" fill="black"/>
<path d="M351.773 173.003C356.568 188.153 358.25 194.671 368.074 200.634C382.711 209.588 400.283 200.419 400.104 184.159C399.96 169.511 392.177 147.199 375.553 144.763C371.899 144.215 368.166 144.612 364.709 145.916C361.251 147.22 358.185 149.388 355.801 152.213C353.417 155.038 351.796 158.427 351.091 162.057C350.386 165.686 350.62 169.436 351.773 172.949V173.003Z" fill="#FFB573"/>
<path d="M387.9 170.639C389.593 173.298 391.646 175.709 394.002 177.802C393.451 178.399 392.776 178.869 392.025 179.178C391.274 179.487 390.465 179.629 389.654 179.593L387.9 170.639Z" fill="#ED893E"/>
<path d="M386.2 187.687C386.806 187.62 387.405 187.501 387.99 187.329C388.035 187.318 388.079 187.299 388.117 187.272C388.155 187.244 388.188 187.21 388.213 187.17C388.238 187.13 388.255 187.085 388.262 187.039C388.27 186.993 388.269 186.945 388.258 186.899C388.233 186.805 388.172 186.725 388.088 186.675C388.005 186.624 387.905 186.609 387.811 186.631C386.283 187.052 384.678 187.109 383.125 186.798C381.571 186.488 380.112 185.817 378.864 184.84C378.79 184.767 378.69 184.725 378.586 184.725C378.482 184.725 378.383 184.767 378.309 184.84C378.273 184.875 378.245 184.917 378.226 184.963C378.206 185.009 378.196 185.058 378.196 185.108C378.196 185.158 378.206 185.208 378.226 185.254C378.245 185.3 378.273 185.342 378.309 185.377C379.408 186.262 380.671 186.922 382.025 187.318C383.379 187.714 384.798 187.84 386.2 187.687V187.687Z" fill="#263238"/>
<path d="M346.566 142.758C344.594 144.034 342.956 145.765 341.792 147.806C340.627 149.848 339.969 152.138 339.873 154.487C339.792 155.385 339.933 156.289 340.285 157.119C340.461 157.53 340.743 157.887 341.101 158.154C341.459 158.421 341.881 158.59 342.325 158.641C343.685 158.641 344.687 157.424 345.438 156.278L348.91 150.905C350.339 149.16 351.541 147.241 352.488 145.193C353.651 141.665 348.695 141.397 346.566 142.758Z" fill="#11999E"/>
<path d="M348.265 146.321C338.764 157.316 334.505 187.741 362.348 196.229C367 192.54 359.485 185.825 356.3 177.337C354.206 171.785 364.817 161.417 368.951 157.155C373.084 152.893 376.895 146.751 382.729 147.736C384.209 148.231 385.804 148.275 387.31 147.861C391.944 145.766 389.689 142.99 387.31 141.056C383.66 138.353 379.314 136.75 374.784 136.436C369.897 135.86 364.943 136.456 360.332 138.175C355.721 139.894 351.585 142.686 348.265 146.321V146.321Z" fill="#263238"/>
<path d="M379.168 142.632C390.352 151.962 375.589 152.195 367.77 158.104C360.272 163.781 365.533 173.075 352.846 177.39C342.486 180.417 340.088 178.59 337.225 176.585C340.773 175.97 344.018 174.198 346.456 171.546C348.893 168.893 350.385 165.508 350.699 161.918C351.576 155.114 366.392 131.816 379.168 142.632Z" fill="#263238"/>
<path d="M350.091 185.735C351.843 188.261 354.516 189.997 357.534 190.57C361.543 191.269 363.081 187.598 361.704 184.016C360.397 180.793 356.765 176.549 352.882 177.462C351.547 177.808 350.403 178.669 349.702 179.858C349.001 181.046 348.8 182.464 349.142 183.801C349.325 184.503 349.647 185.161 350.091 185.735V185.735Z" fill="#FFB573"/>
<path d="M377.253 143.581C379.418 149.097 385.663 148.363 390.28 154.129C393.125 157.71 398.708 146.661 391.103 142.31C383.498 137.958 373.853 134.95 377.253 143.581Z" fill="#263238"/>
<path d="M370.668 166.861C370.828 166.878 370.988 166.844 371.126 166.763C371.265 166.683 371.374 166.56 371.438 166.413C372.905 163.154 377.307 162.33 377.343 162.33C377.539 162.287 377.712 162.17 377.825 162.004C377.938 161.837 377.983 161.634 377.951 161.435C377.912 161.241 377.798 161.07 377.634 160.959C377.47 160.848 377.269 160.807 377.074 160.844C376.842 160.844 371.831 161.9 370.042 165.84C369.962 166.023 369.957 166.23 370.027 166.418C370.097 166.605 370.237 166.757 370.418 166.843H370.668V166.861Z" fill="#263238"/>
<path d="M393.93 160.271C394.061 160.28 394.192 160.254 394.309 160.194C394.426 160.134 394.524 160.043 394.592 159.931C394.649 159.85 394.689 159.759 394.71 159.663C394.731 159.566 394.733 159.466 394.714 159.37C394.696 159.273 394.658 159.18 394.604 159.098C394.549 159.016 394.478 158.946 394.395 158.892V158.892C393.404 158.205 392.263 157.767 391.067 157.614C389.871 157.461 388.656 157.599 387.524 158.015C387.43 158.051 387.345 158.107 387.273 158.179C387.202 158.25 387.146 158.336 387.109 158.43C387.072 158.524 387.054 158.625 387.058 158.726C387.062 158.827 387.087 158.926 387.131 159.017C387.209 159.2 387.357 159.344 387.541 159.418C387.726 159.491 387.932 159.489 388.115 159.411V159.411C389.005 159.1 389.956 159.006 390.89 159.137C391.824 159.268 392.713 159.62 393.483 160.163C393.622 160.231 393.775 160.268 393.93 160.271V160.271Z" fill="#263238"/>
<path d="M467.491 258.296L457.006 264.259L446.108 287.718C446.108 287.718 456.63 294.415 464.932 288.989C473.235 283.563 467.491 258.296 467.491 258.296Z" fill="#1E9DA2"/>
<path opacity="0.5" d="M467.491 258.296L457.006 264.259L446.108 287.718C446.108 287.718 456.63 294.415 464.932 288.989C473.235 283.563 467.491 258.296 467.491 258.296Z" fill="white"/>
<path d="M284.134 265.548L296.535 269.13L308.291 293.466C308.291 293.466 298.843 302.223 288.608 293.86C280.949 287.521 284.134 265.548 284.134 265.548Z" fill="#1E9DA2"/>
<g opacity="0.5">
<path opacity="0.5" d="M284.134 265.548L296.535 269.13L308.291 293.466C308.291 293.466 298.843 302.223 288.608 293.86C280.949 287.521 284.134 265.548 284.134 265.548Z" fill="white"/>
</g>
<path d="M393.215 166.342C394.073 166.18 395.004 167.147 395.201 168.472C395.398 169.798 394.914 171.015 394.056 171.159C393.197 171.302 392.266 170.353 392.069 169.028C391.872 167.702 392.356 166.467 393.215 166.342Z" fill="#263238"/>
<path d="M395.863 165.034L392.839 166.521C394.664 167.81 395.863 165.034 395.863 165.034Z" fill="#263238"/>
<path d="M378.273 169.422C379.132 169.26 380.063 170.227 380.259 171.553C380.456 172.878 379.973 174.095 379.114 174.239C378.255 174.382 377.325 173.433 377.128 172.108C376.931 170.783 377.379 169.583 378.273 169.422Z" fill="#263238"/>
<path d="M380.886 168.114L377.862 169.601C379.687 170.89 380.886 168.114 380.886 168.114Z" fill="#263238"/>
<path d="M302.511 237.935C300.826 237.945 299.155 237.629 297.59 237.004C292.043 234.73 289.467 228.964 290.433 221.156C290.464 220.921 290.587 220.708 290.775 220.564C290.963 220.419 291.2 220.355 291.435 220.386C291.552 220.399 291.666 220.436 291.768 220.494C291.871 220.552 291.961 220.63 292.033 220.724C292.105 220.817 292.157 220.924 292.186 221.039C292.216 221.153 292.222 221.272 292.204 221.389C291.274 228.319 293.457 233.405 298.199 235.339C300.951 236.281 303.931 236.328 306.711 235.473C309.491 234.617 311.93 232.903 313.677 230.575C318.168 224.594 316.701 216.106 309.704 207.296C291.381 184.285 292.598 172.054 295.193 162.384C298.95 148.345 309.955 132.264 341.09 135.362C341.327 135.386 341.546 135.503 341.697 135.687C341.848 135.872 341.919 136.109 341.895 136.347C341.872 136.584 341.755 136.802 341.57 136.954C341.385 137.105 341.148 137.176 340.911 137.153C311.047 134.18 300.489 149.509 296.91 162.868C294.334 172.537 293.332 183.837 311.1 206.203C321.836 219.688 317.488 228.516 315.108 231.668C313.619 233.598 311.712 235.165 309.53 236.251C307.348 237.336 304.948 237.912 302.511 237.935V237.935Z" fill="#263238"/>
</svg>
