<svg id="_Layer_" data-name=" Layer " xmlns="http://www.w3.org/2000/svg" viewBox="0 0 2505.32 1316.9"><defs><style>.cls-1,.cls-10,.cls-2{fill:#30e3ca;}.cls-1{opacity:0.25;}.cls-1,.cls-10,.cls-11{isolation:isolate;}.cls-3{fill:#1b6b5e;}.cls-4{fill:#fc9290;}.cls-5{fill:#ea8888;}.cls-6{fill:#40514e;}.cls-7{fill:#0d6868;}.cls-8{fill:#11999e;}.cls-9{fill:#1a2120;}.cls-10{opacity:0.2;}.cls-11{fill:#fa7269;opacity:0.6;}.cls-12{fill:#fff;}.cls-13{fill:#ea8989;}</style></defs><path class="cls-1" d="M1285.24,1812.06s-291.52-313-49.3-651.88c214.92-300.66,465.49-280.11,649.32-158.1,78.3,52,304,6.41,496.19-299.53,262-417.23,1170.3-164.18,1004.69,477.77C3306,1491,3630,1502.24,3464.93,1812.76Z" transform="translate(-1130.11 -498.32)"/><path class="cls-2" d="M2555.33,1777.56v22.66a9.6,9.6,0,0,1-1.32,4.87,8,8,0,0,1-3.6,3.26,6.93,6.93,0,0,1-1.4.45,6.79,6.79,0,0,1-1.35.13l-316-.75c-4.08,0-7.43-3.7-7.63-8.3v-.45l0-22.66v-.45c.21-4.6,3.57-8.28,7.65-8.27l316,.75a6,6,0,0,1,1.34.15,5.86,5.86,0,0,1,1.4.45,7.9,7.9,0,0,1,3.58,3.28A9.5,9.5,0,0,1,2555.33,1777.56Z" transform="translate(-1130.11 -498.32)"/><path class="cls-3" d="M2400.09,1808.58l-169.3-.4c-3.64,0-6.63-3.7-6.81-8.3v-.45l.05-22.66v-.45c.19-4.6,3.19-8.28,6.83-8.27l148.51.35C2381.72,1780.22,2387.22,1796.57,2400.09,1808.58Z" transform="translate(-1130.11 -498.32)"/><rect class="cls-3" x="2495.05" y="1787.04" width="40.13" height="3.59" transform="translate(-409.97 3801.25) rotate(-89.86)"/><rect class="cls-3" x="2482.82" y="1786.96" width="40.13" height="3.59" transform="translate(-422.09 3788.94) rotate(-89.86)"/><rect class="cls-3" x="2468.05" y="1786.79" width="40.13" height="3.59" transform="translate(-437.09 3773.69) rotate(-89.85)"/><rect class="cls-3" x="2445.89" y="1786.86" width="40.13" height="3.59" transform="translate(-458.83 3751.91) rotate(-89.86)"/><rect class="cls-3" x="2422.25" y="1786.81" width="40.13" height="3.59" transform="translate(-482.36 3728.23) rotate(-89.86)"/><rect class="cls-3" x="2386.03" y="1786.72" width="40.13" height="3.59" transform="translate(-518.4 3691.92) rotate(-89.86)"/><rect class="cls-3" x="2351.94" y="1786.52" width="40.13" height="3.59" transform="translate(-551.38 3658.25) rotate(-89.88)"/><rect class="cls-3" x="2321.99" y="1786.7" width="40.13" height="3.59" transform="translate(-583.08 3627.23) rotate(-89.84)"/><rect class="cls-3" x="2506.54" y="1787.02" width="40.13" height="3.59" transform="translate(-398.49 3812.72) rotate(-89.86)"/><rect class="cls-3" x="2514.2" y="1787.05" width="40.13" height="3.59" transform="translate(-389.55 3821.35) rotate(-89.89)"/><rect class="cls-3" x="2521.58" y="1787.05" width="40.13" height="3.59" transform="translate(-383.52 3827.79) rotate(-89.86)"/><path class="cls-3" d="M2545.45,1768.8l-.07,40.13h2.24a6.79,6.79,0,0,0,1.35-.13L2549,1769a6,6,0,0,0-1.34-.15Z" transform="translate(-1130.11 -498.32)"/><path class="cls-3" d="M2550.44,1769.4l-.07,39a8,8,0,0,0,3.6-3.26l.05-32.41A7.91,7.91,0,0,0,2550.44,1769.4Z" transform="translate(-1130.11 -498.32)"/><path class="cls-2" d="M2521.61,1737.32V1760a9.47,9.47,0,0,1-1.32,4.87,7.83,7.83,0,0,1-3.59,3.26,6.93,6.93,0,0,1-1.4.45,6.79,6.79,0,0,1-1.35.13l-316-.75c-4.07,0-7.42-3.7-7.62-8.3v-23.56c.22-4.59,3.58-8.28,7.65-8.27l316,.75h.86l.29,0h.2a6.93,6.93,0,0,1,1.4.45l.2.09.19.1.39.21.21.14.2.13.36.26.39.34a3.83,3.83,0,0,1,.29.28h0l.2.2c.19.21.38.43.55.66l.15.2.15.21c.1.15.19.3.28.45A9.43,9.43,0,0,1,2521.61,1737.32Z" transform="translate(-1130.11 -498.32)"/><path class="cls-3" d="M2366.37,1768.37l-169.3-.4c-3.64,0-6.62-3.7-6.8-8.3v-23.56c.2-4.59,3.19-8.28,6.83-8.27l148.51.36.21,1C2348.32,1740.91,2353.85,1756.7,2366.37,1768.37Z" transform="translate(-1130.11 -498.32)"/><rect class="cls-3" x="2461.27" y="1746.78" width="40.13" height="3.59" transform="translate(-403.41 3727.3) rotate(-89.86)"/><rect class="cls-3" x="2448.93" y="1746.62" width="40.13" height="3.59" transform="translate(-414.7 3715.42) rotate(-89.88)"/><rect class="cls-3" x="2434.52" y="1746.72" width="40.13" height="3.59" transform="translate(-430.03 3700.5) rotate(-89.86)"/><rect class="cls-3" x="2412.18" y="1746.67" width="40.13" height="3.59" transform="translate(-452.27 3678.1) rotate(-89.86)"/><rect class="cls-3" x="2388.37" y="1746.49" width="40.13" height="3.59" transform="translate(-475 3654.73) rotate(-89.88)"/><rect class="cls-3" x="2352.31" y="1746.52" width="40.13" height="3.59" transform="translate(-511.84 3618.09) rotate(-89.86)"/><rect class="cls-3" x="2318.23" y="1746.32" width="40.13" height="3.59" transform="translate(-544.82 3584.42) rotate(-89.88)"/><rect class="cls-3" x="2287.94" y="1746.25" width="40.13" height="3.59" transform="translate(-574.98 3554.06) rotate(-89.88)"/><rect class="cls-3" x="2472.83" y="1746.81" width="40.13" height="3.59" transform="translate(-391.91 3738.89) rotate(-89.86)"/><rect class="cls-3" x="2480.47" y="1746.83" width="40.13" height="3.59" transform="translate(-384.3 3746.56) rotate(-89.86)"/><rect class="cls-3" x="2487.86" y="1746.84" width="40.13" height="3.59" transform="translate(-376.94 3753.96) rotate(-89.86)"/><path class="cls-3" d="M2511.74,1728.59l-.08,40.13h2.25a6.79,6.79,0,0,0,1.35-.13l.07-39.85a6.14,6.14,0,0,0-1.35-.15Z" transform="translate(-1130.11 -498.32)"/><path class="cls-3" d="M2516.73,1729.19l-.07,39a8,8,0,0,0,3.59-3.26l.06-32.41A8,8,0,0,0,2516.73,1729.19Z" transform="translate(-1130.11 -498.32)"/><path class="cls-2" d="M2538,1698.25v22.66a9.47,9.47,0,0,1-1.32,4.87,8,8,0,0,1-3.59,3.26,6.93,6.93,0,0,1-1.4.45,6.79,6.79,0,0,1-1.35.13l-316-.75a6.74,6.74,0,0,1-3.52-1,8.85,8.85,0,0,1-4.08-6.91v-24c.22-4.59,3.58-8.27,7.65-8.27l316,.75a7.64,7.64,0,0,1,1.35.15,6.93,6.93,0,0,1,1.4.45,8,8,0,0,1,3.58,3.28A9.6,9.6,0,0,1,2538,1698.25Z" transform="translate(-1130.11 -498.32)"/><path class="cls-3" d="M2382.77,1729.32l-169.3-.4a5.6,5.6,0,0,1-3.14-1,9.1,9.1,0,0,1-3.64-6.91v-24c.19-4.59,3.2-8.28,6.83-8.27l148.51.35c2.29,11.5,7.55,27.28,19.68,39.19Z" transform="translate(-1130.11 -498.32)"/><path class="cls-2" d="M2545.65,1658.14v22.66a9.47,9.47,0,0,1-1.32,4.87,7.83,7.83,0,0,1-3.59,3.26,6.93,6.93,0,0,1-1.4.45,6.79,6.79,0,0,1-1.35.13l-316-.75c-4.07,0-7.42-3.7-7.62-8.3V1656.9c.2-4.25,3.09-7.72,6.75-8.21a7,7,0,0,1,.91-.06l316,.75a6.14,6.14,0,0,1,1.35.15,6.93,6.93,0,0,1,1.4.45,8.06,8.06,0,0,1,3.58,3.28A9.41,9.41,0,0,1,2545.65,1658.14Z" transform="translate(-1130.11 -498.32)"/><path class="cls-3" d="M2390.42,1689.16l-169.31-.4c-3.63,0-6.62-3.7-6.8-8.3V1656.9c.18-4.25,2.76-7.72,6-8.21a5.52,5.52,0,0,1,.81-.06l148.51.35v.07C2372.07,1660.86,2377.57,1677.17,2390.42,1689.16Z" transform="translate(-1130.11 -498.32)"/><path class="cls-2" d="M2522.49,1618v22.67a9.47,9.47,0,0,1-1.32,4.87,8,8,0,0,1-3.59,3.26,6.93,6.93,0,0,1-1.4.45l-.45.07h-.9l-316-.75c-4.07,0-7.42-3.71-7.62-8.3v-23.93a8.51,8.51,0,0,1,5.75-7.63l.23-.06a6.55,6.55,0,0,1,1.65-.21l316,.75h1l.35.07a5.86,5.86,0,0,1,1.4.45,8,8,0,0,1,3.58,3.28A9.48,9.48,0,0,1,2522.49,1618Z" transform="translate(-1130.11 -498.32)"/><path class="cls-3" d="M2367.25,1649l-169.3-.4c-3.63,0-6.62-3.71-6.8-8.3v-23.93c.29-3.78,2.48-6.87,5.31-7.69l.3-.07a5.39,5.39,0,0,1,1.2-.14l148.52.35a2.93,2.93,0,0,0,.05.29c2.38,11.77,7.88,27.92,20.6,39.83Z" transform="translate(-1130.11 -498.32)"/><path class="cls-2" d="M2521.9,1578.17v22.66a9.47,9.47,0,0,1-1.32,4.87A8,8,0,0,1,2517,1609a6.12,6.12,0,0,1-1.09.38h0l-.3.07a6.12,6.12,0,0,1-1.35.13l-316-.74a8.26,8.26,0,0,1-1-.08l-.37-.07c-3.44-.72-6.09-4.09-6.26-8.16v-23.56c.22-4.59,3.58-8.27,7.65-8.26l316,.75h1.35a6.93,6.93,0,0,1,1.4.45l.2.09.19.1.38.21.42.28.36.26.39.33.3.28h0l.2.2a6.75,6.75,0,0,1,.55.65l.15.2.15.21.28.45A9.5,9.5,0,0,1,2521.9,1578.17Z" transform="translate(-1130.11 -498.32)"/><path class="cls-3" d="M2366.66,1609.2l-169.3-.41h-.4a3.32,3.32,0,0,1-.44-.06c-3.25-.52-5.8-4-6-8.23v-23.56c.19-4.59,3.19-8.27,6.83-8.27l148.51.36c.07.32.14.65.21,1,2.43,11.63,7.91,27.25,20.21,38.9Z" transform="translate(-1130.11 -498.32)"/><path class="cls-2" d="M2538.3,1539.07v22.66a9.47,9.47,0,0,1-1.32,4.87,8,8,0,0,1-3.59,3.26,6.93,6.93,0,0,1-1.4.45,6.8,6.8,0,0,1-1.35.14l-316-.75a6.94,6.94,0,0,1-3.52-1,8.91,8.91,0,0,1-4.08-6.92v-24c.22-4.59,3.58-8.27,7.65-8.26l316,.75a6.8,6.8,0,0,1,1.35.14,6.93,6.93,0,0,1,1.4.45,8,8,0,0,1,3.58,3.28A9.7,9.7,0,0,1,2538.3,1539.07Z" transform="translate(-1130.11 -498.32)"/><path class="cls-3" d="M2383.06,1570.09l-169.3-.4a5.6,5.6,0,0,1-3.14-1,9.1,9.1,0,0,1-3.64-6.92v-24c.2-4.59,3.2-8.27,6.83-8.27l148.51.36c2.29,11.49,7.55,27.28,19.68,39.18C2382.37,1569.44,2382.71,1569.77,2383.06,1570.09Z" transform="translate(-1130.11 -498.32)"/><path class="cls-2" d="M2564.2,1499v22.66a9.6,9.6,0,0,1-1.32,4.87,8,8,0,0,1-3.6,3.26,5.86,5.86,0,0,1-1.4.45,6.8,6.8,0,0,1-1.35.14l-316-.75c-4.08,0-7.43-3.71-7.63-8.31v-23.55c.19-4.25,3.09-7.72,6.75-8.21a6.8,6.8,0,0,1,.9-.06l316,.75a6.73,6.73,0,0,1,2.74.59,8,8,0,0,1,3.59,3.28A9.64,9.64,0,0,1,2564.2,1499Z" transform="translate(-1130.11 -498.32)"/><path class="cls-3" d="M2409,1530l-169.3-.41c-3.64,0-6.63-3.7-6.81-8.3v-23.55c.17-4.25,2.76-7.72,6-8.21a5.52,5.52,0,0,1,.81-.06l148.51.35v.06C2390.61,1501.73,2396.11,1518,2409,1530Z" transform="translate(-1130.11 -498.32)"/><path class="cls-2" d="M2522.78,1458.84v22.66a9.47,9.47,0,0,1-1.32,4.87,8,8,0,0,1-3.59,3.26,6.93,6.93,0,0,1-1.4.45l-.45.07h-.9l-316-.75c-4.07,0-7.42-3.7-7.62-8.3v-23.56c.22-4.59,3.58-8.28,7.65-8.27l316,.75h.41a5.91,5.91,0,0,1,.94.13,6.93,6.93,0,0,1,1.4.45,5.13,5.13,0,0,1,.66.34,4.11,4.11,0,0,1,.39.24h.05l.38.28h.06c.12.09.23.19.34.29a6.06,6.06,0,0,1,.76.76,2.75,2.75,0,0,1,.22.26v0a2,2,0,0,1,.13.16h0c.08.11.16.21.23.32s.2.31.3.48A9.48,9.48,0,0,1,2522.78,1458.84Z" transform="translate(-1130.11 -498.32)"/><path class="cls-3" d="M2367.54,1489.86l-169.3-.4c-3.63,0-6.62-3.7-6.8-8.3V1457.6c.2-4.59,3.2-8.28,6.83-8.27l148.52.36c.05.3.12.61.19.92,2.44,11.72,8,27.5,20.46,39.19Z" transform="translate(-1130.11 -498.32)"/><path class="cls-2" d="M2546.09,1419.69v22.66a9.6,9.6,0,0,1-1.32,4.87,8,8,0,0,1-3.6,3.26,6.93,6.93,0,0,1-1.4.45,6.8,6.8,0,0,1-1.35.14l-316-.75a6.87,6.87,0,0,1-3.42-.94,8.86,8.86,0,0,1-4.19-7v-23.92c.19-4.25,3.09-7.71,6.74-8.2a5.57,5.57,0,0,1,.91-.06l316,.75a7,7,0,0,1,2.74.59,8,8,0,0,1,3.59,3.28A9.58,9.58,0,0,1,2546.09,1419.69Z" transform="translate(-1130.11 -498.32)"/><path class="cls-3" d="M2390.85,1450.72l-169.3-.41a5.5,5.5,0,0,1-3.05-.93,9.08,9.08,0,0,1-3.74-7v-23.92c.17-4.24,2.76-7.71,6-8.2a3.69,3.69,0,0,1,.81-.06l148.51.35v.06c2.3,11.51,7.58,27.3,19.74,39.19C2390.19,1450.1,2390.52,1450.41,2390.85,1450.72Z" transform="translate(-1130.11 -498.32)"/><path class="cls-2" d="M2522.93,1379.57v22.66a9.6,9.6,0,0,1-1.32,4.87,8,8,0,0,1-3.6,3.26,6.93,6.93,0,0,1-1.4.45l-.44.07h-.91l-316-.75c-4.08,0-7.43-3.71-7.63-8.31v-23.56c.21-4.59,3.57-8.27,7.65-8.26l316,.75a6.7,6.7,0,0,1,1.34.14,6.93,6.93,0,0,1,1.4.45,7.9,7.9,0,0,1,3.58,3.28A9.48,9.48,0,0,1,2522.93,1379.57Z" transform="translate(-1130.11 -498.32)"/><path class="cls-3" d="M2367.69,1410.59l-169.3-.4c-3.64,0-6.63-3.7-6.81-8.3v-23.56c.19-4.59,3.19-8.27,6.83-8.27l148.51.36c2.35,11.8,7.83,28.11,20.65,40.11Z" transform="translate(-1130.11 -498.32)"/><rect class="cls-3" x="2477.49" y="1707.56" width="40.13" height="3.59" transform="translate(-347.14 3705) rotate(-89.88)"/><rect class="cls-3" x="2465.59" y="1707.7" width="40.13" height="3.59" transform="translate(-358.72 3693.55) rotate(-89.89)"/><rect class="cls-3" x="2451" y="1707.67" width="40.13" height="3.59" transform="translate(-373.26 3678.93) rotate(-89.89)"/><rect class="cls-3" x="2428.4" y="1707.45" width="40.13" height="3.59" transform="translate(-396.01 3655.8) rotate(-89.88)"/><rect class="cls-3" x="2404.94" y="1707.51" width="40.13" height="3.59" transform="translate(-420.33 3631.8) rotate(-89.86)"/><rect class="cls-3" x="2368.71" y="1707.42" width="40.13" height="3.59" transform="translate(-456.38 3595.49) rotate(-89.86)"/><rect class="cls-3" x="2334.63" y="1707.22" width="40.13" height="3.59" transform="translate(-489.36 3561.8) rotate(-89.88)"/><rect class="cls-3" x="2304.69" y="1707.4" width="40.13" height="3.59" transform="translate(-519.82 3531.74) rotate(-89.87)"/><rect class="cls-3" x="2489.05" y="1707.59" width="40.13" height="3.59" transform="translate(-335.63 3716.59) rotate(-89.88)"/><rect class="cls-3" x="2496.7" y="1707.6" width="40.13" height="3.59" transform="translate(-328.01 3724.25) rotate(-89.88)"/><rect class="cls-3" x="2504.26" y="1707.74" width="40.13" height="3.59" transform="translate(-321.48 3731.36) rotate(-89.86)"/><path class="cls-3" d="M2528.14,1689.49l-.08,40.13h2.25a6.79,6.79,0,0,0,1.35-.13l.07-39.85a6.14,6.14,0,0,0-1.35-.15Z" transform="translate(-1130.11 -498.32)"/><path class="cls-3" d="M2533.13,1690.09l-.07,39a8,8,0,0,0,3.59-3.26l.06-32.41A8,8,0,0,0,2533.13,1690.09Z" transform="translate(-1130.11 -498.32)"/><rect class="cls-3" x="2376.36" y="1667.31" width="40.13" height="3.59" transform="translate(-408.64 3563.12) rotate(-89.86)"/><rect class="cls-3" x="2342.26" y="1667.11" width="40.13" height="3.59" transform="translate(-441.63 3529.41) rotate(-89.88)"/><rect class="cls-3" x="2312.14" y="1667.16" width="40.13" height="3.59" transform="translate(-472.55 3498.76) rotate(-89.86)"/><path class="cls-3" d="M2518.71,1689.47l.08-40.13h-3.15a4,4,0,0,0,.5-.08l.07-39.85c-.22,0-.44-.08-.66-.1l.07-38.89h1.4L2517,1609a8,8,0,0,0,3.59-3.26l.06-32.41a8.08,8.08,0,0,0-2.85-2.87H2519l.07-40.13h-3.59l-.07,39.25a6.31,6.31,0,0,0-1.15-.11H2512l-.08,40.13h.67l-.08,39.84h2.66l-.08,40.09Z" transform="translate(-1130.11 -498.32)"/><rect class="cls-3" x="2504.52" y="1667.61" width="40.13" height="3.59" transform="translate(-281.09 3691.59) rotate(-89.86)"/><rect class="cls-3" x="2511.97" y="1667.68" width="40.13" height="3.59" transform="translate(-273.73 3699.11) rotate(-89.86)"/><path class="cls-3" d="M2535.78,1649.38l-.07,40.12H2538a6.8,6.8,0,0,0,1.35-.14l.07-39.84a6.14,6.14,0,0,0-1.35-.15Z" transform="translate(-1130.11 -498.32)"/><path class="cls-3" d="M2540.77,1650l-.07,39a8,8,0,0,0,3.59-3.26l.06-32.42A8,8,0,0,0,2540.77,1650Z" transform="translate(-1130.11 -498.32)"/><polygon class="cls-3" points="1353.87 1151 1353.94 1110.87 1353.28 1110.87 1353.35 1071.03 1349.76 1071.02 1349.69 1111.15 1350.35 1111.15 1350.28 1150.93 1346.78 1150.92 1346.7 1191.05 1350.29 1191.06 1350.37 1150.99 1353.87 1151"/><polygon class="cls-3" points="1327.21 1110.81 1326.54 1110.81 1326.62 1070.97 1323.02 1070.96 1322.95 1111.09 1323.62 1111.09 1323.54 1150.93 1324.43 1150.93 1324.36 1191 1327.95 1191.01 1328.02 1150.88 1327.13 1150.88 1327.21 1110.81"/><path class="cls-3" d="M2517.61,1609.86l-.07,39a8,8,0,0,0,3.59-3.26l.06-32.42A8,8,0,0,0,2517.61,1609.86Z" transform="translate(-1130.11 -498.32)"/><polygon class="cls-3" points="1304.27 1070.91 1300.68 1070.9 1300.6 1111.03 1301.27 1111.04 1301.2 1150.81 1300.8 1150.81 1300.72 1190.94 1304.32 1190.95 1304.39 1150.88 1304.79 1150.89 1304.86 1110.76 1304.2 1110.76 1304.27 1070.91"/><polygon class="cls-3" points="1280.64 1070.86 1277.05 1070.85 1276.97 1110.98 1277.64 1110.98 1277.56 1150.82 1281.16 1150.83 1281.23 1110.7 1280.56 1110.7 1280.64 1070.86"/><polygon class="cls-3" points="1244.41 1070.77 1240.82 1070.76 1240.74 1110.89 1241.41 1110.89 1241.34 1150.74 1244.93 1150.74 1245 1110.61 1244.34 1110.61 1244.41 1070.77"/><polygon class="cls-3" points="1210.49 1070.69 1206.9 1070.68 1206.82 1110.81 1207.49 1110.81 1207.41 1150.65 1211.01 1150.66 1211.08 1110.53 1210.41 1110.53 1210.49 1070.69"/><polygon class="cls-3" points="1180.2 1070.62 1176.61 1070.61 1176.53 1110.74 1177.2 1110.74 1177.13 1150.58 1180.72 1150.59 1180.79 1110.46 1180.13 1110.46 1180.2 1070.62"/><polygon class="cls-3" points="1364.92 1071.06 1361.33 1071.05 1361.26 1111.18 1361.92 1111.18 1361.85 1150.96 1361.36 1150.96 1361.28 1191.09 1364.87 1191.09 1364.95 1151.03 1365.45 1151.03 1365.52 1110.9 1364.85 1110.9 1364.92 1071.06"/><polygon class="cls-3" points="1372.57 1071.08 1369.68 1071.07 1369.75 1031.93 1366.16 1031.92 1366.09 1072.05 1368.98 1072.06 1368.91 1111.2 1369.57 1111.2 1369.5 1151.04 1373.09 1151.05 1373.16 1110.92 1372.5 1110.92 1372.57 1071.08"/><rect class="cls-3" x="2465.79" y="1548.47" width="40.13" height="3.59" transform="translate(-200.59 3534) rotate(-89.86)"/><polygon class="cls-3" points="1339.35 1071 1337.6 1070.99 1337.53 1111.12 1338.19 1111.12 1338.12 1150.97 1341.71 1150.97 1341.79 1110.84 1341.12 1110.84 1341.19 1071.99 1342.94 1071.99 1343.02 1031.87 1339.42 1031.86 1339.35 1071"/><rect class="cls-3" x="2429.03" y="1548.5" width="40.13" height="3.59" transform="translate(-238.14 3496.73) rotate(-89.84)"/><rect class="cls-3" x="2405.24" y="1548.33" width="40.13" height="3.59" transform="translate(-260.85 3473.32) rotate(-89.86)"/><rect class="cls-3" x="2369" y="1548.25" width="40.13" height="3.59" transform="translate(-296.92 3437) rotate(-89.86)"/><rect class="cls-3" x="2334.92" y="1548.05" width="40.13" height="3.59" transform="translate(-329.9 3403.26) rotate(-89.88)"/><rect class="cls-3" x="1187.93" y="1028.11" width="3.59" height="40.13"/><polygon class="cls-3" points="1377.66 1071.09 1376.36 1071.09 1376.29 1111.21 1376.95 1111.22 1376.88 1151 1373.51 1150.99 1373.44 1191.11 1377.03 1191.12 1377.11 1151.06 1380.47 1151.06 1380.55 1110.94 1379.88 1110.94 1379.95 1072.08 1381.25 1072.09 1381.32 1031.96 1377.73 1031.95 1377.66 1071.09"/><rect class="cls-3" x="2504.54" y="1548.56" width="40.13" height="3.59" transform="translate(-162.02 3572.85) rotate(-89.86)"/><path class="cls-3" d="M2532,1570.32l.07-39.85a6.8,6.8,0,0,0-1.35-.14h-2.24l-.08,40.13h2.25A6.8,6.8,0,0,0,2532,1570.32Z" transform="translate(-1130.11 -498.32)"/><path class="cls-3" d="M2536.94,1566.6l.06-32.41a8,8,0,0,0-3.58-3.28l-.07,39A8,8,0,0,0,2536.94,1566.6Z" transform="translate(-1130.11 -498.32)"/><rect class="cls-3" x="2503.91" y="1508.48" width="40.13" height="3.59" transform="translate(-122.57 3532.24) rotate(-89.86)"/><rect class="cls-3" x="2454.76" y="1508.32" width="40.13" height="3.59" transform="translate(-171.44 3482.93) rotate(-89.86)"/><rect class="cls-3" x="2431.13" y="1508.26" width="40.13" height="3.59" transform="translate(-194.95 3459.24) rotate(-89.86)"/><rect class="cls-3" x="2394.9" y="1508.17" width="40.13" height="3.59" transform="translate(-231.01 3422.91) rotate(-89.86)"/><rect class="cls-3" x="2360.98" y="1508.09" width="40.13" height="3.59" transform="translate(-264.76 3388.92) rotate(-89.86)"/><rect class="cls-3" x="2330.77" y="1508.07" width="40.13" height="3.59" transform="translate(-293.65 3359.48) rotate(-89.89)"/><rect class="cls-3" x="2515.42" y="1508.46" width="40.13" height="3.59" transform="translate(-111.07 3543.73) rotate(-89.86)"/><rect class="cls-3" x="2523.07" y="1508.48" width="40.13" height="3.59" transform="translate(-103.46 3551.39) rotate(-89.86)"/><rect class="cls-3" x="2530.45" y="1508.49" width="40.13" height="3.59" transform="translate(-96.11 3558.78) rotate(-89.86)"/><path class="cls-3" d="M2554.32,1490.24l-.07,40.13h2.25a6.8,6.8,0,0,0,1.35-.14l.07-39.85a6.8,6.8,0,0,0-1.35-.14Z" transform="translate(-1130.11 -498.32)"/><path class="cls-3" d="M2559.32,1490.84l-.07,39a8,8,0,0,0,3.59-3.26l.06-32.41A8,8,0,0,0,2559.32,1490.84Z" transform="translate(-1130.11 -498.32)"/><polygon class="cls-3" points="1350.57 991.82 1354.16 991.83 1354.23 951.7 1350.73 951.69 1350.8 912.55 1354.3 912.56 1354.38 872.43 1350.79 872.42 1350.71 912.49 1347.21 912.48 1347.14 952.61 1350.64 952.61 1350.57 991.82"/><rect class="cls-3" x="2450.44" y="1468.35" width="40.13" height="3.59" transform="translate(-136.64 3438.21) rotate(-89.84)"/><rect class="cls-3" x="2389.54" y="1467.99" width="40.13" height="3.59" transform="translate(-195.33 3377.99) rotate(-89.88)"/><rect class="cls-3" x="2353.32" y="1467.91" width="40.13" height="3.59" transform="translate(-231.4 3341.69) rotate(-89.88)"/><rect class="cls-3" x="2319.63" y="1467.97" width="40.13" height="3.59" transform="translate(-265.89 3307.55) rotate(-89.86)"/><rect class="cls-3" x="2289.11" y="1467.75" width="40.13" height="3.59" transform="translate(-295.31 3277.32) rotate(-89.88)"/><polygon class="cls-3" points="1362.14 991.84 1365.32 991.85 1365.25 1031.92 1368.84 1031.93 1368.92 991.8 1365.73 991.79 1365.81 951.73 1365.31 951.72 1365.38 912.58 1365.88 912.58 1365.95 872.46 1362.36 872.45 1362.29 912.51 1361.79 912.51 1361.72 952.64 1362.21 952.64 1362.14 991.84"/><rect class="cls-3" x="2481.46" y="1468.21" width="40.13" height="3.59" transform="translate(-102.95 3470.64) rotate(-89.9)"/><path class="cls-3" d="M2518.52,1451h.63l.07-40.13h-3.15l.5-.07.07-39.85a6.7,6.7,0,0,0-1.34-.14h-2.25L2513,1411h2.65l-.07,39.19h-2.65l-.08,40.07h-2l.08-40.07h-3.37l.07-39.14H2511l.07-40.13h-3.59l-.08,40.06H2504l-.08,40.13h3.37l-.07,39.21H2510l-.07,40.07h3.59l.07-40.07h1.48a6.79,6.79,0,0,0,1.35-.13l.07-39.07h1.4l-.07,38.61a8,8,0,0,0,3.59-3.26l.06-32.41A8.09,8.09,0,0,0,2518.52,1451Z" transform="translate(-1130.11 -498.32)"/><rect class="cls-3" x="2376.87" y="1428.91" width="40.13" height="3.59" transform="translate(-168.48 3326.57) rotate(-89.89)"/><rect class="cls-3" x="2342.71" y="1428.68" width="40.13" height="3.59" transform="translate(-202.76 3291.93) rotate(-89.88)"/><rect class="cls-3" x="2312.59" y="1428.72" width="40.13" height="3.59" transform="translate(-233.67 3261.34) rotate(-89.86)"/><rect class="cls-3" x="2504.95" y="1429.17" width="40.13" height="3.59" transform="translate(-42.23 3454.15) rotate(-89.86)"/><rect class="cls-3" x="2512.15" y="1429.09" width="40.13" height="3.59" transform="translate(-34.08 3461.78) rotate(-89.88)"/><path class="cls-3" d="M2536.21,1410.93l-.07,40.13h2.24a6.8,6.8,0,0,0,1.35-.14l.07-39.85a6.7,6.7,0,0,0-1.34-.14Z" transform="translate(-1130.11 -498.32)"/><path class="cls-3" d="M2544.73,1447.22l.06-32.41a8,8,0,0,0-3.59-3.28l-.07,39A8,8,0,0,0,2544.73,1447.22Z" transform="translate(-1130.11 -498.32)"/><rect class="cls-3" x="2450.24" y="1388.88" width="40.13" height="3.59" transform="translate(-55.65 3359.74) rotate(-89.88)"/><polygon class="cls-3" points="1327.64 872.36 1324.05 872.36 1323.98 912.49 1324.86 912.49 1324.79 951.63 1323.91 951.63 1323.83 991.75 1327.42 991.76 1327.5 952.56 1328.38 952.56 1328.46 912.43 1327.57 912.43 1327.64 872.36"/><polygon class="cls-3" points="1301.63 912.37 1301.23 912.37 1301.16 952.5 1301.56 952.5 1301.48 991.7 1305.08 991.71 1305.15 951.58 1304.75 951.58 1304.82 912.44 1305.22 912.44 1305.29 872.31 1301.7 872.3 1301.63 912.37"/><rect class="cls-3" x="2389.86" y="1388.83" width="40.13" height="3.59" transform="translate(-116.69 3298.83) rotate(-89.86)"/><rect class="cls-3" x="2353.63" y="1388.74" width="40.13" height="3.59" transform="translate(-152.75 3262.5) rotate(-89.86)"/><rect class="cls-3" x="2319.88" y="1388.76" width="40.13" height="3.59" transform="translate(-187.25 3228.29) rotate(-89.84)"/><rect class="cls-3" x="2289.26" y="1388.49" width="40.13" height="3.59" transform="translate(-215.9 3198.37) rotate(-89.88)"/><rect class="cls-3" x="2481.6" y="1388.94" width="40.13" height="3.59" transform="translate(-25.73 3390.42) rotate(-89.85)"/><path class="cls-3" d="M2518,1371.41l-.07,39a8,8,0,0,0,3.6-3.26l.06-32.41A8,8,0,0,0,2518,1371.41Z" transform="translate(-1130.11 -498.32)"/><path class="cls-2" d="M2663.11,1478.22l22.37,3.67a9.69,9.69,0,0,1,4.59,2.09,7.84,7.84,0,0,1,2.64,4.07,6.44,6.44,0,0,1,.22,1.45,6.9,6.9,0,0,1-.08,1.36l-51.45,311.8c-.66,4-4.85,6.73-9.42,6.19l-.44-.07-22.36-3.67-.44-.08c-4.5-1-7.6-4.86-6.93-8.88l51.44-311.83a7.37,7.37,0,0,1,.36-1.3,6.48,6.48,0,0,1,.67-1.31,8,8,0,0,1,3.81-3A9.55,9.55,0,0,1,2663.11,1478.22Z" transform="translate(-1130.11 -498.32)"/><path class="cls-3" d="M2668.83,1636.42l-27.56,167c-.59,3.58-4.72,5.94-9.29,5.38l-.44-.07-22.36-3.67-.44-.08c-4.51-.93-7.66-4.49-7.07-8.07l24.18-146.54C2637.89,1650,2654.91,1647.2,2668.83,1636.42Z" transform="translate(-1130.11 -498.32)"/><rect class="cls-3" x="2665.99" y="1499.75" width="3.59" height="40.13" transform="translate(-397.03 3405.57) rotate(-80.61)"/><rect class="cls-3" x="2663.77" y="1511.54" width="3.59" height="40.13" transform="matrix(0.16, -0.99, 0.99, 0.16, -408.86, 3414.6)"/><rect class="cls-3" x="2661.42" y="1525.93" width="3.59" height="40.13" transform="translate(-425.86 3423.66) rotate(-80.63)"/><rect class="cls-3" x="2657.82" y="1548.02" width="3.59" height="40.13" transform="translate(-450.67 3438.6) rotate(-80.63)"/><rect class="cls-3" x="2653.98" y="1571.34" width="3.59" height="40.13" transform="translate(-476.9 3454.32) rotate(-80.63)"/><rect class="cls-3" x="2648.08" y="1607.09" width="3.59" height="40.13" transform="translate(-515.87 3479.5) rotate(-80.66)"/><rect class="cls-3" x="2642.79" y="1640.75" width="3.59" height="40.13" transform="translate(-555.56 3500.68) rotate(-80.61)"/><rect class="cls-3" x="2637.63" y="1670.44" width="3.59" height="40.13" transform="translate(-588.35 3521.16) rotate(-80.63)"/><rect class="cls-3" x="2665.93" y="1475.45" width="3.6" height="40.24" transform="translate(-364.42 3392.2) rotate(-80.82)"/><rect class="cls-3" x="2669.28" y="1480.9" width="3.59" height="40.13" transform="translate(-374.44 3394.04) rotate(-80.64)"/><rect class="cls-3" x="2670.39" y="1473.55" width="3.59" height="40.13" transform="translate(-366.25 3388.98) rotate(-80.64)"/><path class="cls-3" d="M2652.89,1486.56l39.59,6.51.37-2.21a6.9,6.9,0,0,0,.08-1.36l-39.32-6.46a7.37,7.37,0,0,0-.36,1.3Z" transform="translate(-1130.11 -498.32)"/><path class="cls-3" d="M2654.28,1481.73l38.43,6.32a7.84,7.84,0,0,0-2.64-4.07l-32-5.26A8,8,0,0,0,2654.28,1481.73Z" transform="translate(-1130.11 -498.32)"/><path class="cls-2" d="M2703.68,1478.22l22.36,3.67a9.72,9.72,0,0,1,4.6,2.09,7.94,7.94,0,0,1,2.64,4.07,6.44,6.44,0,0,1,.22,1.45,6.9,6.9,0,0,1-.08,1.36L2682,1802.66c-.66,4-4.85,6.73-9.42,6.19l-.44-.07-22.37-3.67-.44-.08c-4.5-1-7.59-4.86-6.93-8.88l51.42-311.83a6.55,6.55,0,0,1,1-2.61,8,8,0,0,1,3.81-3A9.55,9.55,0,0,1,2703.68,1478.22Z" transform="translate(-1130.11 -498.32)"/><path class="cls-3" d="M2709.4,1636.42l-27.57,167c-.59,3.58-4.71,5.94-9.28,5.38l-.44-.07-22.37-3.67-.44-.08c-4.5-.93-7.65-4.49-7.06-8.07l24.18-146.54C2678.46,1650,2695.48,1647.2,2709.4,1636.42Z" transform="translate(-1130.11 -498.32)"/><rect class="cls-3" x="2706.56" y="1499.75" width="3.59" height="40.13" transform="translate(-363.08 3445.59) rotate(-80.61)"/><rect class="cls-3" x="2704.33" y="1511.55" width="3.59" height="40.13" transform="matrix(0.16, -0.99, 0.99, 0.16, -374.9, 3454.63)"/><rect class="cls-3" x="2702.33" y="1526.23" width="3.59" height="40.13" transform="translate(-392.32 3463.93) rotate(-80.62)"/><rect class="cls-3" x="2698.39" y="1548.04" width="3.59" height="40.13" transform="translate(-416.72 3478.63) rotate(-80.63)"/><rect class="cls-3" x="2694.54" y="1571.34" width="3.59" height="40.13" transform="translate(-442.94 3494.35) rotate(-80.63)"/><rect class="cls-3" x="2688.71" y="1607.14" width="3.59" height="40.13" transform="translate(-483.14 3518.57) rotate(-80.63)"/><rect class="cls-3" x="2683.11" y="1640.54" width="3.59" height="40.13" transform="translate(-520.78 3541) rotate(-80.63)"/><rect class="cls-3" x="2676.43" y="1656.68" width="3.6" height="40.24" transform="translate(-534.5 3554.88) rotate(-80.82)"/><rect class="cls-3" x="2705.73" y="1474.78" width="3.6" height="40.24" transform="translate(-330.31 3430.92) rotate(-80.82)"/><rect class="cls-3" x="2709.85" y="1480.91" width="3.59" height="40.13" transform="translate(-340.47 3434.09) rotate(-80.64)"/><rect class="cls-3" x="2710.95" y="1473.56" width="3.59" height="40.13" transform="translate(-332.29 3429.01) rotate(-80.64)"/><path class="cls-3" d="M2693.45,1486.56l39.6,6.51.37-2.21a6.9,6.9,0,0,0,.08-1.36l-39.33-6.46a6.58,6.58,0,0,0-.35,1.3Z" transform="translate(-1130.11 -498.32)"/><path class="cls-3" d="M2694.85,1481.73l38.43,6.32a7.94,7.94,0,0,0-2.64-4.07l-32-5.26A8,8,0,0,0,2694.85,1481.73Z" transform="translate(-1130.11 -498.32)"/><path class="cls-2" d="M2623.34,1478.4l22.31,4a9.52,9.52,0,0,1,4.57,2.14,8,8,0,0,1,2.59,4.11,6.4,6.4,0,0,1,.19,1.45,6.13,6.13,0,0,1-.09,1.35l-55.44,311.12c-.71,4-4.93,6.67-9.49,6.07l-.45-.07-22.31-4-.44-.08c-4.49-1-7.53-5-6.82-9l55.44-311.12a5.61,5.61,0,0,1,.13-.59.33.33,0,0,1,.07-.25c0-.09.06-.18.1-.27a1.59,1.59,0,0,1,.07-.2,6.4,6.4,0,0,1,.69-1.29l.12-.18.13-.18c.09-.11.18-.23.28-.34l.17-.19.17-.17c.1-.11.21-.21.32-.31l.39-.33.33-.24h0a1.88,1.88,0,0,1,.23-.16,6.79,6.79,0,0,1,.74-.43l.22-.12.24-.11.48-.2A9.58,9.58,0,0,1,2623.34,1478.4Z" transform="translate(-1130.11 -498.32)"/><path class="cls-3" d="M2627,1636.66l-29.67,166.66c-.64,3.58-4.79,5.88-9.35,5.26l-.45-.07-22.31-4-.44-.08c-4.49-1-7.6-4.58-7-8.17l26-146.2h1C2596.86,1649.69,2613.36,1647,2627,1636.66Z" transform="translate(-1130.11 -498.32)"/><rect class="cls-3" x="2625.62" y="1499.93" width="3.59" height="40.13" transform="translate(-461.11 3340.8) rotate(-79.87)"/><rect class="cls-3" x="2623.32" y="1511.76" width="3.59" height="40.13" transform="translate(-472.63 3350) rotate(-79.92)"/><rect class="cls-3" x="2621.12" y="1526.41" width="3.59" height="40.13" transform="translate(-490.49 3358.53) rotate(-79.88)"/><rect class="cls-3" x="2617.02" y="1548.26" width="3.59" height="40.13" transform="translate(-514.57 3373.21) rotate(-79.9)"/><rect class="cls-3" x="2612.86" y="1571.53" width="3.59" height="40.13" transform="translate(-540.9 3388.3) rotate(-79.9)"/><rect class="cls-3" x="2606.64" y="1607.3" width="3.59" height="40.13" transform="translate(-580.86 3412.03) rotate(-79.91)"/><rect class="cls-3" x="2600.45" y="1640.48" width="3.59" height="40.13" transform="translate(-619.02 3432.93) rotate(-79.9)"/><rect class="cls-3" x="2595.14" y="1670.3" width="3.59" height="40.13" transform="translate(-653.15 3451.92) rotate(-79.89)"/><rect class="cls-3" x="2627.65" y="1488.53" width="3.59" height="40.13" transform="translate(-447 3334.42) rotate(-79.9)"/><rect class="cls-3" x="2629.06" y="1481.06" width="3.59" height="40.13" transform="translate(-438.49 3329.64) rotate(-79.9)"/><rect class="cls-3" x="2630.13" y="1473.62" width="3.59" height="40.13" transform="translate(-430.68 3324.22) rotate(-79.89)"/><path class="cls-3" d="M2613,1486.61l39.51,7,.39-2.2a5.63,5.63,0,0,0,.1-1.36l-39.23-7a6.56,6.56,0,0,0-.38,1.31Z" transform="translate(-1130.11 -498.32)"/><path class="cls-3" d="M2614.46,1481.8l38.35,6.81a8,8,0,0,0-2.59-4.11l-31.92-5.67A8,8,0,0,0,2614.46,1481.8Z" transform="translate(-1130.11 -498.32)"/><path class="cls-2" d="M3376.51,1808.56h-135.8c-7.28-6.17,5-20.19,17.9-21.13,5.59-.42,12.66.74,20.73,2.45,1.87-24.82,12.54-136.4,52.76-131.92,45.22,5,0,49.14-12.78,75.26-9.47,19.35-19.46,47.09-24,60.18,3.67.8,7.47,1.58,11.35,2.3,6-18.41,28.3-80.32,56.66-76.71,33.31,4.22,19.92,29-3.68,43.78-17.32,10.83-38.58,26.23-48.69,33.67a144.16,144.16,0,0,0,26.56,2.13C3360.75,1798,3372.11,1804.87,3376.51,1808.56Z" transform="translate(-1130.11 -498.32)"/><path class="cls-2" d="M1605.81,1804.05c-5.39-8.47-21.63-30.46-43.24-27.55-23.56,3.17,26,18.7,41.19,27.62a25.65,25.65,0,0,1-8.4-1c-10.14-3.62-27.52,3.31-33.08,5.75h96.6A15.28,15.28,0,0,0,1652,1800c-1.59-1-4.78-1.11-8.89-.8,5.74-6.77,9.73-28.4-6.26-22.83-11.68,4.07-11.65,17.28-10.5,25.1-2.48.39-5,.78-7.49,1.14-4.81-24.51-21.82-96.34-56.3-98.26-35-1.94,29.64,74.5,51.14,99C1610.92,1803.69,1608.27,1803.94,1605.81,1804.05Z" transform="translate(-1130.11 -498.32)"/><circle class="cls-3" cx="2465.4" cy="1095.76" r="139.1" transform="translate(-1182.83 1565.92) rotate(-45)"/><path class="cls-2" d="M2576.44,1034.32a139.1,139.1,0,1,0-54.67,189,139.1,139.1,0,0,0,54.67-189Z" transform="translate(-1130.11 -498.32)"/><path class="cls-3" d="M2455.63,1229.62a126.71,126.71,0,1,1,61-15.73A126.71,126.71,0,0,1,2455.63,1229.62Zm-.39-245.95a119.53,119.53,0,1,0,33.29,4.75,119.53,119.53,0,0,0-33.29-4.75Z" transform="translate(-1130.11 -498.32)"/><path class="cls-3" d="M2488.45,1126.69a20.85,20.85,0,0,0-3.82-6.3,15.21,15.21,0,0,0-5.67-3.85,29.25,29.25,0,0,0-8.1-1.8,76.9,76.9,0,0,0-11.05-.08,196.75,196.75,0,0,1-20.32,0,62.65,62.65,0,0,1-16.89-3.06,37.3,37.3,0,0,1-13.26-7.77,41.88,41.88,0,0,1-12.33-29.37,35.16,35.16,0,0,1,3.34-14.29,43.79,43.79,0,0,1,9.08-12.66,58.89,58.89,0,0,1,14.4-10.25l-7.92-19.49,15.69-6.37,8,19.77a52.54,52.54,0,0,1,17.11-1.75,39.71,39.71,0,0,1,27.78,13.7,53,53,0,0,1,9.27,15.39l-28.33,11.5q-4.44-10.92-11.49-14.37t-15.19-.15a22.61,22.61,0,0,0-7.1,4.32,15.22,15.22,0,0,0-3.88,5.5,14.38,14.38,0,0,0-1,6.29,21.36,21.36,0,0,0,1.57,6.68,19.69,19.69,0,0,0,3.46,5.7,14.35,14.35,0,0,0,5.44,3.68,28.73,28.73,0,0,0,8.14,1.79,97.27,97.27,0,0,0,11.58.23q11-.3,20.26.26a63.91,63.91,0,0,1,16.88,3.17,35.86,35.86,0,0,1,22.58,21.87,38.11,38.11,0,0,1,3.05,15.52,34.94,34.94,0,0,1-3.42,14.23,42.49,42.49,0,0,1-9.27,12.46,63.24,63.24,0,0,1-14.55,10.15l7.36,18.13-15.59,6.32-7.33-18a70.37,70.37,0,0,1-17.17,2.84,45,45,0,0,1-16.68-2.4,40.34,40.34,0,0,1-14.69-9.16q-6.7-6.4-11.14-17.33l28.33-11.5a30.15,30.15,0,0,0,6.2,10,19.39,19.39,0,0,0,7.66,5,19.11,19.11,0,0,0,8.39.84,32.28,32.28,0,0,0,8.32-2.16,26.88,26.88,0,0,0,7.61-4.47,18.25,18.25,0,0,0,4.5-5.64,14.37,14.37,0,0,0,1.51-6.4A17.57,17.57,0,0,0,2488.45,1126.69Z" transform="translate(-1130.11 -498.32)"/><path class="cls-4" d="M2593,1020.75c-5.82-4.11-19-13.15-19.7-11.14-.5,1.45.21,3.91,1.79,6.47-8-3-16.09-4.94-35.25-1.25a14.32,14.32,0,0,0-9.43,6.2c-1.95,3-2.69,6.85,2.21,9.89,9.77,6.08,6.94,2.44,20.53,11.29s30.24,11.12,40.18,4.9l13.34-2.22,1.66-22S2600.76,1022,2593,1020.75Z" transform="translate(-1130.11 -498.32)"/><path class="cls-4" d="M2942.7,836.66s-31.46,37.32-71.52,21.71c0,0-8.62-20.84-8.74-36.21,0-1.89,0-3.72-.07-5.46-.21-17.31-.79-27-.79-27h0c1.82-.76,61.23-25.16,61.18-23.13C2921.79,813.32,2942.7,836.66,2942.7,836.66Z" transform="translate(-1130.11 -498.32)"/><path class="cls-5" d="M2916.84,777.71c-5.73,10.62-25.39,31.4-54.47,39-.21-17.31-.79-27-.79-27h0C2863.26,789.24,2918.54,774.58,2916.84,777.71Z" transform="translate(-1130.11 -498.32)"/><path class="cls-4" d="M2849.13,787.89s66.82,15.71,76-26.06,23.93-67.86-18.35-79.65-54.08,2.32-60.52,15.52S2832,782.72,2849.13,787.89Z" transform="translate(-1130.11 -498.32)"/><path class="cls-6" d="M2922.81,773.21c.91.59,15.29,5,42.52-49.24,4.27-8.51,7.18-26.93-2.78-43.21s-45.29-29.07-74.65-34.64-36.4,11-43.31,27.55c-7.25,17.42-28.21,31.77-28.21,31.77,25.31,14.13,55.8-6.09,66.36-2.76s14.29,20,15.08,25.3,2,9.77,15.3,5,6,18.82,3.87,23.33C2917,756.32,2915.19,768.32,2922.81,773.21Z" transform="translate(-1130.11 -498.32)"/><path class="cls-7" d="M3094.94,1814.68h40.46c8.48,0,17.9-8.5,20.26-24s19.8-24,23.57-36.77-15.56-30.65-15.56-30.65l-3.23-4.15-3.36-4.33-32,7.54s-.79,7.63-1.29,17.35c-.34,7-.53,15.13-.13,22.25,1,17-4.75,35.24-19.83,38.55S3094.94,1814.68,3094.94,1814.68Z" transform="translate(-1130.11 -498.32)"/><path class="cls-7" d="M2813.27,1814.68h107.25a10.09,10.09,0,0,0,2.28-.66c7.16-3.59,4.92-31,4-39.47-.16-1.57-.28-2.49-.28-2.49s-37.71-30.17-42.9-7.07c-.17.72-.35,1.43-.55,2.12h0c-6.55,21.61-35.82,31.42-52.72,34.16C2817.48,1803.39,2814.13,1810.91,2813.27,1814.68Z" transform="translate(-1130.11 -498.32)"/><path class="cls-8" d="M2834.89,1196.2s5.73,71.46,12.46,157.36c9.15,116.68,20.15,260,21.24,287.16,1.88,47.15,9.43,122.57,9.43,122.57s17.9,17.92,53.74,10.36c0,0,31.93-107.66,41-221.57.14-1.87.29-3.75.43-5.63,8.48-116,21.68-360.15,21.68-360.15Z" transform="translate(-1130.11 -498.32)"/><path class="cls-7" d="M2834.89,1196.2s5.73,71.46,12.46,157.36l125.46,198.52c.14-1.87.29-3.75.43-5.63,8.48-116,21.68-360.15,21.68-360.15Z" transform="translate(-1130.11 -498.32)"/><path class="cls-8" d="M2861,1204.69s103.24,258.79,171.12,380.41,89.09,155.56,89.09,155.56,38.89-15.55,42.43-26.16c0,0-26-234.79-71.42-292-25.68-32.34-55.86-129.4-57.27-163.34s-9.2-101.11-9.2-101.11Z" transform="translate(-1130.11 -498.32)"/><path class="cls-4" d="M3096.47,1157.67l1.09,16.64s-11,29.57,19.78,44.74c0,0,13.17,5.31,13.7-4.94s-1.15-6.39-.08-20.83-4.6-28.07-14.15-32.66l-7.83-9Z" transform="translate(-1130.11 -498.32)"/><path class="cls-6" d="M3108.49,1169.79c-11.43,3.67-13.26,2.84-13.26,2.84s-55.62-101.26-61.25-110.53S2915.9,948.56,2915.9,948.56l28.89-107.76s127.9,165.62,141.71,189.38c22.83,39.27,36.2,130.48,36.2,130.48A33.47,33.47,0,0,1,3108.49,1169.79Z" transform="translate(-1130.11 -498.32)"/><path class="cls-6" d="M2813.09,990.86c.4,22.13,1.69,47,3.42,72.28.11,1.5.22,3,.32,4.49,1.11,15.66,2.32,31.35,3.7,46.64q.82,9.21,1.75,18.16l.1.8a65.2,65.2,0,0,0,.56,6.85c5.64,57.31,11.55,102.58,12.65,103.28a6.43,6.43,0,0,0,4.4,1.12c15-1.89,59.86,1.52,96.57-6.46,31-6.54,57.65-18.93,85.91-35.63,3.75-2.22,12.31-8.09,11.61-12.48-.68-4.82-1.95-11.8-3.55-20.56-5.57-30.48-15.18-82.91-18.46-144.28q-1-17.14-2.77-33.82c-3.15-28.91-8.2-56.37-15-80.77-12.59-45.31-31.08-80-54.29-93.6-3-1.7-19.34,8.69-34.32,18.3-13.84,8.87-28.41,11.32-42.58,10.08l-12.47,13.79c-15.09,17.56-31.17,40.93-35.56,74.14-.33,2.46-.61,5.06-.85,7.83C2813.05,954.56,2812.75,971.68,2813.09,990.86Z" transform="translate(-1130.11 -498.32)"/><path class="cls-9" d="M2813.09,990.86c.4,22.13,1.69,47,3.42,72.28.11,1.5.22,3,.32,4.49,85.84-53.73,99.07-152,99.07-152-42.23,1.85-75.78,11.56-101.64,25.44C2813.05,954.56,2812.75,971.68,2813.09,990.86Z" transform="translate(-1130.11 -498.32)"/><path class="cls-6" d="M2596.21,1033.19c-.89-12.73,5.7-14.85,5.7-14.85s129.43-23.46,140.43-26.92,105.08-101.33,105.08-101.33,36.06-40.67,65.59-31.68c25.66,7.8,35.69,27.81,39.1,46.88A56.13,56.13,0,0,1,2926,962.94c-44.17,27.09-132.59,80.47-153.41,86.58-46.35,13.59-170.88,1.09-170.88,1.09A40.13,40.13,0,0,1,2596.21,1033.19Z" transform="translate(-1130.11 -498.32)"/><path class="cls-10" d="M2748.49,1281.78v481.08a51.16,51.16,0,0,1-51,51H2203a51.41,51.41,0,0,1-12.47-1.52,52.48,52.48,0,0,1-33.82-26.67l-.45-.88a51.54,51.54,0,0,1-5.29-19.49c-.09-1.19-.13-2.38-.13-3.59V1284.86a79,79,0,0,1,36.69-66.46h.06a68.31,68.31,0,0,0,28.35-78.09h467.48a68.36,68.36,0,0,0,26,76.54h0c1.17.82,2.38,1.61,3.6,2.35h0A73.35,73.35,0,0,1,2748.49,1281.78Z" transform="translate(-1130.11 -498.32)"/><path class="cls-10" d="M2748.49,1281.78v481.08a51.18,51.18,0,0,1-47.42,50.89c-1.18.09-2.38.13-3.6.13H2479.73a52.31,52.31,0,0,1-52.15-52.15V1284.86a78.94,78.94,0,0,1,36.69-66.46,68.37,68.37,0,0,0,28.42-78.13h190.7a68.4,68.4,0,0,0,29.67,78.91A73.37,73.37,0,0,1,2748.49,1281.78Z" transform="translate(-1130.11 -498.32)"/><path class="cls-11" d="M2709.43,1216.81c-15.27-9.14-81.42-41.55-249.64-40.18-192.68,1.58-269.87,40.52-272.23,41.73a68.31,68.31,0,0,0,28.35-78.09h467.48a68.36,68.36,0,0,0,26,76.54Z" transform="translate(-1130.11 -498.32)"/><path class="cls-8" d="M2694,1136.9v21.82a3.91,3.91,0,0,1-3.9,3.91H2209.23a3.92,3.92,0,0,1-3.91-3.91V1136.9a3.94,3.94,0,0,1,3.91-3.91h480.85A3.93,3.93,0,0,1,2694,1136.9Z" transform="translate(-1130.11 -498.32)"/><path class="cls-6" d="M2694,1136.9v21.82a3.91,3.91,0,0,1-3.9,3.91h-182a3.92,3.92,0,0,1-3.91-3.91V1136.9a3.94,3.94,0,0,1,3.91-3.91h182A3.93,3.93,0,0,1,2694,1136.9Z" transform="translate(-1130.11 -498.32)"/><path class="cls-12" d="M2373.17,1244.94s-12.4,17.45-23.76,17.69-28.65-8.08-28.65-8.08-10.43-23.25-3.35-32.35a15.17,15.17,0,0,1,14.51,2.38,22.29,22.29,0,0,1,3.84,3.68,12.18,12.18,0,0,0,6,4c8.11,2.46,17.73-3.34,21.33,2.26a37.72,37.72,0,0,0,6.27,7.42A28.25,28.25,0,0,0,2373.17,1244.94Z" transform="translate(-1130.11 -498.32)"/><path class="cls-12" d="M2211.59,1370.8s43.81-106.14,122.66-108.17c0,0,72.78,8.09,76.83,108.17Z" transform="translate(-1130.11 -498.32)"/><path class="cls-2" d="M2312.65,1265.88s31.6,7,41.35,2.89c0,0,1.48-13.21-11.83-11.36-9.11,1.27-15.05-3.11-18.54-4.88C2318.7,1250,2311.33,1260.32,2312.65,1265.88Z" transform="translate(-1130.11 -498.32)"/><path class="cls-8" d="M2340.15,1246c-2,1.52-8.23-21.37-8.23-21.37a22.29,22.29,0,0,1,3.84,3.68,12.18,12.18,0,0,0,6,4C2341.75,1233,2342.11,1244.48,2340.15,1246Z" transform="translate(-1130.11 -498.32)"/><path class="cls-8" d="M2369.33,1242c-.45.26-15.07,9-17,9s10.78-16.44,10.78-16.44A37.94,37.94,0,0,0,2369.33,1242Z" transform="translate(-1130.11 -498.32)"/><path class="cls-6" d="M2254.39,1341.15c-.81-.7,31-46.84,39.76-47.18s28.45,10.11,42.7,11.46,28.06-2.7,30.76,5.73,10.11,38.29,5.56,43.07S2271.88,1356.09,2254.39,1341.15Z" transform="translate(-1130.11 -498.32)"/><circle class="cls-3" cx="2078.83" cy="1602.68" r="197.89" transform="translate(-1654.5 1441.05) rotate(-45)"/><path class="cls-2" d="M2166.68,1780q-3.66,2.22-7.44,4.31c-.85.47-1.71.93-2.56,1.38l-5.87,3c-94.23,46.28-209.17,10.76-260.4-82.17-48.87-88.64-22.6-198.43,57.57-256.07a199,199,0,0,1,20.2-12.76c2.53-1.4,5.09-2.74,7.66-4s5-2.43,7.54-3.55A197.87,197.87,0,0,1,2237,1515.48C2288.38,1608.67,2256.73,1725.22,2166.68,1780Z" transform="translate(-1130.11 -498.32)"/><path class="cls-3" d="M2065.1,1793.44a180.56,180.56,0,1,1,86.78-22.49A180.56,180.56,0,0,1,2065.1,1793.44Zm-148.74-98.54a169.56,169.56,0,1,0-14.38-129,169.55,169.55,0,0,0,14.38,129Z" transform="translate(-1130.11 -498.32)"/><path class="cls-3" d="M2152,1630.32c-.39-1-.8-1.92-1.23-2.84a51.89,51.89,0,0,0-12-17.15,53.66,53.66,0,0,0-18.89-11.12,90.43,90.43,0,0,0-24-4.51q-13.24-.81-28.83-.37a139.27,139.27,0,0,1-16.47-.34,41.09,41.09,0,0,1-11.59-2.53,20.35,20.35,0,0,1-7.73-5.24,27.49,27.49,0,0,1-4.92-8.11,30,30,0,0,1-2.23-9.51,20.35,20.35,0,0,1,1.4-9,21.85,21.85,0,0,1,5.52-7.81,32.39,32.39,0,0,1,10.09-6.15q11.58-4.71,21.62.21t16.34,20.45l40.32-16.37a75.2,75.2,0,0,0-13.2-21.88,56.53,56.53,0,0,0-39.52-19.5,74.8,74.8,0,0,0-24.33,2.49L2031,1482.93l-22.31,9.06,11.25,27.73a83.72,83.72,0,0,0-20.48,14.58,62.7,62.7,0,0,0-12.92,18,50.21,50.21,0,0,0-4.74,20.34,53.94,53.94,0,0,0,4.2,21.68q5.14,12.71,13.28,20.12a52.87,52.87,0,0,0,18.87,11,89.51,89.51,0,0,0,24,4.36,284.27,284.27,0,0,0,28.9,0,107.26,107.26,0,0,1,15.73.11,41.44,41.44,0,0,1,11.52,2.56,21.89,21.89,0,0,1,8.07,5.48,29.65,29.65,0,0,1,5.43,9,24.73,24.73,0,0,1,1.92,9.56,20.37,20.37,0,0,1-2.15,9.1,25.74,25.74,0,0,1-6.4,8,38.72,38.72,0,0,1-10.83,6.36,46.54,46.54,0,0,1-11.83,3.07,27,27,0,0,1-11.94-1.19,27.78,27.78,0,0,1-10.9-7c-3.38-3.4-6.33-8.17-8.81-14.3L2010.55,1677q6.3,15.54,15.85,24.64a57.39,57.39,0,0,0,20.89,13A63.79,63.79,0,0,0,2071,1718a100.27,100.27,0,0,0,24.44-4l10.41,25.66,22.18-9-10.47-25.77a90,90,0,0,0,20.7-14.45,61.12,61.12,0,0,0,12.49-16.31c.25-.47.48-1,.71-1.42a49.68,49.68,0,0,0,4.86-20.24A54.48,54.48,0,0,0,2152,1630.32Z" transform="translate(-1130.11 -498.32)"/><path class="cls-7" d="M1916.68,914.32c.6-2.42-52.71,24.1-55.42,27.1-25,27.73-17.87,63.92-3.56,64.27,9.17.22,7.39,15.48,7.39,15.48l102.22-43.24S1955,906.18,1916.68,914.32Z" transform="translate(-1130.11 -498.32)"/><path class="cls-7" d="M1929.26,919.94s3.66-39.82-40.84-39.82c0,0,13.49,3.66,20.46,11,0,0-28.38-16.66-59.26,8.94s-11.69,89.8-21.08,102-46,14.63-41.49,54,116.06,88.78,108.89,121.39c0,0,43.73-64.29,12.46-93.62,0,0,15.25,14.35,16.8,31.42,0,0,4.14-33.32-17.07-44-18.76-9.43-34.13-43.92-32.5-50.08S1929.26,919.94,1929.26,919.94Z" transform="translate(-1130.11 -498.32)"/><path class="cls-13" d="M1888.86,1107.32c-6.86-33-49.69-43.28-70-16.3a35.79,35.79,0,0,0-7,17.35c-4.62,37.5,55.34,190.25,63.92,204.08,15.63,25.18,107.69,111.49,107.69,111.49l17-10.29s-65.29-110.53-75.4-120.88C1913.33,1280.77,1901.89,1170,1888.86,1107.32Z" transform="translate(-1130.11 -498.32)"/><path class="cls-13" d="M1977,1413.66s24.77-16.26,34.14-15.21,36.5,8.85,36.83,12.84-30.23,6.48-32.28,8.66-22.8,16-30.32,11.69S1977,1413.66,1977,1413.66Z" transform="translate(-1130.11 -498.32)"/><path class="cls-8" d="M1804.29,1781l-22.12-3.25s-74.37-59.11-85.45-169.39a197.15,197.15,0,0,1-.53-34.1,6,6,0,0,0-.77-3.76h0c-2.38-3.65-8.31-12.79-16.33-25.79-7.91-12.81-21.44-37-36.32-64.2-26.82-48.94-58-107.47-68.75-126.11-34.13-59.41-17.68-99.36-17.68-99.36s95.19-9.41,121.28-32.23l9.4,14.48s20.62,91.31,19.65,91.73l3.09,9.49c16.28,50.24,35,113,45.21,164.17,5.74,28.77,8.78,53.85,7.14,70.93-.56,5.86.12,14.86,1.68,26C1773,1665,1804.29,1781,1804.29,1781Z" transform="translate(-1130.11 -498.32)"/><path class="cls-7" d="M1850.69,1808.93h-92.28s-2.22-14.06,2.61-24.73c4.61-10.24,11.2-10.57.84-26.62,5.86,6,24.71,8.54,38.05,6.74,1.64,2.65,10.54,20.43,16,24.36C1821.94,1793,1848.84,1791.47,1850.69,1808.93Z" transform="translate(-1130.11 -498.32)"/><path class="cls-7" d="M1709.74,1338.42c-8.06,44.46-27.1,118.45-67,142-26.82-48.94-58-107.47-68.75-126.11-34.13-59.41-17.68-99.36-17.68-99.36s95.19-9.41,121.28-32.23l9.4,14.48s20.62,91.31,19.65,91.73Z" transform="translate(-1130.11 -498.32)"/><path class="cls-9" d="M1879,1086.78s13,13.57,19,29.83c0,0-20.82,59.77-69.46,67.26C1828.54,1183.87,1867,1086.76,1879,1086.78Z" transform="translate(-1130.11 -498.32)"/><path class="cls-8" d="M1645,1261.82l.31-17.27c-34.39,4.34-118.57-41.09-118.57-41.09s-36,23.93-40.9,92.27c-2.41,33.35-17.62,174.41-19.3,216.53-.61,15.27-.81,26.16-.88,30.51h0a6,6,0,0,1-1.46,3.55,196.08,196.08,0,0,0-18.63,28.56c-52.48,97.63-25,230.29-25,230.29l12.19-3.09s44.37-137.53,73.36-197c4.93-10.08,9.4-17.93,13.14-22.48,10.9-13.24,22.4-35.73,33.73-62.8,21.42-51.17,42.22-118.69,57-171C1611.07,1349.05,1645,1261.82,1645,1261.82Z" transform="translate(-1130.11 -498.32)"/><path class="cls-4" d="M1846.26,1146.62c-56.22-12.9-20.3-91.9-17-90.51,7.78-1.59,24.89-15.26,40.19-42l2.07,1.79,34.53,30.27s-8,11.77-14.7,23.31c-5.24,9-9.7,17.92-9,21C1885.1,1092.67,1861.25,1150.07,1846.26,1146.62Z" transform="translate(-1130.11 -498.32)"/><path class="cls-13" d="M1906,1046.21s-8,11.76-14.7,23.31c-21.46-13.24-21.49-39.82-19.83-53.58Z" transform="translate(-1130.11 -498.32)"/><path class="cls-4" d="M1907,1061.37s-52.13-29-33.57-61.19,24.34-57.6,58.4-40.44,33.4,33.14,29.81,45.39S1921,1068.09,1907,1061.37Z" transform="translate(-1130.11 -498.32)"/><path class="cls-7" d="M1970.42,986.32c-2.39-14.29-9.65-15.66-14.71-14.7-19.25-31.84-50.7-19.41-50.7-19.41-16.8,21.07-41.08,24.67-41.08,24.67s6,11.26,31,18.22c7.61,2.13,16.25.84,24.59-2a139,139,0,0,1-35.38,13.33c32.85,3,64.09-27,67.33-30.23,1.52,4.65,4.18,14.39,2.59,21.52-2.17,9.67-10.76,27.2-5.51,29.47C1948.52,1027.32,1974,1007.78,1970.42,986.32Z" transform="translate(-1130.11 -498.32)"/><path class="cls-7" d="M1493.94,1808.93h-92.29s-2.21-14.06,2.61-24.73c4.62-10.24,11.85-14.9,10.12-27.28,5.87,6,15.42,12.79,28.77,11,1.63,2.65,10.55,16.83,16,20.76C1465.19,1793,1492.08,1791.47,1493.94,1808.93Z" transform="translate(-1130.11 -498.32)"/><path class="cls-6" d="M1852.87,1209.25c-11.87,4.14-28.54,6.41-45.59,8.26-24.26,2.65-49.32,4.46-62.44,9.7-4.79,1.91-8,4.26-9,7.28-5.69,17.1-30.76,43.5-30.76,43.5-160.69-7.32-178.33-74.53-178.33-74.53,108.12-125.72,291.18-162.14,291.18-162.14s13.07-5.54,46,20.63c22,17.47,19.08,24.17,19.08,24.17S1887.82,1197.06,1852.87,1209.25Z" transform="translate(-1130.11 -498.32)"/><path class="cls-9" d="M1807.28,1217.51c-24.26,2.65-49.32,4.46-62.44,9.7-5.36-80.15,32.46-140.43,32.46-140.43S1802,1187.18,1807.28,1217.51Z" transform="translate(-1130.11 -498.32)"/><path class="cls-4" d="M1832.26,1071.32s-60.82,6-65.69,45.53,58.3,200.48,67.35,215c16.48,26.53,113.48,117.47,113.48,117.47l17.88-10.84s-68.81-116.48-79.46-127.38C1869.09,1294,1852.85,1085,1832.26,1071.32Z" transform="translate(-1130.11 -498.32)"/><path class="cls-9" d="M1768.32,1140.57c.16.9,56.13,18.29,92.15,0,0,0,7.71-83.1-35.3-78.59s-68.46,18-69.54,38.64S1768.32,1140.57,1768.32,1140.57Z" transform="translate(-1130.11 -498.32)"/><path class="cls-4" d="M1941.87,1437.78s21.82-20,31.24-20.51,37.45,2.86,38.42,6.74-28.79,11.26-30.47,13.74-19.92,19.5-28,16.43S1941.87,1437.78,1941.87,1437.78Z" transform="translate(-1130.11 -498.32)"/><rect class="cls-6" y="1310.25" width="2505.32" height="6.65" rx="2.93"/></svg>